{"glyphs":{"0":{"ha":521,"x_min":0,"x_max":421,"o":"m 136 903 q 158 949 136 929 q 211 968 179 968 q 263 949 242 968 q 285 903 285 929 q 263 856 285 875 q 211 836 242 836 q 158 856 179 836 q 136 903 136 875 m 278 764 q 299 815 278 793 q 349 836 319 836 q 399 815 378 836 q 419 764 419 793 q 399 713 419 733 q 349 692 378 692 q 299 713 319 692 q 278 764 278 733 m 276 622 q 297 670 276 650 q 349 690 318 690 q 399 670 378 690 q 419 622 419 650 q 399 574 419 594 q 349 554 378 554 q 297 574 318 554 q 276 622 276 594 m 276 488 q 297 535 276 515 q 349 554 318 554 q 399 535 378 554 q 419 488 419 515 q 399 439 419 458 q 349 419 378 419 q 297 439 318 419 q 276 488 276 458 m 275 347 q 296 396 275 375 q 347 417 317 417 q 399 396 378 417 q 419 347 419 375 q 399 297 419 318 q 347 276 378 276 q 296 297 317 276 q 275 347 275 318 m 275 207 q 297 256 275 236 q 349 276 318 276 q 399 256 378 276 q 421 207 421 236 q 399 158 421 178 q 349 138 378 138 q 297 158 318 138 q 275 207 275 178 m 136 69 q 157 117 136 97 q 208 138 178 138 q 260 117 239 138 q 281 69 281 97 q 260 20 281 40 q 208 0 239 0 q 157 20 178 0 q 136 69 136 40 m 0 207 q 20 256 0 236 q 68 276 40 276 q 116 256 96 276 q 136 207 136 236 q 116 158 136 178 q 68 138 96 138 q 20 158 40 138 q 0 207 0 178 m 0 347 q 21 396 0 375 q 72 417 42 417 q 122 396 101 417 q 143 347 143 375 q 122 297 143 318 q 72 276 101 276 q 21 297 42 276 q 0 347 0 318 m 0 486 q 21 534 0 514 q 72 554 42 554 q 122 534 101 554 q 143 486 143 514 q 122 437 143 457 q 72 417 101 417 q 21 437 42 417 q 0 486 0 457 m 0 625 q 21 674 0 653 q 72 694 42 694 q 122 674 101 694 q 143 625 143 653 q 122 575 143 596 q 72 554 101 554 q 21 575 42 554 q 0 625 0 596 m 0 763 q 21 810 0 790 q 72 829 42 829 q 122 810 101 829 q 143 763 143 790 q 122 714 143 733 q 72 694 101 694 q 21 714 42 694 q 0 763 0 733 z "},"1":{"ha":521,"x_min":0,"x_max":425,"o":"m 140 901 q 161 949 140 929 q 213 968 182 968 q 263 949 242 968 q 283 901 283 929 q 263 854 283 874 q 213 835 242 835 q 161 854 182 835 q 140 901 140 874 m 136 764 q 158 814 136 793 q 210 835 179 835 q 262 814 240 835 q 283 764 283 793 q 262 714 283 735 q 210 693 240 693 q 158 714 179 693 q 136 764 136 735 m 136 625 q 158 673 136 653 q 211 693 179 693 q 263 673 242 693 q 285 625 285 653 q 263 576 285 596 q 211 556 242 556 q 158 576 179 556 q 136 625 136 596 m 135 486 q 157 535 135 515 q 210 556 179 556 q 263 535 240 556 q 285 486 285 515 q 263 437 285 457 q 210 417 240 417 q 157 437 179 417 q 135 486 135 457 m 135 346 q 157 396 135 375 q 210 417 179 417 q 263 396 240 417 q 285 346 285 375 q 263 296 285 317 q 210 275 240 275 q 157 296 179 275 q 135 346 135 317 m 136 204 q 158 254 136 233 q 211 275 179 275 q 263 254 242 275 q 285 204 285 233 q 263 154 285 175 q 211 133 242 133 q 158 154 179 133 q 136 204 136 175 m 136 67 q 158 114 136 94 q 211 133 179 133 q 263 114 242 133 q 285 67 285 94 q 263 19 285 39 q 211 0 242 0 q 158 19 179 0 q 136 67 136 39 m 283 67 q 304 114 283 94 q 354 133 325 133 q 404 114 383 133 q 425 67 425 94 q 404 19 425 39 q 354 0 383 0 q 304 19 325 0 q 283 67 283 39 m 0 68 q 20 116 0 96 q 69 136 40 136 q 119 116 99 136 q 139 68 139 96 q 119 20 139 40 q 69 0 99 0 q 20 20 40 0 q 0 68 0 40 m 0 761 q 21 807 0 788 q 71 826 42 826 q 121 807 100 826 q 142 761 142 788 q 121 714 142 733 q 71 694 100 694 q 21 714 42 694 q 0 761 0 733 z "},"2":{"ha":694,"x_min":0,"x_max":563,"o":"m 0 68 q 21 116 0 96 q 72 136 42 136 q 122 116 101 136 q 143 68 143 96 q 122 20 143 40 q 72 0 101 0 q 21 20 42 0 q 0 68 0 40 m 143 68 q 163 116 143 96 q 213 136 183 136 q 260 116 240 136 q 281 68 281 96 q 260 20 281 40 q 213 0 240 0 q 163 20 183 0 q 143 68 143 40 m 281 68 q 301 115 281 96 q 351 135 322 135 q 400 115 379 135 q 421 68 421 96 q 400 19 421 39 q 351 0 379 0 q 301 19 322 0 q 281 68 281 39 m 421 68 q 442 115 421 96 q 492 135 463 135 q 542 115 521 135 q 563 68 563 96 q 542 19 563 39 q 492 0 521 0 q 442 19 463 0 q 421 68 421 39 m 0 204 q 21 252 0 232 q 71 272 42 272 q 119 252 99 272 q 140 204 140 232 q 119 155 140 175 q 71 135 99 135 q 21 155 42 135 q 0 204 0 175 m 133 346 q 155 396 133 375 q 207 417 176 417 q 259 396 238 417 q 281 346 281 375 q 259 294 281 315 q 207 274 238 274 q 155 294 176 274 q 133 346 133 315 m 281 485 q 301 533 281 513 q 351 553 322 553 q 400 533 379 553 q 421 485 421 513 q 400 437 421 457 q 351 417 379 417 q 301 437 322 417 q 281 485 281 457 m 421 624 q 441 674 421 653 q 490 694 461 694 q 540 674 519 694 q 560 624 560 653 q 540 574 560 594 q 490 553 519 553 q 441 574 461 553 q 421 624 421 594 m 414 764 q 435 812 414 792 q 488 832 457 832 q 538 812 517 832 q 560 764 560 792 q 538 715 560 735 q 488 694 517 694 q 435 715 457 694 q 414 764 414 735 m 279 900 q 299 948 279 928 q 347 968 318 968 q 394 948 375 968 q 414 900 414 928 q 394 852 414 872 q 347 832 375 832 q 299 852 318 832 q 279 900 279 872 m 138 900 q 158 948 138 928 q 208 968 179 968 q 258 948 238 968 q 279 900 279 928 q 258 852 279 872 q 208 832 238 832 q 158 852 179 832 q 138 900 138 872 m 0 764 q 20 812 0 792 q 69 832 40 832 q 117 812 97 832 q 138 764 138 792 q 117 715 138 735 q 69 694 97 694 q 20 715 40 694 q 0 764 0 735 z "},"3":{"ha":694,"x_min":0,"x_max":563,"o":"m 0 761 q 21 809 0 789 q 72 829 42 829 q 124 809 103 829 q 144 761 144 789 q 124 713 144 733 q 72 693 103 693 q 21 713 42 693 q 0 761 0 733 m 135 901 q 156 949 135 929 q 208 968 178 968 q 260 949 239 968 q 282 901 282 929 q 260 853 282 872 q 208 833 239 833 q 156 853 178 833 q 135 901 135 872 m 282 900 q 302 948 282 928 q 351 968 322 968 q 401 948 381 968 q 421 900 421 928 q 401 851 421 871 q 351 831 381 831 q 302 851 322 831 q 282 900 282 871 m 421 763 q 441 811 421 790 q 490 832 461 832 q 538 811 518 832 q 558 763 558 790 q 538 713 558 733 q 490 692 518 692 q 441 713 461 692 q 421 763 421 733 m 414 622 q 435 672 414 651 q 486 692 456 692 q 538 672 517 692 q 558 622 558 651 q 538 573 558 593 q 486 553 517 553 q 435 573 456 553 q 414 622 414 593 m 278 485 q 298 533 278 513 q 346 553 318 553 q 394 533 374 553 q 414 485 414 513 q 394 435 414 456 q 346 415 374 415 q 298 435 318 415 q 278 485 278 456 m 415 346 q 437 396 415 375 q 489 417 458 417 q 541 396 519 417 q 563 346 563 375 q 541 294 563 315 q 489 274 519 274 q 437 294 458 274 q 415 346 415 315 m 414 204 q 435 253 414 233 q 489 274 457 274 q 541 253 519 274 q 563 204 563 233 q 541 155 563 175 q 489 135 519 135 q 435 155 457 135 q 414 204 414 175 m 275 68 q 295 115 275 96 q 344 135 315 135 q 394 115 374 135 q 414 68 414 96 q 394 19 414 39 q 344 0 374 0 q 295 19 315 0 q 275 68 275 39 m 138 68 q 158 115 138 96 q 207 135 178 135 q 255 115 235 135 q 275 68 275 96 q 255 19 275 39 q 207 0 235 0 q 158 19 178 0 q 138 68 138 39 m 0 206 q 20 254 0 233 q 69 275 40 275 q 117 254 97 275 q 138 206 138 233 q 117 156 138 176 q 69 135 97 135 q 20 156 40 135 q 0 206 0 176 z "},"4":{"ha":694,"x_min":0,"x_max":560,"o":"m 0 486 q 21 533 0 514 q 71 553 42 553 q 121 533 100 553 q 142 486 142 514 q 121 439 142 458 q 71 419 100 419 q 21 439 42 419 q 0 486 0 458 m 142 485 q 162 533 142 513 q 211 553 182 553 q 259 533 239 553 q 279 485 279 513 q 259 435 279 456 q 211 415 239 415 q 162 435 182 415 q 142 485 142 456 m 279 486 q 300 535 279 514 q 350 556 321 556 q 400 535 379 556 q 421 486 421 514 q 400 436 421 457 q 350 415 379 415 q 300 436 321 415 q 279 486 279 457 m 421 486 q 441 535 421 515 q 490 556 461 556 q 540 535 519 556 q 560 486 560 515 q 540 437 560 457 q 490 417 519 417 q 441 437 461 417 q 421 486 421 457 m 415 346 q 436 396 415 375 q 488 417 457 417 q 539 396 518 417 q 560 346 560 375 q 539 296 560 317 q 488 275 518 275 q 436 296 457 275 q 415 346 415 317 m 415 206 q 436 255 415 235 q 488 275 457 275 q 538 255 517 275 q 558 206 558 235 q 538 156 558 176 q 488 136 517 136 q 436 156 457 136 q 415 206 415 176 m 414 68 q 435 116 414 96 q 486 136 456 136 q 538 116 517 136 q 558 68 558 96 q 538 20 558 40 q 486 0 517 0 q 435 20 456 0 q 414 68 414 40 m 0 629 q 20 676 0 657 q 69 696 40 696 q 119 676 99 696 q 139 629 139 657 q 119 581 139 600 q 69 561 99 561 q 20 581 40 561 q 0 629 0 600 m 139 764 q 160 812 139 792 q 210 832 181 832 q 258 812 238 832 q 279 764 279 792 q 258 716 279 736 q 210 696 238 696 q 160 716 181 696 q 139 764 139 736 m 279 900 q 300 948 279 928 q 350 968 321 968 q 400 948 379 968 q 421 900 421 928 q 400 852 421 872 q 350 832 379 832 q 300 852 321 832 q 279 900 279 872 m 421 900 q 441 948 421 928 q 490 968 461 968 q 538 948 518 968 q 558 900 558 928 q 538 852 558 872 q 490 832 518 832 q 441 852 461 832 q 421 900 421 872 m 414 764 q 435 812 414 792 q 486 832 456 832 q 538 812 517 832 q 558 764 558 792 q 538 716 558 736 q 486 696 517 696 q 435 716 456 696 q 414 764 414 736 m 414 625 q 435 675 414 654 q 488 696 457 696 q 538 675 517 696 q 560 625 560 654 q 538 575 560 596 q 488 554 517 554 q 435 575 457 554 q 414 625 414 596 z "},"5":{"ha":694,"x_min":0,"x_max":565,"o":"m 0 900 q 21 948 0 928 q 71 968 42 968 q 121 948 100 968 q 142 900 142 928 q 121 851 142 871 q 71 831 100 831 q 21 851 42 831 q 0 900 0 871 m 142 900 q 163 948 142 928 q 213 968 183 968 q 263 948 242 968 q 283 900 283 928 q 263 851 283 871 q 213 831 242 831 q 163 851 183 831 q 142 900 142 871 m 283 901 q 303 949 283 929 q 353 968 324 968 q 401 949 381 968 q 421 901 421 929 q 401 853 421 872 q 353 833 381 833 q 303 853 324 833 q 283 901 283 872 m 421 901 q 441 949 421 929 q 490 968 461 968 q 540 949 519 968 q 560 901 560 929 q 540 853 560 872 q 490 833 519 833 q 441 853 461 833 q 421 901 421 872 m 0 761 q 21 810 0 790 q 71 831 42 831 q 121 810 100 831 q 142 761 142 790 q 121 712 142 732 q 71 692 100 692 q 21 712 42 692 q 0 761 0 732 m 0 625 q 21 672 0 653 q 71 692 42 692 q 121 672 100 692 q 142 625 142 653 q 121 576 142 596 q 71 557 100 557 q 21 576 42 557 q 0 625 0 596 m 146 622 q 165 672 146 651 q 214 692 185 692 q 261 672 242 692 q 281 622 281 651 q 261 573 281 593 q 214 553 242 553 q 165 573 185 553 q 146 622 146 593 m 279 622 q 300 670 279 650 q 351 690 321 690 q 403 670 382 690 q 424 622 424 650 q 403 573 424 593 q 351 553 382 553 q 300 573 321 553 q 279 622 279 593 m 421 492 q 442 542 421 521 q 492 564 463 564 q 540 542 519 564 q 561 492 561 521 q 540 440 561 461 q 492 418 519 418 q 442 440 463 418 q 421 492 421 461 m 413 346 q 434 397 413 375 q 488 418 456 418 q 540 397 518 418 q 561 346 561 375 q 540 294 561 315 q 488 272 518 272 q 434 294 456 272 q 413 346 413 315 m 413 201 q 435 251 413 231 q 489 272 457 272 q 543 251 521 272 q 565 201 565 231 q 543 151 565 172 q 489 131 521 131 q 435 151 457 131 q 413 201 413 172 m 279 64 q 300 108 279 89 q 350 126 321 126 q 400 108 379 126 q 421 64 421 89 q 400 19 421 38 q 350 0 379 0 q 300 19 321 0 q 279 64 279 38 m 135 69 q 156 117 135 97 q 207 138 176 138 q 258 117 238 138 q 279 69 279 97 q 258 20 279 40 q 207 0 238 0 q 156 20 176 0 q 135 69 135 40 m 0 207 q 19 256 0 236 q 68 276 39 276 q 115 256 96 276 q 135 207 135 236 q 115 158 135 178 q 68 138 96 138 q 19 158 39 138 q 0 207 0 178 z "},"6":{"ha":694,"x_min":0,"x_max":558,"o":"m 276 901 q 297 949 276 929 q 346 968 317 968 q 394 949 374 968 q 414 901 414 929 q 394 854 414 874 q 346 835 374 835 q 297 854 317 835 q 276 901 276 874 m 138 901 q 158 949 138 929 q 207 968 178 968 q 256 949 236 968 q 276 901 276 929 q 256 854 276 874 q 207 835 236 835 q 158 854 178 835 q 138 901 138 874 m 0 761 q 21 808 0 789 q 72 828 42 828 q 122 808 101 828 q 143 761 143 789 q 122 714 143 733 q 72 694 101 694 q 21 714 42 694 q 0 761 0 733 m 0 625 q 21 674 0 654 q 72 694 42 694 q 122 674 101 694 q 143 625 143 654 q 122 576 143 596 q 72 556 101 556 q 21 576 42 556 q 0 625 0 596 m 0 486 q 21 535 0 515 q 72 556 42 556 q 122 535 101 556 q 143 486 143 515 q 122 437 143 457 q 72 417 101 417 q 21 437 42 417 q 0 486 0 457 m 0 346 q 21 396 0 375 q 72 417 42 417 q 122 396 101 417 q 143 346 143 375 q 122 296 143 317 q 72 275 101 275 q 21 296 42 275 q 0 346 0 317 m 0 206 q 21 254 0 233 q 72 275 42 275 q 122 254 101 275 q 143 206 143 233 q 122 156 143 176 q 72 135 101 135 q 21 156 42 135 q 0 206 0 176 m 143 68 q 163 115 143 96 q 211 135 183 135 q 259 115 239 135 q 279 68 279 96 q 259 19 279 39 q 211 0 239 0 q 163 19 183 0 q 143 68 143 39 m 279 68 q 300 115 279 96 q 350 135 321 135 q 399 115 378 135 q 419 68 419 96 q 399 19 419 39 q 350 0 378 0 q 300 19 321 0 q 279 68 279 39 m 419 204 q 440 253 419 233 q 489 274 460 274 q 538 253 518 274 q 558 204 558 233 q 538 155 558 175 q 489 135 518 135 q 440 155 460 135 q 419 204 419 175 m 411 343 q 433 391 411 371 q 485 411 454 411 q 537 391 515 411 q 558 343 558 371 q 537 294 558 314 q 485 274 515 274 q 433 294 454 274 q 411 343 411 314 m 411 482 q 433 532 411 511 q 485 553 454 553 q 537 532 515 553 q 558 482 558 511 q 537 432 558 453 q 485 411 515 411 q 433 432 454 411 q 411 482 411 453 m 282 625 q 301 673 282 653 q 347 693 321 693 q 393 673 374 693 q 413 625 413 653 q 393 576 413 596 q 347 556 374 556 q 301 576 321 556 q 282 625 282 596 m 139 625 q 160 673 139 653 q 211 693 181 693 q 261 673 240 693 q 282 625 282 653 q 261 576 282 596 q 211 556 240 556 q 160 576 181 556 q 139 625 139 596 z "},"7":{"ha":694,"x_min":0,"x_max":560,"o":"m 0 901 q 21 949 0 929 q 71 968 42 968 q 121 949 100 968 q 142 901 142 929 q 121 853 142 872 q 71 833 100 833 q 21 853 42 833 q 0 901 0 872 m 142 901 q 162 949 142 929 q 211 968 182 968 q 260 949 240 968 q 281 901 281 929 q 260 853 281 872 q 211 833 240 833 q 162 853 182 833 q 142 901 142 872 m 281 901 q 301 949 281 929 q 350 968 321 968 q 398 949 378 968 q 418 901 418 929 q 398 853 418 872 q 350 833 378 833 q 301 853 321 833 q 281 901 281 872 m 418 901 q 439 949 418 929 q 489 968 460 968 q 539 949 518 968 q 560 901 560 929 q 539 853 560 872 q 489 833 518 833 q 439 853 460 833 q 418 901 418 872 m 417 761 q 438 808 417 789 q 489 828 458 828 q 539 808 518 828 q 560 761 560 789 q 539 713 560 732 q 489 693 518 693 q 438 713 458 693 q 417 761 417 732 m 417 624 q 438 673 417 653 q 488 693 458 693 q 538 673 517 693 q 558 624 558 653 q 538 574 558 594 q 488 554 517 554 q 438 574 458 554 q 417 624 417 594 m 272 486 q 294 534 272 514 q 346 554 315 554 q 398 534 376 554 q 419 486 419 514 q 398 437 419 457 q 346 417 376 417 q 294 437 315 417 q 272 486 272 457 m 136 347 q 156 396 136 375 q 204 417 176 417 q 252 396 232 417 q 272 347 272 375 q 252 297 272 318 q 204 276 232 276 q 156 297 176 276 q 136 347 136 318 m 0 207 q 20 256 0 235 q 68 276 40 276 q 116 256 96 276 q 136 207 136 235 q 116 157 136 178 q 68 136 96 136 q 20 157 40 136 q 0 207 0 178 m 0 68 q 21 116 0 96 q 71 136 42 136 q 119 116 99 136 q 140 68 140 96 q 119 20 140 40 q 71 0 99 0 q 21 20 42 0 q 0 68 0 40 z "},"8":{"ha":694,"x_min":0,"x_max":561,"o":"m 135 900 q 156 948 135 928 q 208 968 178 968 q 260 948 239 968 q 282 900 282 928 q 260 852 282 872 q 208 832 239 832 q 156 852 178 832 q 135 900 135 872 m 282 900 q 302 948 282 928 q 351 968 322 968 q 401 948 381 968 q 421 900 421 928 q 401 852 421 872 q 351 832 381 832 q 302 852 322 832 q 282 900 282 872 m 422 763 q 442 813 422 792 q 492 833 463 833 q 541 813 521 833 q 561 763 561 792 q 541 713 561 733 q 492 692 521 692 q 442 713 463 692 q 422 763 422 733 m 414 625 q 435 672 414 653 q 488 692 457 692 q 540 672 518 692 q 561 625 561 653 q 540 578 561 597 q 488 558 518 558 q 435 578 457 558 q 414 625 414 597 m 275 488 q 295 538 275 517 q 344 558 315 558 q 394 538 374 558 q 414 488 414 517 q 394 438 414 458 q 344 417 374 417 q 295 438 315 417 q 275 488 275 458 m 136 485 q 156 533 136 513 q 206 553 176 553 q 255 533 235 553 q 275 485 275 513 q 255 437 275 457 q 206 417 235 417 q 156 437 176 417 q 136 485 136 457 m 0 621 q 20 668 0 649 q 68 688 40 688 q 116 668 96 688 q 136 621 136 649 q 116 572 136 592 q 68 553 96 553 q 20 572 40 553 q 0 621 0 592 m 0 760 q 21 810 0 789 q 72 831 42 831 q 124 810 103 831 q 144 760 144 789 q 124 708 144 729 q 72 688 103 688 q 21 708 42 688 q 0 760 0 729 m 0 347 q 20 395 0 375 q 69 415 40 415 q 117 395 97 415 q 138 347 138 375 q 117 298 138 318 q 69 278 97 278 q 20 298 40 278 q 0 347 0 318 m 0 207 q 21 257 0 236 q 71 278 42 278 q 119 257 99 278 q 140 207 140 236 q 119 156 140 176 q 71 135 99 135 q 21 156 42 135 q 0 207 0 176 m 140 68 q 161 115 140 96 q 211 135 182 135 q 261 115 240 135 q 282 68 282 96 q 261 19 282 39 q 211 0 240 0 q 161 19 182 0 q 140 68 140 39 m 282 68 q 302 116 282 96 q 351 136 322 136 q 401 116 381 136 q 421 68 421 96 q 401 20 421 40 q 351 0 381 0 q 302 20 322 0 q 282 68 282 40 m 421 206 q 441 255 421 235 q 490 275 461 275 q 538 255 518 275 q 558 206 558 235 q 538 156 558 176 q 490 136 518 136 q 441 156 461 136 q 421 206 421 176 m 415 346 q 436 394 415 374 q 488 415 457 415 q 538 394 517 415 q 558 346 558 374 q 538 296 558 317 q 488 275 517 275 q 436 296 457 275 q 415 346 415 317 z "},"9":{"ha":694,"x_min":0,"x_max":563,"o":"m 275 349 q 295 399 275 378 q 344 419 315 419 q 392 399 372 419 q 413 349 413 378 q 392 299 413 319 q 344 278 372 278 q 295 299 315 278 q 275 349 275 319 m 139 347 q 159 395 139 375 q 207 415 179 415 q 255 395 235 415 q 275 347 275 375 q 255 298 275 318 q 207 278 235 278 q 159 298 179 278 q 139 347 139 318 m 0 485 q 20 534 0 514 q 69 554 40 554 q 119 534 99 554 q 139 485 139 514 q 119 435 139 456 q 69 415 99 415 q 20 435 40 415 q 0 485 0 456 m 0 622 q 21 670 0 650 q 72 690 42 690 q 124 670 103 690 q 144 622 144 650 q 124 574 144 594 q 72 554 103 554 q 21 574 42 554 q 0 622 0 594 m 0 761 q 21 810 0 789 q 72 831 42 831 q 124 810 103 831 q 144 761 144 789 q 124 711 144 732 q 72 690 103 690 q 21 711 42 690 q 0 761 0 732 m 139 901 q 160 949 139 929 q 211 968 181 968 q 261 949 240 968 q 282 901 282 929 q 261 854 282 874 q 211 835 240 835 q 160 854 181 835 q 139 901 139 874 m 282 901 q 303 949 282 929 q 353 968 324 968 q 403 949 382 968 q 424 901 424 929 q 403 854 424 874 q 353 835 382 835 q 303 854 324 835 q 282 901 282 874 m 424 764 q 444 814 424 793 q 492 835 464 835 q 540 814 519 835 q 560 764 560 793 q 540 713 560 733 q 492 692 519 692 q 444 713 464 692 q 424 764 424 733 m 417 624 q 438 672 417 651 q 489 692 458 692 q 539 672 518 692 q 560 624 560 651 q 539 574 560 594 q 489 554 518 554 q 438 574 458 554 q 417 624 417 594 m 417 485 q 438 534 417 514 q 490 554 460 554 q 541 534 519 554 q 563 485 563 514 q 541 435 563 456 q 490 415 519 415 q 438 435 460 415 q 417 485 417 456 m 413 344 q 435 394 413 374 q 488 415 457 415 q 540 394 518 415 q 563 344 563 374 q 540 293 563 314 q 488 272 518 272 q 435 293 457 272 q 413 344 413 314 m 413 204 q 434 252 413 232 q 486 272 456 272 q 537 252 515 272 q 558 204 558 232 q 537 155 558 175 q 486 135 515 135 q 434 155 456 135 q 413 204 413 175 m 281 65 q 300 111 281 92 q 349 131 319 131 q 396 111 376 131 q 415 65 415 92 q 396 19 415 39 q 349 0 376 0 q 300 19 319 0 q 281 65 281 39 m 133 67 q 155 114 133 94 q 207 133 176 133 q 259 114 238 133 q 281 67 281 94 q 259 19 281 39 q 207 0 238 0 q 155 19 176 0 q 133 67 133 39 z "}," ":{"ha":832,"x_min":0,"x_max":0,"o":""},"!":{"ha":275,"x_min":0,"x_max":142,"o":"m 0 900 q 21 948 0 928 q 71 968 42 968 q 121 948 100 968 q 142 900 142 928 q 121 852 142 872 q 71 832 100 832 q 21 852 42 832 q 0 900 0 872 m 0 764 q 21 812 0 792 q 71 832 42 832 q 121 812 100 832 q 142 764 142 792 q 121 715 142 735 q 71 694 100 694 q 21 715 42 694 q 0 764 0 735 m 0 625 q 20 674 0 653 q 69 694 40 694 q 119 674 99 694 q 139 625 139 653 q 119 575 139 596 q 69 554 99 554 q 20 575 40 554 q 0 625 0 596 m 0 485 q 20 533 0 513 q 69 554 40 554 q 119 533 99 554 q 139 485 139 513 q 119 435 139 456 q 69 414 99 414 q 20 435 40 414 q 0 485 0 456 m 0 346 q 21 394 0 374 q 71 414 42 414 q 121 394 100 414 q 142 346 142 374 q 121 297 142 317 q 71 276 100 276 q 21 297 42 276 q 0 346 0 317 m 0 68 q 21 115 0 96 q 71 135 42 135 q 121 115 100 135 q 142 68 142 96 q 121 19 142 39 q 71 0 100 0 q 21 19 42 0 q 0 68 0 39 z "},"\"":{"ha":554,"x_min":0,"x_max":419,"o":"m 0 901 q 21 949 0 929 q 72 968 42 968 q 122 949 101 968 q 143 901 143 929 q 122 854 143 874 q 72 835 101 835 q 21 854 42 835 q 0 901 0 874 m 0 765 q 21 814 0 793 q 72 835 42 835 q 122 814 101 835 q 143 765 143 793 q 122 715 143 736 q 72 694 101 694 q 21 715 42 694 q 0 765 0 736 m 276 900 q 297 948 276 928 q 349 968 318 968 q 399 948 378 968 q 419 900 419 928 q 399 852 419 872 q 349 832 378 832 q 297 852 318 832 q 276 900 276 872 m 275 763 q 296 812 275 792 q 347 832 317 832 q 399 812 378 832 q 419 763 419 792 q 399 713 419 733 q 347 693 378 693 q 296 713 317 693 q 275 763 275 733 z "},"#":{"ha":833,"x_min":0,"x_max":697,"o":"m 0 624 q 21 672 0 651 q 71 692 42 692 q 121 672 100 692 q 142 624 142 651 q 121 574 142 594 q 71 554 100 554 q 21 574 42 554 q 0 624 0 594 m 142 624 q 162 673 142 653 q 211 693 182 693 q 260 673 240 693 q 281 624 281 653 q 260 574 281 594 q 211 554 240 554 q 162 574 182 554 q 142 624 142 594 m 281 626 q 301 674 281 654 q 350 693 321 693 q 399 674 379 693 q 419 626 419 654 q 399 578 419 597 q 350 558 379 558 q 301 578 321 558 q 281 626 281 597 m 419 626 q 440 674 419 654 q 489 693 460 693 q 537 674 517 693 q 557 626 557 654 q 537 578 557 597 q 489 558 517 558 q 440 578 460 558 q 419 626 419 597 m 557 624 q 578 672 557 651 q 628 693 599 693 q 676 672 656 693 q 697 624 697 651 q 676 574 697 594 q 628 553 656 553 q 578 574 599 553 q 557 624 557 594 m 414 486 q 435 538 414 517 q 486 558 456 558 q 538 538 517 558 q 558 486 558 517 q 538 435 558 456 q 486 414 517 414 q 435 435 456 414 q 414 486 414 456 m 414 346 q 435 394 414 374 q 486 414 456 414 q 538 394 517 414 q 558 346 558 374 q 538 297 558 317 q 486 276 517 276 q 435 297 456 276 q 414 346 414 317 m 558 344 q 578 392 558 372 q 628 411 599 411 q 677 392 657 411 q 697 344 697 372 q 677 296 697 315 q 628 276 657 276 q 578 296 599 276 q 558 344 558 315 m 415 206 q 437 253 415 233 q 489 274 458 274 q 540 253 518 274 q 561 206 561 233 q 540 158 561 178 q 489 138 518 138 q 437 158 458 138 q 415 206 415 178 m 278 346 q 298 393 278 374 q 347 413 318 413 q 395 393 375 413 q 415 346 415 374 q 395 299 415 318 q 347 279 375 279 q 298 299 318 279 q 278 346 278 318 m 139 347 q 159 395 139 375 q 208 415 179 415 q 258 395 238 415 q 278 347 278 375 q 258 299 278 319 q 208 279 238 279 q 159 299 179 279 q 139 347 139 319 m 0 347 q 20 395 0 375 q 69 415 40 415 q 119 395 99 415 q 139 347 139 375 q 119 299 139 319 q 69 279 99 279 q 20 299 40 279 q 0 347 0 319 m 136 208 q 157 254 136 235 q 207 274 178 274 q 257 254 236 274 q 278 208 278 235 q 257 161 278 181 q 207 142 236 142 q 157 161 178 142 q 136 208 136 181 m 142 485 q 162 532 142 513 q 211 551 182 551 q 259 532 239 551 q 279 485 279 513 q 259 436 279 456 q 211 417 239 417 q 162 436 182 417 q 142 485 142 456 m 143 765 q 163 813 143 793 q 211 832 183 832 q 259 813 239 832 q 279 765 279 793 q 259 719 279 739 q 211 699 239 699 q 163 719 183 699 q 143 765 143 739 m 418 763 q 438 810 418 790 q 488 829 458 829 q 537 810 517 829 q 557 763 557 790 q 537 714 557 733 q 488 694 517 694 q 438 714 458 694 q 418 763 418 733 z "},"$":{"ha":694,"x_min":0,"x_max":557,"o":"m 276 903 q 297 949 276 929 q 349 968 318 968 q 399 949 378 968 q 419 903 419 929 q 399 856 419 875 q 349 836 378 836 q 297 856 318 836 q 276 903 276 875 m 419 765 q 440 815 419 794 q 489 836 460 836 q 537 815 517 836 q 557 765 557 794 q 537 714 557 735 q 489 693 517 693 q 440 714 460 693 q 419 765 419 735 m 278 764 q 297 812 278 792 q 346 832 317 832 q 393 812 374 832 q 413 764 413 792 q 393 715 413 735 q 346 694 374 694 q 297 715 317 694 q 278 764 278 735 m 138 763 q 158 811 138 790 q 208 832 179 832 q 257 811 236 832 q 278 763 278 790 q 257 713 278 733 q 208 692 236 692 q 158 713 179 692 q 138 763 138 733 m 0 625 q 20 672 0 653 q 69 692 40 692 q 117 672 97 692 q 138 625 138 653 q 117 576 138 596 q 69 557 97 557 q 20 576 40 557 q 0 625 0 596 m 133 485 q 155 533 133 513 q 207 553 176 553 q 258 533 236 553 q 279 485 279 513 q 258 437 279 457 q 207 417 236 417 q 155 437 176 417 q 133 485 133 457 m 279 486 q 300 534 279 514 q 351 554 321 554 q 401 534 381 554 q 422 486 422 514 q 401 437 422 457 q 351 417 381 417 q 300 437 321 417 q 279 486 279 457 m 419 347 q 440 396 419 375 q 489 417 460 417 q 537 396 517 417 q 557 347 557 375 q 537 297 557 318 q 489 276 517 276 q 440 297 460 276 q 419 347 419 318 m 278 207 q 298 251 278 232 q 347 269 318 269 q 397 251 376 269 q 417 207 417 232 q 397 162 417 181 q 347 143 376 143 q 298 162 318 143 q 278 207 278 181 m 138 208 q 158 254 138 235 q 208 274 179 274 q 257 254 236 274 q 278 208 278 235 q 257 163 278 182 q 208 143 236 143 q 158 163 179 143 q 138 208 138 182 m 0 207 q 20 254 0 235 q 69 274 40 274 q 117 254 97 274 q 138 207 138 235 q 117 158 138 178 q 69 139 97 139 q 20 158 40 139 q 0 207 0 178 m 136 69 q 158 117 136 97 q 210 138 179 138 q 260 117 239 138 q 282 69 282 97 q 260 20 282 40 q 210 0 239 0 q 158 20 179 0 q 136 69 136 40 z "},"%":{"ha":833,"x_min":0,"x_max":697,"o":"m 0 901 q 21 949 0 929 q 71 968 42 968 q 121 949 100 968 q 142 901 142 929 q 121 854 142 874 q 71 835 100 835 q 21 854 42 835 q 0 901 0 874 m 142 764 q 162 814 142 793 q 210 835 182 835 q 258 814 238 835 q 278 764 278 793 q 258 713 278 733 q 210 692 238 692 q 162 713 182 692 q 142 764 142 733 m 144 900 q 165 948 144 928 q 213 968 185 968 q 260 948 240 968 q 281 900 281 928 q 260 852 281 872 q 213 832 240 832 q 165 852 185 832 q 144 900 144 872 m 0 760 q 21 809 0 789 q 71 829 42 829 q 119 809 99 829 q 140 760 140 789 q 119 710 140 731 q 71 690 99 690 q 21 710 42 690 q 0 760 0 731 m 556 901 q 576 949 556 929 q 626 968 597 968 q 676 949 656 968 q 697 901 697 929 q 676 854 697 874 q 626 835 656 835 q 576 854 597 835 q 556 901 556 874 m 553 765 q 574 815 553 794 q 625 835 594 835 q 676 815 656 835 q 697 765 697 794 q 676 716 697 736 q 625 696 656 696 q 574 716 594 696 q 553 765 553 736 m 418 625 q 438 675 418 654 q 486 696 457 696 q 533 675 514 696 q 553 625 553 654 q 533 574 553 594 q 486 553 514 553 q 438 574 457 553 q 418 625 418 594 m 278 485 q 299 533 278 513 q 349 553 319 553 q 397 533 376 553 q 418 485 418 513 q 397 437 418 457 q 349 417 376 417 q 299 437 319 417 q 278 485 278 457 m 138 349 q 158 397 138 376 q 208 417 179 417 q 257 397 236 417 q 278 349 278 376 q 257 299 278 319 q 208 279 236 279 q 158 299 179 279 q 138 349 138 319 m 0 211 q 20 260 0 239 q 69 281 40 281 q 119 260 99 281 q 139 211 139 239 q 119 161 139 182 q 69 140 99 140 q 20 161 40 140 q 0 211 0 182 m 0 68 q 21 116 0 96 q 72 136 42 136 q 124 116 103 136 q 144 68 144 96 q 124 20 144 40 q 72 0 103 0 q 21 20 42 0 q 0 68 0 40 m 413 68 q 434 115 413 96 q 486 135 456 135 q 537 115 515 135 q 558 68 558 96 q 537 19 558 39 q 486 0 515 0 q 434 19 456 0 q 413 68 413 39 m 558 206 q 578 256 558 235 q 628 276 599 276 q 676 256 656 276 q 696 206 696 235 q 676 156 696 176 q 628 135 656 135 q 578 156 599 135 q 558 206 558 176 m 557 68 q 577 115 557 96 q 625 135 597 135 q 673 115 653 135 q 693 68 693 96 q 673 19 693 39 q 625 0 653 0 q 577 19 597 0 q 557 68 557 39 m 414 204 q 435 253 414 233 q 486 274 456 274 q 536 253 515 274 q 557 204 557 233 q 536 155 557 175 q 486 135 515 135 q 435 155 456 135 q 414 204 414 175 z "},"&":{"ha":833,"x_min":0,"x_max":699,"o":"m 138 901 q 158 949 138 929 q 208 968 179 968 q 258 949 238 968 q 279 901 279 929 q 258 853 279 872 q 208 833 238 833 q 158 853 179 833 q 138 901 138 872 m 279 764 q 299 813 279 793 q 349 833 319 833 q 398 813 378 833 q 418 764 418 793 q 398 715 418 735 q 349 694 378 694 q 299 715 319 694 q 279 764 279 735 m 275 625 q 296 674 275 653 q 347 694 317 694 q 397 674 376 694 q 418 625 418 653 q 397 575 418 596 q 347 554 376 554 q 296 575 317 554 q 275 625 275 596 m 138 485 q 158 534 138 514 q 207 554 178 554 q 255 534 235 554 q 275 485 275 514 q 255 435 275 456 q 207 415 235 415 q 158 435 178 415 q 138 485 138 456 m 0 347 q 20 395 0 375 q 69 415 40 415 q 117 395 97 415 q 138 347 138 375 q 117 299 138 319 q 69 279 97 279 q 20 299 40 279 q 0 347 0 319 m 0 208 q 21 258 0 238 q 72 279 42 279 q 122 258 101 279 q 143 208 143 238 q 122 158 143 179 q 72 138 101 138 q 21 158 42 138 q 0 208 0 179 m 0 622 q 21 670 0 650 q 71 690 42 690 q 119 670 99 690 q 140 622 140 650 q 119 574 140 594 q 71 554 99 554 q 21 574 42 554 q 0 622 0 594 m 0 763 q 21 812 0 792 q 71 832 42 832 q 119 812 99 832 q 140 763 140 792 q 119 714 140 735 q 71 693 99 693 q 21 714 42 693 q 0 763 0 735 m 276 344 q 297 390 276 371 q 349 410 318 410 q 400 390 379 410 q 421 344 421 371 q 400 297 421 317 q 349 278 379 278 q 297 297 318 278 q 276 344 276 317 m 421 208 q 441 257 421 236 q 490 278 461 278 q 538 257 518 278 q 558 208 558 236 q 538 158 558 179 q 490 138 518 138 q 441 158 461 138 q 421 208 421 179 m 558 69 q 579 117 558 97 q 629 138 600 138 q 678 117 657 138 q 699 69 699 97 q 678 20 699 40 q 629 0 657 0 q 579 20 600 0 q 558 69 558 40 m 554 344 q 575 390 554 371 q 626 410 596 410 q 676 390 656 410 q 697 344 697 371 q 676 297 697 317 q 626 278 656 278 q 575 297 596 278 q 554 344 554 317 m 279 69 q 300 117 279 97 q 350 138 321 138 q 399 117 378 138 q 419 69 419 97 q 399 20 419 40 q 350 0 378 0 q 300 20 321 0 q 279 69 279 40 m 139 68 q 159 115 139 96 q 208 135 179 135 q 256 115 236 135 q 276 68 276 96 q 256 19 276 39 q 208 0 236 0 q 159 19 179 0 q 139 68 139 39 z "},"'":{"ha":283,"x_min":0,"x_max":135,"o":"m 0 1044 q 19 1092 0 1072 q 68 1111 39 1111 q 115 1092 96 1111 q 135 1044 135 1072 q 115 997 135 1017 q 68 978 96 978 q 19 997 39 978 q 0 1044 0 1017 m 0 908 q 19 957 0 936 q 68 978 39 978 q 115 957 96 978 q 135 908 135 936 q 115 858 135 879 q 68 838 96 838 q 19 858 39 838 q 0 908 0 879 z "},"(":{"ha":554,"x_min":0,"x_max":419,"o":"m 278 901 q 298 949 278 929 q 347 968 318 968 q 395 949 375 968 q 415 901 415 929 q 395 853 415 872 q 347 833 375 833 q 298 853 318 833 q 278 901 278 872 m 136 764 q 157 813 136 792 q 207 833 178 833 q 257 813 236 833 q 278 764 278 792 q 257 714 278 735 q 207 693 236 693 q 157 714 178 693 q 136 764 136 735 m 0 625 q 20 673 0 653 q 68 693 40 693 q 116 673 96 693 q 136 625 136 653 q 116 576 136 596 q 68 556 96 556 q 20 576 40 556 q 0 625 0 596 m 0 485 q 21 535 0 514 q 72 556 42 556 q 122 535 101 556 q 143 485 143 514 q 122 435 143 456 q 72 414 101 414 q 21 435 42 414 q 0 485 0 456 m 0 344 q 21 394 0 374 q 72 414 42 414 q 122 394 101 414 q 143 344 143 374 q 122 295 143 315 q 72 275 101 275 q 21 295 42 275 q 0 344 0 315 m 136 208 q 158 256 136 236 q 210 276 179 276 q 260 256 239 276 q 282 208 282 236 q 260 159 282 179 q 210 139 239 139 q 158 159 179 139 q 136 208 136 179 m 282 69 q 302 119 282 99 q 351 139 322 139 q 399 119 379 139 q 419 69 419 99 q 399 20 419 40 q 351 0 379 0 q 302 20 322 0 q 282 69 282 40 z "},")":{"ha":558,"x_min":0,"x_max":421,"o":"m 0 901 q 21 949 0 929 q 71 968 42 968 q 119 949 99 968 q 140 901 140 929 q 119 853 140 872 q 71 833 99 833 q 21 853 42 833 q 0 901 0 872 m 140 765 q 160 813 140 793 q 210 833 181 833 q 259 813 239 833 q 279 765 279 793 q 259 717 279 738 q 210 697 239 697 q 160 717 181 697 q 140 765 140 738 m 278 626 q 299 676 278 656 q 350 697 319 697 q 400 676 379 697 q 421 626 421 656 q 400 575 421 596 q 350 554 379 554 q 299 575 319 554 q 278 626 278 596 m 275 485 q 297 534 275 514 q 349 554 318 554 q 399 534 378 554 q 421 485 421 514 q 399 435 421 456 q 349 415 378 415 q 297 435 318 415 q 275 485 275 456 m 275 346 q 297 394 275 374 q 349 415 318 415 q 399 394 378 415 q 421 346 421 374 q 399 296 421 317 q 349 275 378 275 q 297 296 318 275 q 275 346 275 317 m 138 208 q 158 258 138 238 q 210 278 179 278 q 260 258 239 278 q 281 208 281 238 q 260 159 281 179 q 210 139 239 139 q 158 159 179 139 q 138 208 138 179 m 0 69 q 20 119 0 99 q 69 139 40 139 q 117 119 97 139 q 138 69 138 99 q 117 20 138 40 q 69 0 97 0 q 20 20 40 0 q 0 69 0 40 z "},"*":{"ha":833,"x_min":0,"x_max":697,"o":"m 0 482 q 21 527 0 508 q 71 546 42 546 q 121 527 100 546 q 142 482 142 508 q 121 435 142 454 q 71 417 100 417 q 21 435 42 417 q 0 482 0 454 m 142 483 q 162 531 142 511 q 211 550 182 550 q 260 531 240 550 q 281 483 281 511 q 260 436 281 456 q 211 417 240 417 q 162 436 182 417 q 142 483 142 456 m 281 483 q 301 531 281 511 q 349 550 321 550 q 397 531 376 550 q 417 483 417 511 q 397 436 417 456 q 349 417 376 417 q 301 436 321 417 q 281 483 281 456 m 417 485 q 438 532 417 513 q 488 551 458 551 q 538 532 517 551 q 558 485 558 513 q 538 436 558 456 q 488 417 517 417 q 438 436 458 417 q 417 485 417 456 m 558 485 q 578 532 558 513 q 628 551 599 551 q 677 532 657 551 q 697 485 697 513 q 677 438 697 457 q 628 418 657 418 q 578 438 599 418 q 558 485 558 457 m 413 344 q 434 392 413 372 q 486 411 456 411 q 538 392 517 411 q 560 344 560 372 q 538 296 560 315 q 486 276 517 276 q 434 296 456 276 q 413 344 413 315 m 560 207 q 580 256 560 236 q 628 276 600 276 q 676 256 656 276 q 696 207 696 236 q 676 158 696 178 q 628 138 656 138 q 580 158 600 138 q 560 207 560 178 m 136 347 q 157 395 136 375 q 208 415 178 415 q 260 395 239 415 q 281 347 281 375 q 260 298 281 318 q 208 278 239 278 q 157 298 178 278 q 136 347 136 318 m 0 210 q 20 258 0 238 q 68 278 40 278 q 116 258 96 278 q 136 210 136 238 q 116 162 136 182 q 68 142 96 142 q 20 162 40 142 q 0 210 0 182 m 281 622 q 301 673 281 651 q 351 694 322 694 q 400 673 379 694 q 421 622 421 651 q 400 570 421 592 q 351 549 379 549 q 301 570 322 549 q 281 622 281 592 m 275 763 q 297 810 275 790 q 349 829 318 829 q 399 810 378 829 q 421 763 421 790 q 399 714 421 733 q 349 694 378 694 q 297 714 318 694 q 275 763 275 733 z "},"+":{"ha":833,"x_min":0,"x_max":697,"o":"m 272 758 q 293 803 272 785 q 344 822 314 822 q 396 803 375 822 q 417 758 417 785 q 396 712 417 731 q 344 693 375 693 q 293 712 314 693 q 272 758 272 731 m 274 625 q 294 673 274 653 q 346 693 315 693 q 396 673 375 693 q 417 625 417 653 q 396 577 417 597 q 346 557 375 557 q 294 577 315 557 q 274 625 274 597 m 274 486 q 294 536 274 515 q 346 557 315 557 q 396 536 375 557 q 417 486 417 515 q 396 436 417 457 q 346 415 375 415 q 294 436 315 415 q 274 486 274 457 m 417 486 q 437 536 417 515 q 486 557 457 557 q 535 536 515 557 q 556 486 556 515 q 535 436 556 457 q 486 415 515 415 q 437 436 457 415 q 417 486 417 457 m 556 488 q 576 536 556 515 q 626 557 597 557 q 676 536 656 557 q 697 488 697 515 q 676 438 697 458 q 626 417 656 417 q 576 438 597 417 q 556 488 556 458 m 281 343 q 301 389 281 369 q 350 408 321 408 q 398 389 378 408 q 418 343 418 369 q 398 297 418 317 q 350 278 378 278 q 301 297 321 278 q 281 343 281 317 m 279 208 q 299 258 279 238 q 349 278 319 278 q 398 258 378 278 q 418 208 418 238 q 398 159 418 179 q 349 139 378 139 q 299 159 319 139 q 279 208 279 179 m 135 486 q 154 533 135 514 q 203 553 174 553 q 250 533 231 553 q 269 486 269 514 q 250 438 269 457 q 203 418 231 418 q 154 438 174 418 q 135 486 135 457 m 0 486 q 19 534 0 514 q 68 554 39 554 q 115 534 96 554 q 135 486 135 514 q 115 438 135 458 q 68 418 96 418 q 19 438 39 418 q 0 486 0 458 z "},",":{"ha":421,"x_min":0,"x_max":283,"o":"m 0 68 q 21 115 0 96 q 72 135 42 135 q 122 115 101 135 q 143 68 143 96 q 122 19 143 39 q 72 0 101 0 q 21 19 42 0 q 0 68 0 39 m 143 206 q 163 254 143 233 q 213 275 183 275 q 262 254 242 275 q 282 206 282 233 q 262 156 282 176 q 213 135 242 135 q 163 156 183 135 q 143 206 143 176 m 140 65 q 161 111 140 92 q 213 131 182 131 q 263 111 242 131 q 283 65 283 92 q 263 19 283 38 q 213 0 242 0 q 161 19 182 0 q 140 65 140 38 m 0 206 q 21 254 0 233 q 71 275 42 275 q 119 254 99 275 q 140 206 140 233 q 119 156 140 176 q 71 135 99 135 q 21 156 42 135 q 0 206 0 176 m 135 -69 q 156 -20 135 -40 q 210 0 178 0 q 262 -20 240 0 q 283 -69 283 -40 q 262 -119 283 -99 q 210 -139 240 -139 q 156 -119 178 -139 q 135 -69 135 -99 m 0 -208 q 21 -161 0 -181 q 72 -142 42 -142 q 122 -161 101 -142 q 143 -208 143 -181 q 122 -256 143 -236 q 72 -275 101 -275 q 21 -256 42 -275 q 0 -208 0 -236 z "},"-":{"ha":694,"x_min":0,"x_max":561,"o":"m 0 483 q 21 531 0 511 q 71 550 42 550 q 121 531 100 550 q 142 483 142 511 q 121 436 142 456 q 71 417 100 417 q 21 436 42 417 q 0 483 0 456 m 142 486 q 162 535 142 515 q 211 556 182 556 q 260 535 240 556 q 281 486 281 515 q 260 437 281 457 q 211 417 240 417 q 162 437 182 417 q 142 486 142 457 m 281 486 q 301 535 281 514 q 350 556 321 556 q 399 535 379 556 q 419 486 419 514 q 399 436 419 457 q 350 415 379 415 q 301 436 321 415 q 281 486 281 457 m 419 483 q 440 531 419 511 q 490 550 461 550 q 540 531 519 550 q 561 483 561 511 q 540 435 561 454 q 490 415 519 415 q 440 435 461 415 q 419 483 419 454 z "},".":{"ha":417,"x_min":0,"x_max":282,"o":"m 0 67 q 21 114 0 94 q 71 133 42 133 q 121 114 100 133 q 142 67 142 94 q 121 19 142 39 q 71 0 100 0 q 21 19 42 0 q 0 67 0 39 m 142 67 q 162 114 142 94 q 211 133 182 133 q 260 114 240 133 q 281 67 281 94 q 260 19 281 39 q 211 0 240 0 q 162 19 182 0 q 142 67 142 39 m 0 207 q 21 255 0 235 q 72 275 42 275 q 122 255 101 275 q 143 207 143 235 q 122 158 143 178 q 72 138 101 138 q 21 158 42 138 q 0 207 0 178 m 143 206 q 163 255 143 235 q 213 275 183 275 q 262 255 242 275 q 282 206 282 235 q 262 156 282 176 q 213 136 242 136 q 163 156 183 136 q 143 206 143 176 z "},"/":{"ha":833,"x_min":0,"x_max":699,"o":"m 0 67 q 21 114 0 94 q 72 133 42 133 q 122 114 101 133 q 143 67 143 94 q 122 19 143 39 q 72 0 101 0 q 21 19 42 0 q 0 67 0 39 m 0 204 q 21 254 0 233 q 72 275 42 275 q 122 254 101 275 q 143 204 143 233 q 122 154 143 175 q 72 133 101 133 q 21 154 42 133 q 0 204 0 175 m 136 344 q 157 393 136 372 q 208 414 178 414 q 260 393 239 414 q 281 344 281 372 q 260 294 281 315 q 208 274 239 274 q 157 294 178 274 q 136 344 136 315 m 281 485 q 301 533 281 513 q 351 554 322 554 q 400 533 379 554 q 421 485 421 513 q 400 435 421 456 q 351 414 379 414 q 301 435 322 414 q 281 485 281 456 m 421 624 q 441 672 421 651 q 490 692 461 692 q 540 672 519 692 q 560 624 560 651 q 540 574 560 594 q 490 554 519 554 q 441 574 461 554 q 421 624 421 594 m 560 763 q 580 811 560 790 q 629 832 600 832 q 678 811 658 832 q 699 763 699 790 q 678 713 699 733 q 629 692 658 692 q 580 713 600 692 q 560 763 560 733 m 554 900 q 575 948 554 928 q 626 968 596 968 q 678 948 657 968 q 699 900 699 928 q 678 852 699 872 q 626 832 657 832 q 575 852 596 832 q 554 900 554 872 z "},":":{"ha":279,"x_min":0,"x_max":143,"o":"m 0 486 q 21 532 0 513 q 71 551 42 551 q 121 532 100 551 q 142 486 142 513 q 121 439 142 458 q 71 419 100 419 q 21 439 42 419 q 0 486 0 458 m 0 67 q 21 114 0 94 q 72 133 42 133 q 122 114 101 133 q 143 67 143 94 q 122 19 143 39 q 72 0 101 0 q 21 19 42 0 q 0 67 0 39 z "},";":{"ha":417,"x_min":0,"x_max":288,"o":"m 0 -71 q 22 -21 0 -42 q 75 0 43 0 q 127 -21 106 0 q 149 -71 149 -42 q 127 -119 149 -99 q 75 -140 106 -140 q 22 -119 43 -140 q 0 -71 0 -99 m 136 68 q 158 115 136 96 q 213 135 181 135 q 265 115 243 135 q 288 68 288 96 q 265 19 288 39 q 213 0 243 0 q 158 19 181 0 q 136 68 136 39 m 136 483 q 157 532 136 511 q 208 553 178 553 q 258 532 238 553 q 279 483 279 511 q 258 433 279 454 q 208 413 238 413 q 157 433 178 413 q 136 483 136 454 z "},"<":{"ha":554,"x_min":0,"x_max":419,"o":"m 279 65 q 299 111 279 92 q 347 131 319 131 q 395 111 375 131 q 415 65 415 92 q 395 19 415 39 q 347 0 375 0 q 299 19 319 0 q 279 65 279 39 m 136 204 q 157 256 136 235 q 208 278 178 278 q 258 256 238 278 q 279 204 279 235 q 258 152 279 174 q 208 131 238 131 q 157 152 178 131 q 136 204 136 174 m 0 346 q 20 394 0 374 q 68 414 40 414 q 116 394 96 414 q 136 346 136 374 q 116 298 136 318 q 68 278 96 278 q 20 298 40 278 q 0 346 0 318 m 140 488 q 161 536 140 515 q 213 557 182 557 q 263 536 242 557 q 283 488 283 515 q 263 438 283 458 q 213 417 242 417 q 161 438 182 417 q 140 488 140 458 m 283 625 q 303 673 283 653 q 351 693 324 693 q 399 673 379 693 q 419 625 419 653 q 399 577 419 597 q 351 557 379 557 q 303 577 324 557 q 283 625 283 597 z "},"=":{"ha":554,"x_min":0,"x_max":426,"o":"m 0 625 q 22 673 0 653 q 74 693 43 693 q 126 673 104 693 q 147 625 147 653 q 126 577 147 597 q 74 557 104 557 q 22 577 43 557 q 0 625 0 597 m 147 624 q 167 669 147 650 q 215 689 188 689 q 263 669 243 689 q 283 624 283 650 q 263 576 283 596 q 215 557 243 557 q 167 576 188 557 q 147 624 147 596 m 283 621 q 303 669 283 649 q 353 689 324 689 q 402 669 382 689 q 422 621 422 649 q 402 573 422 593 q 353 553 382 553 q 303 573 324 553 q 283 621 283 593 m 0 344 q 21 393 0 372 q 72 414 42 414 q 122 393 101 414 q 143 344 143 372 q 122 294 143 315 q 72 274 101 274 q 21 294 42 274 q 0 344 0 315 m 143 346 q 163 396 143 375 q 211 417 183 417 q 259 396 239 417 q 279 346 279 375 q 259 294 279 315 q 211 274 239 274 q 163 294 183 274 q 143 346 143 315 m 279 344 q 301 395 279 374 q 353 417 322 417 q 405 395 383 417 q 426 344 426 374 q 405 292 426 314 q 353 271 383 271 q 301 292 322 271 q 279 344 279 314 z "},">":{"ha":554,"x_min":0,"x_max":422,"o":"m 0 68 q 22 115 0 96 q 74 135 43 135 q 126 115 104 135 q 147 68 147 96 q 126 19 147 39 q 74 0 104 0 q 22 19 43 0 q 0 68 0 39 m 147 207 q 167 257 147 236 q 214 278 186 278 q 260 257 240 278 q 279 207 279 236 q 260 156 279 176 q 214 135 240 135 q 167 156 186 135 q 147 207 147 176 m 279 346 q 300 394 279 374 q 351 414 321 414 q 401 394 381 414 q 422 346 422 374 q 401 298 422 318 q 351 278 381 278 q 300 298 321 278 q 279 346 279 318 m 136 488 q 156 536 136 515 q 204 557 176 557 q 252 536 232 557 q 272 488 272 515 q 252 438 272 458 q 204 417 232 417 q 156 438 176 417 q 136 488 136 458 m 0 625 q 20 673 0 653 q 68 693 40 693 q 116 673 96 693 q 136 625 136 653 q 116 577 136 597 q 68 557 96 557 q 20 577 40 557 q 0 625 0 597 z "},"?":{"ha":694,"x_min":0,"x_max":556,"o":"m 0 761 q 22 811 0 790 q 74 832 43 832 q 126 811 104 832 q 147 761 147 790 q 126 710 147 731 q 74 689 104 689 q 22 710 43 689 q 0 761 0 731 m 133 897 q 155 947 133 926 q 207 968 176 968 q 259 947 238 968 q 281 897 281 926 q 259 846 281 867 q 207 825 238 825 q 155 846 176 825 q 133 897 133 867 m 281 897 q 301 947 281 926 q 351 968 322 968 q 401 947 381 968 q 422 897 422 926 q 401 846 422 867 q 351 825 381 825 q 301 846 322 825 q 281 897 281 867 m 415 763 q 436 812 415 792 q 486 832 457 832 q 535 812 514 832 q 556 763 556 792 q 535 713 556 733 q 486 693 514 693 q 436 713 457 693 q 415 763 415 733 m 415 622 q 436 672 415 651 q 486 693 457 693 q 535 672 514 693 q 556 622 556 651 q 535 571 556 592 q 486 550 514 550 q 436 571 457 550 q 415 622 415 592 m 281 481 q 300 529 281 508 q 349 550 319 550 q 396 529 376 550 q 415 481 415 508 q 396 431 415 451 q 349 410 376 410 q 300 431 319 410 q 281 481 281 451 m 138 481 q 158 529 138 508 q 210 550 179 550 q 260 529 239 550 q 281 481 281 508 q 260 431 281 451 q 210 410 239 410 q 158 431 179 410 q 138 481 138 451 m 131 340 q 153 388 131 368 q 210 407 176 407 q 265 388 242 407 q 288 340 288 368 q 265 293 288 313 q 210 274 242 274 q 153 293 176 274 q 131 340 131 313 m 140 68 q 161 115 140 96 q 211 135 182 135 q 260 115 239 135 q 281 68 281 96 q 260 19 281 39 q 211 0 239 0 q 161 19 182 0 q 140 68 140 39 z "},"@":{"ha":1108,"x_min":0,"x_max":981,"o":"m 1 200 q 22 247 1 228 q 71 265 43 265 q 120 247 100 265 q 140 200 140 228 q 120 155 140 174 q 71 136 100 136 q 22 155 43 136 q 1 200 1 174 m 1 338 q 22 383 1 364 q 71 401 43 401 q 120 383 100 401 q 140 338 140 364 q 120 292 140 311 q 71 272 100 272 q 22 292 43 272 q 1 338 1 311 m 4 475 q 24 520 4 501 q 74 539 44 539 q 123 520 103 539 q 143 475 143 501 q 123 428 143 447 q 74 410 103 410 q 24 428 44 410 q 4 475 4 447 m 151 63 q 172 107 151 89 q 221 125 192 125 q 269 107 249 125 q 289 63 289 89 q 269 18 289 36 q 221 0 249 0 q 172 18 192 0 q 151 63 151 36 m 289 65 q 309 110 289 92 q 358 129 329 129 q 406 110 386 129 q 426 65 426 92 q 406 19 426 38 q 358 0 386 0 q 309 19 329 0 q 289 65 289 38 m 285 338 q 305 383 285 364 q 354 401 325 401 q 402 383 382 401 q 422 338 422 364 q 402 292 422 311 q 354 274 382 274 q 305 292 325 274 q 285 338 285 311 m 285 472 q 305 516 285 497 q 354 535 325 535 q 402 516 382 535 q 422 472 422 497 q 402 427 422 446 q 354 408 382 408 q 305 427 325 408 q 285 472 285 446 m 0 617 q 21 660 0 642 q 71 679 42 679 q 119 660 99 679 q 140 617 140 642 q 119 572 140 590 q 71 553 99 553 q 21 572 42 553 q 0 617 0 590 m 426 335 q 447 380 426 361 q 496 399 467 399 q 544 380 524 399 q 564 335 564 361 q 544 288 564 307 q 496 269 524 269 q 447 288 467 269 q 426 335 426 307 m 564 339 q 584 385 564 365 q 633 404 604 404 q 683 385 663 404 q 703 339 703 365 q 683 292 703 311 q 633 272 663 272 q 584 292 604 272 q 564 339 564 311 m 710 483 m 565 483 q 585 528 565 510 q 633 547 606 547 q 681 528 661 547 q 701 483 701 510 q 681 438 701 457 q 633 419 661 419 q 585 438 606 419 q 565 483 565 457 m 563 626 q 582 672 563 653 q 631 692 601 692 q 678 672 658 692 q 697 626 697 653 q 678 581 697 600 q 631 561 658 561 q 582 581 601 561 q 563 626 563 600 m 425 626 q 445 672 425 653 q 494 692 465 692 q 542 672 522 692 q 563 626 563 653 q 542 579 563 599 q 494 560 522 560 q 445 579 465 560 q 425 626 425 599 m 292 626 q 311 672 292 653 q 358 692 331 692 q 406 672 386 692 q 425 626 425 653 q 406 579 425 599 q 358 560 386 560 q 311 579 331 560 q 292 626 292 599 m 0 751 q 20 799 0 779 q 68 818 40 818 q 116 799 96 818 q 136 751 136 779 q 116 704 136 724 q 68 685 96 685 q 20 704 40 685 q 0 751 0 724 m 136 888 q 156 937 136 917 q 206 957 176 957 q 255 937 235 957 q 275 888 275 917 q 255 838 275 858 q 206 818 235 818 q 156 838 176 818 q 136 888 136 858 m 275 890 q 294 938 275 918 q 342 957 314 957 q 389 938 369 957 q 408 890 408 918 q 389 843 408 863 q 342 824 369 824 q 294 843 314 824 q 275 890 275 863 m 408 890 q 428 936 408 917 q 478 956 449 956 q 527 936 507 956 q 547 890 547 917 q 527 843 547 863 q 478 824 507 824 q 428 843 449 824 q 408 890 408 863 m 546 892 q 567 937 546 918 q 617 956 588 956 q 665 937 644 956 q 686 892 686 918 q 665 845 686 864 q 617 826 644 826 q 567 845 588 826 q 546 892 546 864 m 714 332 q 733 379 714 360 q 779 399 753 399 q 825 379 806 399 q 844 332 844 360 q 825 285 844 304 q 779 265 806 265 q 733 285 753 265 q 714 332 714 304 m 844 486 q 865 534 844 514 q 913 554 885 554 q 960 534 940 554 q 981 486 981 514 q 960 437 981 457 q 913 417 940 417 q 865 437 885 417 q 844 486 844 457 m 838 624 q 858 673 838 653 q 910 693 879 693 q 960 673 939 693 q 981 624 981 653 q 960 574 981 594 q 910 554 939 554 q 858 574 879 554 q 838 624 838 594 m 840 775 q 860 819 840 800 q 908 838 881 838 q 956 819 936 838 q 976 775 976 800 q 956 730 976 749 q 908 711 936 711 q 860 730 881 711 q 840 775 840 749 m 688 899 q 708 944 688 925 q 756 963 728 963 q 803 944 783 963 q 824 899 824 925 q 803 853 824 872 q 756 835 783 835 q 708 853 728 835 q 688 899 688 872 m 440 63 q 459 106 440 88 q 504 124 478 124 q 548 106 529 124 q 567 63 567 88 q 548 18 567 36 q 504 0 529 0 q 459 18 478 0 q 440 63 440 36 m 567 64 q 587 109 567 90 q 635 128 607 128 q 683 109 663 128 q 703 64 703 90 q 683 19 703 38 q 635 0 663 0 q 587 19 607 0 q 567 64 567 38 m 704 64 q 725 109 704 90 q 776 128 746 128 q 828 109 807 128 q 849 64 849 90 q 828 19 849 38 q 776 0 807 0 q 725 19 746 0 q 704 64 704 38 z "},"A":{"ha":694,"x_min":0,"x_max":560,"o":"m 0 68 q 21 116 0 96 q 71 136 42 136 q 121 116 100 136 q 142 68 142 96 q 121 20 142 40 q 71 0 100 0 q 21 20 42 0 q 0 68 0 40 m 0 207 q 21 255 0 235 q 71 275 42 275 q 121 255 100 275 q 142 207 142 235 q 121 158 142 178 q 71 138 100 138 q 21 158 42 138 q 0 207 0 178 m 0 343 q 21 390 0 371 q 72 410 42 410 q 124 390 103 410 q 144 343 144 371 q 124 294 144 314 q 72 275 103 275 q 21 294 42 275 q 0 343 0 314 m 0 481 q 21 531 0 510 q 72 551 42 551 q 124 531 103 551 q 144 481 144 510 q 124 431 144 451 q 72 410 103 410 q 21 431 42 410 q 0 481 0 451 m 0 622 q 20 672 0 651 q 69 693 40 693 q 119 672 99 693 q 139 622 139 651 q 119 572 139 593 q 69 551 99 551 q 20 572 40 551 q 0 622 0 593 m 0 761 q 20 809 0 789 q 69 829 40 829 q 119 809 99 829 q 139 761 139 789 q 119 713 139 733 q 69 693 99 693 q 20 713 40 693 q 0 761 0 733 m 150 482 q 169 529 150 510 q 215 549 189 549 q 261 529 242 549 q 281 482 281 510 q 261 435 281 454 q 215 415 242 415 q 169 435 189 415 q 150 482 150 454 m 281 486 q 301 536 281 515 q 350 557 321 557 q 399 536 379 557 q 419 486 419 515 q 399 436 419 457 q 350 415 379 415 q 301 436 321 415 q 281 486 281 457 m 419 488 q 440 536 419 515 q 489 557 460 557 q 538 536 518 557 q 558 488 558 515 q 538 438 558 458 q 489 417 518 417 q 440 438 460 417 q 419 488 419 458 m 415 344 q 436 396 415 375 q 488 417 457 417 q 538 396 517 417 q 558 344 558 375 q 538 293 558 314 q 488 272 517 272 q 436 293 457 272 q 415 344 415 314 m 415 206 q 436 253 415 233 q 488 272 457 272 q 539 253 518 272 q 560 206 560 233 q 539 157 560 176 q 488 138 518 138 q 436 157 457 138 q 415 206 415 176 m 415 69 q 436 117 415 97 q 488 138 457 138 q 539 117 518 138 q 560 69 560 97 q 539 20 560 40 q 488 0 518 0 q 436 20 457 0 q 415 69 415 40 m 417 625 q 438 672 417 653 q 488 692 458 692 q 538 672 517 692 q 558 625 558 653 q 538 576 558 596 q 488 557 517 557 q 438 576 458 557 q 417 625 417 596 m 413 761 q 434 810 413 790 q 486 831 456 831 q 537 810 515 831 q 558 761 558 790 q 537 712 558 732 q 486 692 515 692 q 434 712 456 692 q 413 761 413 732 m 278 900 q 297 948 278 928 q 346 968 317 968 q 393 948 374 968 q 413 900 413 928 q 393 851 413 871 q 346 831 374 831 q 297 851 317 831 q 278 900 278 871 m 136 900 q 157 948 136 928 q 207 968 178 968 q 257 948 236 968 q 278 900 278 928 q 257 852 278 872 q 207 832 236 832 q 157 852 178 832 q 136 900 136 872 z "},"B":{"ha":694,"x_min":0,"x_max":561,"o":"m 0 68 q 21 115 0 96 q 71 135 42 135 q 121 115 100 135 q 142 68 142 96 q 121 19 142 39 q 71 0 100 0 q 21 19 42 0 q 0 68 0 39 m 142 68 q 162 115 142 96 q 211 135 182 135 q 259 115 239 135 q 279 68 279 96 q 259 19 279 39 q 211 0 239 0 q 162 19 182 0 q 142 68 142 39 m 279 68 q 299 116 279 96 q 349 136 319 136 q 398 116 378 136 q 418 68 418 96 q 398 20 418 40 q 349 0 378 0 q 299 20 319 0 q 279 68 279 40 m 419 206 q 440 253 419 233 q 490 274 461 274 q 540 253 519 274 q 561 206 561 233 q 540 156 561 176 q 490 136 519 136 q 440 156 461 136 q 419 206 419 176 m 413 344 q 434 394 413 374 q 488 415 456 415 q 540 394 518 415 q 561 344 561 374 q 540 294 561 315 q 488 274 518 274 q 434 294 456 274 q 413 344 413 315 m 278 483 q 297 531 278 511 q 346 551 317 551 q 393 531 374 551 q 413 483 413 511 q 393 435 413 456 q 346 415 374 415 q 297 435 317 415 q 278 483 278 456 m 140 483 q 160 531 140 511 q 210 551 181 551 q 258 531 238 551 q 278 483 278 511 q 258 434 278 454 q 210 414 238 414 q 160 434 181 414 q 140 483 140 454 m 0 483 q 21 531 0 511 q 71 551 42 551 q 119 531 99 551 q 140 483 140 511 q 119 434 140 454 q 71 414 99 414 q 21 434 42 414 q 0 483 0 454 m 0 621 q 21 670 0 650 q 72 690 42 690 q 124 670 103 690 q 144 621 144 650 q 124 572 144 592 q 72 551 103 551 q 21 572 42 551 q 0 621 0 592 m 0 760 q 21 809 0 789 q 72 829 42 829 q 124 809 103 829 q 144 760 144 789 q 124 710 144 731 q 72 690 103 690 q 21 710 42 690 q 0 760 0 731 m 0 899 q 21 948 0 928 q 71 968 42 968 q 119 948 99 968 q 140 899 140 928 q 119 849 140 869 q 71 829 99 829 q 21 849 42 829 q 0 899 0 869 m 140 903 q 161 949 140 929 q 211 968 182 968 q 260 949 239 968 q 281 903 281 929 q 260 857 281 876 q 211 838 239 838 q 161 857 182 838 q 140 903 140 876 m 281 903 q 301 949 281 929 q 350 968 321 968 q 399 949 379 968 q 419 903 419 929 q 399 857 419 876 q 350 838 379 838 q 301 857 321 838 q 281 903 281 876 m 415 763 q 435 810 415 790 q 482 829 454 829 q 529 810 510 829 q 549 763 549 790 q 529 715 549 735 q 482 696 510 696 q 435 715 454 696 q 415 763 415 735 m 421 622 q 441 672 421 651 q 490 693 461 693 q 538 672 518 693 q 558 622 558 651 q 538 571 558 592 q 490 550 518 550 q 441 571 461 550 q 421 622 421 592 m 0 343 q 21 390 0 371 q 72 410 42 410 q 122 390 101 410 q 143 343 143 371 q 122 296 143 315 q 72 276 101 276 q 21 296 42 276 q 0 343 0 315 m 0 207 q 21 256 0 236 q 72 276 42 276 q 122 256 101 276 q 143 207 143 236 q 122 158 143 178 q 72 138 101 138 q 21 158 42 138 q 0 207 0 178 z "},"C":{"ha":694,"x_min":0,"x_max":560,"o":"m 415 763 q 436 810 415 790 q 486 829 457 829 q 535 810 514 829 q 556 763 556 790 q 535 715 556 735 q 486 696 514 696 q 436 715 457 696 q 415 763 415 735 m 278 899 q 298 948 278 928 q 347 968 318 968 q 395 948 375 968 q 415 899 415 928 q 395 849 415 869 q 347 829 375 829 q 298 849 318 829 q 278 899 278 869 m 139 903 q 159 949 139 929 q 208 968 179 968 q 258 949 238 968 q 278 903 278 929 q 258 856 278 875 q 208 836 238 836 q 159 856 179 836 q 139 903 139 875 m 0 765 q 20 815 0 794 q 69 836 40 836 q 119 815 99 836 q 139 765 139 794 q 119 714 139 735 q 69 693 99 693 q 20 714 40 693 q 0 765 0 735 m 0 625 q 21 673 0 653 q 72 693 42 693 q 124 673 103 693 q 144 625 144 653 q 124 577 144 597 q 72 557 103 557 q 21 577 42 557 q 0 625 0 597 m 0 486 q 21 536 0 515 q 72 557 42 557 q 124 536 103 557 q 144 486 144 515 q 124 436 144 457 q 72 415 103 415 q 21 436 42 415 q 0 486 0 457 m 0 347 q 21 395 0 375 q 72 415 42 415 q 124 395 103 415 q 144 347 144 375 q 124 298 144 318 q 72 278 103 278 q 21 298 42 278 q 0 347 0 318 m 0 210 q 21 258 0 238 q 72 278 42 278 q 124 258 103 278 q 144 210 144 238 q 124 160 144 181 q 72 140 103 140 q 21 160 42 140 q 0 210 0 181 m 133 68 q 155 115 133 96 q 207 135 176 135 q 258 115 236 135 q 279 68 279 96 q 258 19 279 39 q 207 0 236 0 q 155 19 176 0 q 133 68 133 39 m 279 68 q 300 115 279 96 q 351 135 321 135 q 401 115 381 135 q 422 68 422 96 q 401 19 422 39 q 351 0 381 0 q 300 19 321 0 q 279 68 279 39 m 417 206 q 438 256 417 235 q 489 278 458 278 q 539 256 518 278 q 560 206 560 235 q 539 153 560 175 q 489 132 518 132 q 438 153 458 132 q 417 206 417 175 z "},"D":{"ha":694,"x_min":0,"x_max":560,"o":"m 0 901 q 21 949 0 929 q 71 968 42 968 q 121 949 100 968 q 142 901 142 929 q 121 853 142 872 q 71 833 100 833 q 21 853 42 833 q 0 901 0 872 m 142 901 q 162 949 142 929 q 211 968 182 968 q 259 949 239 968 q 279 901 279 929 q 259 853 279 872 q 211 833 239 833 q 162 853 182 833 q 142 901 142 872 m 279 900 q 300 948 279 928 q 351 968 321 968 q 401 948 381 968 q 422 900 422 928 q 401 852 422 872 q 351 832 381 832 q 300 852 321 832 q 279 900 279 872 m 422 764 q 442 812 422 792 q 492 832 463 832 q 540 812 519 832 q 560 764 560 792 q 540 715 560 735 q 492 694 519 694 q 442 715 463 694 q 422 764 422 735 m 417 625 q 438 674 417 654 q 489 694 458 694 q 539 674 518 694 q 560 625 560 654 q 539 576 560 596 q 489 556 518 556 q 438 576 458 556 q 417 625 417 596 m 417 488 q 438 535 417 515 q 488 556 458 556 q 536 535 515 556 q 557 488 557 515 q 536 438 557 458 q 488 418 515 418 q 438 438 458 418 q 417 488 417 458 m 414 349 q 435 398 414 378 q 486 418 456 418 q 536 398 515 418 q 557 349 557 378 q 536 299 557 319 q 486 279 515 279 q 435 299 456 279 q 414 349 414 319 m 414 208 q 435 258 414 238 q 486 279 456 279 q 536 258 515 279 q 557 208 557 238 q 536 158 557 179 q 486 138 515 138 q 435 158 456 138 q 414 208 414 179 m 0 68 q 21 115 0 96 q 71 135 42 135 q 121 115 100 135 q 142 68 142 96 q 121 19 142 39 q 71 0 100 0 q 21 19 42 0 q 0 68 0 39 m 142 68 q 162 115 142 96 q 210 135 182 135 q 258 115 238 135 q 278 68 278 96 q 258 19 278 39 q 210 0 238 0 q 162 19 182 0 q 142 68 142 39 m 278 68 q 299 115 278 96 q 349 135 319 135 q 397 115 376 135 q 418 68 418 96 q 397 19 418 39 q 349 0 376 0 q 299 19 319 0 q 278 68 278 39 m 0 210 q 21 257 0 238 q 71 276 42 276 q 121 257 100 276 q 142 210 142 238 q 121 161 142 181 q 71 142 100 142 q 21 161 42 142 q 0 210 0 181 m 0 346 q 21 394 0 374 q 71 414 42 414 q 121 394 100 414 q 142 346 142 374 q 121 297 142 317 q 71 276 100 276 q 21 297 42 276 q 0 346 0 317 m 0 483 q 21 533 0 513 q 72 553 42 553 q 122 533 101 553 q 143 483 143 513 q 122 434 143 454 q 72 414 101 414 q 21 434 42 414 q 0 483 0 454 m 0 622 q 21 670 0 650 q 72 690 42 690 q 122 670 101 690 q 143 622 143 650 q 122 573 143 593 q 72 553 101 553 q 21 573 42 553 q 0 622 0 593 m 0 760 q 21 808 0 788 q 71 828 42 828 q 119 808 99 828 q 140 760 140 788 q 119 710 140 731 q 71 690 99 690 q 21 710 42 690 q 0 760 0 731 z "},"E":{"ha":694,"x_min":0,"x_max":560,"o":"m 0 900 q 21 948 0 928 q 71 968 42 968 q 119 948 99 968 q 140 900 140 928 q 119 852 140 872 q 71 832 99 832 q 21 852 42 832 q 0 900 0 872 m 140 900 q 161 948 140 928 q 211 968 182 968 q 260 948 239 968 q 281 900 281 928 q 260 852 281 872 q 211 832 239 832 q 161 852 182 832 q 140 900 140 872 m 281 900 q 301 948 281 928 q 350 968 321 968 q 398 948 378 968 q 418 900 418 928 q 398 852 418 872 q 350 832 378 832 q 301 852 321 832 q 281 900 281 872 m 418 900 q 439 948 418 928 q 489 968 460 968 q 539 948 518 968 q 560 900 560 928 q 539 852 560 872 q 489 832 518 832 q 439 852 460 832 q 418 900 418 872 m 0 764 q 21 812 0 792 q 71 832 42 832 q 121 812 100 832 q 142 764 142 792 q 121 716 142 736 q 71 696 100 696 q 21 716 42 696 q 0 764 0 736 m 0 628 q 21 676 0 656 q 71 696 42 696 q 121 676 100 696 q 142 628 142 656 q 121 578 142 599 q 71 558 100 558 q 21 578 42 558 q 0 628 0 599 m 0 490 q 20 538 0 518 q 69 558 40 558 q 119 538 99 558 q 139 490 139 518 q 119 441 139 461 q 69 421 99 421 q 20 441 40 421 q 0 490 0 461 m 0 350 q 20 400 0 379 q 69 421 40 421 q 119 400 99 421 q 139 350 139 379 q 119 299 139 319 q 69 278 99 278 q 20 299 40 278 q 0 350 0 319 m 0 210 q 20 258 0 238 q 69 278 40 278 q 119 258 99 278 q 139 210 139 238 q 119 160 139 181 q 69 140 99 140 q 20 160 40 140 q 0 210 0 181 m 0 71 q 20 119 0 99 q 69 140 40 140 q 119 119 99 140 q 139 71 139 99 q 119 21 139 42 q 69 0 99 0 q 20 21 40 0 q 0 71 0 42 m 139 68 q 160 116 139 96 q 211 136 181 136 q 261 116 240 136 q 282 68 282 96 q 261 20 282 40 q 211 0 240 0 q 160 20 181 0 q 139 68 139 40 m 282 68 q 301 116 282 96 q 350 136 321 136 q 397 116 378 136 q 417 68 417 96 q 397 20 417 40 q 350 0 378 0 q 301 20 321 0 q 282 68 282 40 m 417 69 q 438 117 417 97 q 489 138 458 138 q 539 117 518 138 q 560 69 560 97 q 539 20 560 40 q 489 0 518 0 q 438 20 458 0 q 417 69 417 40 m 138 486 q 158 538 138 517 q 210 558 179 558 q 261 538 240 558 q 282 486 282 517 q 261 435 282 456 q 210 414 240 414 q 158 435 179 414 q 138 486 138 456 m 282 485 q 302 533 282 513 q 351 554 322 554 q 399 533 379 554 q 419 485 419 513 q 399 435 419 456 q 351 414 379 414 q 302 435 322 414 q 282 485 282 456 z "},"F":{"ha":694,"x_min":0,"x_max":557,"o":"m 0 900 q 21 948 0 928 q 71 968 42 968 q 121 948 100 968 q 142 900 142 928 q 121 852 142 872 q 71 832 100 832 q 21 852 42 832 q 0 900 0 872 m 142 900 q 162 948 142 928 q 211 968 182 968 q 260 948 240 968 q 281 900 281 928 q 260 852 281 872 q 211 832 240 832 q 162 852 182 832 q 142 900 142 872 m 281 900 q 301 948 281 928 q 349 968 321 968 q 397 948 376 968 q 417 900 417 928 q 397 851 417 871 q 349 831 376 831 q 301 851 321 831 q 281 900 281 871 m 417 900 q 438 948 417 928 q 488 968 458 968 q 536 948 515 968 q 557 900 557 928 q 536 851 557 871 q 488 831 515 831 q 438 851 458 831 q 417 900 417 871 m 0 764 q 21 811 0 792 q 71 831 42 831 q 119 811 99 831 q 140 764 140 792 q 119 717 140 736 q 71 697 99 697 q 21 717 42 697 q 0 764 0 736 m 0 628 q 21 676 0 656 q 71 697 42 697 q 119 676 99 697 q 140 628 140 656 q 119 578 140 599 q 71 557 99 557 q 21 578 42 557 q 0 628 0 599 m 0 489 q 21 537 0 517 q 71 557 42 557 q 119 537 99 557 q 140 489 140 517 q 119 440 140 460 q 71 419 99 419 q 21 440 42 419 q 0 489 0 460 m 140 486 q 160 532 140 513 q 210 551 181 551 q 259 532 239 551 q 279 486 279 513 q 259 439 279 458 q 210 419 239 419 q 160 439 181 419 q 140 486 140 458 m 279 485 q 300 532 279 513 q 351 551 321 551 q 401 532 381 551 q 422 485 422 513 q 401 436 422 456 q 351 417 381 417 q 300 436 321 417 q 279 485 279 456 m 0 344 q 21 392 0 372 q 71 413 42 413 q 119 392 99 413 q 140 344 140 372 q 119 297 140 317 q 71 276 99 276 q 21 297 42 276 q 0 344 0 317 m 0 207 q 21 256 0 236 q 71 276 42 276 q 119 256 99 276 q 140 207 140 236 q 119 158 140 178 q 71 138 99 138 q 21 158 42 138 q 0 207 0 178 m 0 69 q 21 117 0 97 q 72 138 42 138 q 122 117 101 138 q 143 69 143 97 q 122 20 143 40 q 72 0 101 0 q 21 20 42 0 q 0 69 0 40 z "},"G":{"ha":694,"x_min":0,"x_max":558,"o":"m 0 764 q 21 812 0 792 q 72 832 42 832 q 124 812 103 832 q 144 764 144 792 q 124 716 144 736 q 72 696 103 696 q 21 716 42 696 q 0 764 0 736 m 0 625 q 21 675 0 654 q 72 696 42 696 q 124 675 103 696 q 144 625 144 654 q 124 575 144 596 q 72 554 103 554 q 21 575 42 554 q 0 625 0 596 m 0 486 q 21 534 0 514 q 71 554 42 554 q 121 534 100 554 q 142 486 142 514 q 121 437 142 457 q 71 417 100 417 q 21 437 42 417 q 0 486 0 457 m 0 346 q 21 396 0 375 q 71 417 42 417 q 121 396 100 417 q 142 346 142 375 q 121 296 142 317 q 71 275 100 275 q 21 296 42 275 q 0 346 0 317 m 0 206 q 20 255 0 235 q 69 275 40 275 q 119 255 99 275 q 139 206 139 235 q 119 156 139 176 q 69 136 99 136 q 20 156 40 136 q 0 206 0 176 m 139 68 q 160 116 139 96 q 211 136 181 136 q 261 116 240 136 q 282 68 282 96 q 261 20 282 40 q 211 0 240 0 q 160 20 181 0 q 139 68 139 40 m 282 68 q 301 116 282 96 q 350 136 321 136 q 397 116 378 136 q 417 68 417 96 q 397 20 417 40 q 350 0 378 0 q 301 20 321 0 q 282 68 282 40 m 417 68 q 438 116 417 96 q 488 136 458 136 q 536 116 515 136 q 557 68 557 96 q 536 20 557 40 q 488 0 515 0 q 438 20 458 0 q 417 68 417 40 m 414 206 q 435 253 414 233 q 485 274 456 274 q 533 253 513 274 q 554 206 554 233 q 533 158 554 178 q 485 138 513 138 q 435 158 456 138 q 414 206 414 178 m 414 343 q 435 392 414 372 q 486 413 456 413 q 536 392 515 413 q 557 343 557 372 q 536 294 557 314 q 486 274 515 274 q 435 294 456 274 q 414 343 414 314 m 414 482 q 435 531 414 511 q 486 551 456 551 q 536 531 515 551 q 557 482 557 511 q 536 433 557 453 q 486 413 515 413 q 435 433 456 413 q 414 482 414 453 m 275 483 q 295 531 275 511 q 344 551 315 551 q 394 531 374 551 q 414 483 414 511 q 394 435 414 456 q 344 415 374 415 q 295 435 315 415 q 275 483 275 456 m 133 900 q 154 948 133 928 q 206 968 175 968 q 256 948 235 968 q 276 900 276 928 q 256 851 276 871 q 206 831 235 831 q 154 851 175 831 q 133 900 133 871 m 281 901 q 301 949 281 929 q 350 968 321 968 q 398 949 378 968 q 418 901 418 929 q 398 854 418 874 q 350 835 378 835 q 301 854 321 835 q 281 901 281 874 m 414 767 q 435 817 414 796 q 486 838 456 838 q 538 817 517 838 q 558 767 558 796 q 538 715 558 736 q 486 694 517 694 q 435 715 456 694 q 414 767 414 736 z "},"H":{"ha":694,"x_min":0,"x_max":560,"o":"m 0 901 q 21 949 0 929 q 72 968 42 968 q 122 949 101 968 q 143 901 143 929 q 122 853 143 872 q 72 833 101 833 q 21 853 42 833 q 0 901 0 872 m 0 765 q 21 813 0 793 q 72 833 42 833 q 122 813 101 833 q 143 765 143 793 q 122 716 143 736 q 72 696 101 696 q 21 716 42 696 q 0 765 0 736 m 0 625 q 21 675 0 654 q 71 696 42 696 q 119 675 99 696 q 140 625 140 654 q 119 575 140 596 q 71 554 99 554 q 21 575 42 554 q 0 625 0 596 m 0 485 q 21 534 0 514 q 71 554 42 554 q 119 534 99 554 q 140 485 140 514 q 119 435 140 456 q 71 415 99 415 q 21 435 42 415 q 0 485 0 456 m 0 347 q 21 395 0 375 q 71 415 42 415 q 119 395 99 415 q 140 347 140 375 q 119 299 140 319 q 71 279 99 279 q 21 299 42 279 q 0 347 0 319 m 0 210 q 21 260 0 239 q 71 281 42 281 q 119 260 99 281 q 140 210 140 239 q 119 160 140 181 q 71 139 99 139 q 21 160 42 139 q 0 210 0 181 m 0 69 q 21 119 0 99 q 71 139 42 139 q 121 119 100 139 q 142 69 142 99 q 121 20 142 40 q 71 0 100 0 q 21 20 42 0 q 0 69 0 40 m 144 485 q 164 531 144 511 q 213 550 183 550 q 260 531 240 550 q 279 485 279 511 q 260 438 279 457 q 213 418 240 418 q 164 438 183 418 q 144 485 144 457 m 279 485 q 300 531 279 511 q 351 550 321 550 q 401 531 381 550 q 422 485 422 511 q 401 438 422 457 q 351 418 381 418 q 300 438 321 418 q 279 485 279 457 m 422 483 q 442 531 422 511 q 490 550 461 550 q 538 531 518 550 q 557 483 557 511 q 538 435 557 454 q 490 415 518 415 q 442 435 461 415 q 422 483 422 454 m 417 347 q 438 395 417 375 q 488 415 458 415 q 536 395 515 415 q 557 347 557 375 q 536 298 557 318 q 488 278 515 278 q 438 298 458 278 q 417 347 417 318 m 417 210 q 437 258 417 238 q 486 278 457 278 q 535 258 515 278 q 556 210 556 238 q 535 160 556 181 q 486 140 515 140 q 437 160 457 140 q 417 210 417 181 m 418 71 q 438 119 418 99 q 488 140 458 140 q 535 119 515 140 q 556 71 556 99 q 535 21 556 42 q 488 0 515 0 q 438 21 458 0 q 418 71 418 42 m 415 901 q 435 949 415 929 q 485 968 456 968 q 533 949 513 968 q 553 901 553 929 q 533 853 553 872 q 485 833 513 833 q 435 853 456 833 q 415 901 415 872 m 417 764 q 438 813 417 792 q 489 833 458 833 q 539 813 518 833 q 560 764 560 792 q 539 714 560 735 q 489 693 518 693 q 438 714 458 693 q 417 764 417 735 m 419 624 q 440 673 419 653 q 490 693 461 693 q 539 673 518 693 q 560 624 560 653 q 539 574 560 594 q 490 554 518 554 q 440 574 461 554 q 419 624 419 594 z "},"I":{"ha":554,"x_min":0,"x_max":421,"o":"m 0 901 q 21 949 0 929 q 72 968 42 968 q 122 949 101 968 q 143 901 143 929 q 122 854 143 874 q 72 835 101 835 q 21 854 42 835 q 0 901 0 874 m 143 901 q 163 949 143 929 q 213 968 183 968 q 262 949 242 968 q 282 901 282 929 q 262 854 282 874 q 213 835 242 835 q 163 854 183 835 q 143 901 143 874 m 282 901 q 302 949 282 929 q 351 968 322 968 q 401 949 381 968 q 421 901 421 929 q 401 854 421 874 q 351 835 381 835 q 302 854 322 835 q 282 901 282 874 m 138 761 q 158 813 138 792 q 208 833 179 833 q 257 813 236 833 q 278 761 278 792 q 257 710 278 731 q 208 689 236 689 q 158 710 179 689 q 138 761 138 731 m 138 622 q 159 669 138 650 q 211 689 181 689 q 262 669 240 689 q 283 622 283 650 q 262 574 283 593 q 211 554 240 554 q 159 574 181 554 q 138 622 138 593 m 138 486 q 159 534 138 514 q 211 554 181 554 q 262 534 240 554 q 283 486 283 514 q 262 438 283 458 q 211 418 240 418 q 159 438 181 418 q 138 486 138 458 m 138 349 q 158 397 138 376 q 208 418 179 418 q 258 397 238 418 q 279 349 279 376 q 258 299 279 319 q 208 278 238 278 q 158 299 179 278 q 138 349 138 319 m 136 208 q 157 257 136 236 q 208 278 178 278 q 258 257 238 278 q 279 208 279 236 q 258 158 279 179 q 208 138 238 138 q 157 158 178 138 q 136 208 136 179 m 0 68 q 21 115 0 96 q 71 135 42 135 q 121 115 100 135 q 142 68 142 96 q 121 19 142 39 q 71 0 100 0 q 21 19 42 0 q 0 68 0 39 m 142 68 q 162 115 142 96 q 210 135 182 135 q 258 115 238 135 q 278 68 278 96 q 258 19 278 39 q 210 0 238 0 q 162 19 182 0 q 142 68 142 39 m 278 67 q 299 114 278 94 q 349 133 319 133 q 397 114 376 133 q 418 67 418 94 q 397 19 418 39 q 349 0 376 0 q 299 19 319 0 q 278 67 278 39 z "},"J":{"ha":694,"x_min":-135,"x_max":556,"o":"m -135 -69 q -115 -20 -135 -40 q -68 0 -96 0 q -19 -20 -39 0 q 0 -69 0 -40 q -19 -119 0 -99 q -68 -139 -39 -139 q -115 -119 -96 -139 q -135 -69 -135 -99 m 0 -208 q 21 -160 0 -179 q 71 -140 42 -140 q 121 -160 100 -140 q 142 -208 142 -179 q 121 -256 142 -236 q 71 -275 100 -275 q 21 -256 42 -275 q 0 -208 0 -236 m 142 -208 q 162 -160 142 -179 q 211 -140 182 -140 q 259 -160 239 -140 q 279 -208 279 -179 q 259 -256 279 -236 q 211 -275 239 -275 q 162 -256 182 -275 q 142 -208 142 -236 m 282 -71 q 302 -21 282 -42 q 351 0 322 0 q 401 -21 381 0 q 421 -71 421 -42 q 401 -119 421 -99 q 351 -140 381 -140 q 302 -119 322 -140 q 282 -71 282 -99 m 272 69 q 294 117 272 97 q 347 138 315 138 q 399 117 378 138 q 421 69 421 97 q 399 20 421 40 q 347 0 378 0 q 294 20 315 0 q 272 69 272 40 m 272 208 q 294 257 272 236 q 347 278 317 278 q 400 257 378 278 q 422 208 422 236 q 400 158 422 179 q 347 138 378 138 q 294 158 317 138 q 272 208 272 179 m 272 346 q 294 393 272 374 q 347 413 317 413 q 400 393 378 413 q 422 346 422 374 q 400 297 422 317 q 347 278 378 278 q 294 297 317 278 q 272 346 272 317 m 272 485 q 294 535 272 514 q 349 556 317 556 q 403 535 381 556 q 425 485 425 514 q 403 433 425 454 q 349 413 381 413 q 294 433 317 413 q 272 485 272 454 m 272 625 q 294 673 272 653 q 349 693 317 693 q 403 673 381 693 q 425 625 425 653 q 403 576 425 596 q 349 556 381 556 q 294 576 317 556 q 272 625 272 596 m 274 763 q 296 812 274 792 q 350 832 318 832 q 403 812 381 832 q 425 763 425 792 q 403 713 425 733 q 350 693 381 693 q 296 713 318 693 q 274 763 274 733 m 418 900 q 438 949 418 929 q 488 968 458 968 q 535 949 515 968 q 556 900 556 929 q 535 852 556 872 q 488 832 515 832 q 438 852 458 832 q 418 900 418 872 m 279 901 q 299 949 279 929 q 347 968 318 968 q 394 949 375 968 q 414 901 414 929 q 394 854 414 874 q 347 835 375 835 q 299 854 318 835 q 279 901 279 874 m 136 901 q 157 949 136 929 q 208 968 178 968 q 258 949 238 968 q 279 901 279 929 q 258 854 279 874 q 208 835 238 835 q 157 854 178 835 q 136 901 136 874 z "},"K":{"ha":694,"x_min":0,"x_max":561,"o":"m 0 901 q 21 949 0 929 q 71 968 42 968 q 121 949 100 968 q 142 901 142 929 q 121 854 142 874 q 71 835 100 835 q 21 854 42 835 q 0 901 0 874 m 0 764 q 21 814 0 793 q 71 835 42 835 q 121 814 100 835 q 142 764 142 793 q 121 714 142 735 q 71 693 100 693 q 21 714 42 693 q 0 764 0 735 m 0 625 q 21 673 0 653 q 71 693 42 693 q 121 673 100 693 q 142 625 142 653 q 121 577 142 597 q 71 557 100 557 q 21 577 42 557 q 0 625 0 597 m 0 486 q 21 536 0 515 q 71 557 42 557 q 121 536 100 557 q 142 486 142 515 q 121 435 142 456 q 71 414 100 414 q 21 435 42 414 q 0 486 0 456 m 0 344 q 21 394 0 374 q 71 414 42 414 q 121 394 100 414 q 142 344 142 374 q 121 295 142 315 q 71 275 100 275 q 21 295 42 275 q 0 344 0 315 m 0 207 q 21 255 0 235 q 71 275 42 275 q 121 255 100 275 q 142 207 142 235 q 121 159 142 179 q 71 139 100 139 q 21 159 42 139 q 0 207 0 179 m 0 69 q 21 119 0 99 q 72 139 42 139 q 122 119 101 139 q 143 69 143 99 q 122 20 143 40 q 72 0 101 0 q 21 20 42 0 q 0 69 0 40 m 143 486 q 163 538 143 517 q 213 558 183 558 q 260 538 240 558 q 281 486 281 517 q 260 435 281 456 q 213 414 240 414 q 163 435 183 414 q 143 486 143 456 m 281 344 q 301 393 281 372 q 351 414 322 414 q 400 393 379 414 q 421 344 421 372 q 400 294 421 315 q 351 274 379 274 q 301 294 322 274 q 281 344 281 315 m 421 207 q 442 254 421 235 q 492 274 463 274 q 540 254 519 274 q 561 207 561 235 q 540 158 561 178 q 492 139 519 139 q 442 158 463 139 q 421 207 421 178 m 415 69 q 437 119 415 99 q 489 139 458 139 q 540 119 518 139 q 561 69 561 99 q 540 20 561 40 q 489 0 518 0 q 437 20 458 0 q 415 69 415 40 m 274 625 q 294 673 274 653 q 346 693 315 693 q 396 673 375 693 q 417 625 417 653 q 396 576 417 596 q 346 556 375 556 q 294 576 315 556 q 274 625 274 596 m 417 764 q 438 813 417 792 q 488 833 458 833 q 538 813 517 833 q 558 764 558 792 q 538 714 558 735 q 488 693 517 693 q 438 714 458 693 q 417 764 417 735 m 417 901 q 438 949 417 929 q 488 968 458 968 q 538 949 517 968 q 558 901 558 929 q 538 853 558 872 q 488 833 517 833 q 438 853 458 833 q 417 901 417 872 z "},"L":{"ha":694,"x_min":0,"x_max":560,"o":"m 0 900 q 21 948 0 928 q 72 968 42 968 q 122 948 101 968 q 143 900 143 928 q 122 851 143 871 q 72 831 101 831 q 21 851 42 831 q 0 900 0 871 m 0 761 q 21 810 0 789 q 72 831 42 831 q 122 810 101 831 q 143 761 143 789 q 122 711 143 732 q 72 690 101 690 q 21 711 42 690 q 0 761 0 732 m 0 624 q 21 671 0 651 q 72 690 42 690 q 124 671 103 690 q 144 624 144 651 q 124 576 144 596 q 72 557 103 557 q 21 576 42 557 q 0 624 0 596 m 0 488 q 21 536 0 515 q 72 557 42 557 q 124 536 103 557 q 144 488 144 515 q 124 438 144 458 q 72 417 103 417 q 21 438 42 417 q 0 488 0 458 m 0 347 q 21 397 0 376 q 72 417 42 417 q 122 397 101 417 q 143 347 143 376 q 122 298 143 318 q 72 278 101 278 q 21 298 42 278 q 0 347 0 318 m 0 208 q 21 257 0 236 q 72 278 42 278 q 122 257 101 278 q 143 208 143 236 q 122 158 143 179 q 72 138 101 138 q 21 158 42 138 q 0 208 0 179 m 0 69 q 21 117 0 97 q 71 138 42 138 q 119 117 99 138 q 140 69 140 97 q 119 20 140 40 q 71 0 99 0 q 21 20 42 0 q 0 69 0 40 m 140 68 q 161 115 140 96 q 211 135 182 135 q 260 115 239 135 q 281 68 281 96 q 260 19 281 39 q 211 0 239 0 q 161 19 182 0 q 140 68 140 39 m 281 68 q 301 115 281 96 q 350 135 321 135 q 398 115 378 135 q 418 68 418 96 q 398 19 418 39 q 350 0 378 0 q 301 19 321 0 q 281 68 281 39 m 418 68 q 439 116 418 96 q 489 136 460 136 q 539 116 518 136 q 560 68 560 96 q 539 20 560 40 q 489 0 518 0 q 439 20 460 0 q 418 68 418 40 z "},"M":{"ha":833,"x_min":0,"x_max":700,"o":"m 0 901 q 21 949 0 929 q 72 968 42 968 q 122 949 101 968 q 143 901 143 929 q 122 853 143 872 q 72 833 101 833 q 21 853 42 833 q 0 901 0 872 m 0 764 q 21 813 0 792 q 72 833 42 833 q 122 813 101 833 q 143 764 143 792 q 122 714 143 735 q 72 693 101 693 q 21 714 42 693 q 0 764 0 735 m 0 624 q 21 673 0 653 q 71 693 42 693 q 121 673 100 693 q 142 624 142 653 q 121 574 142 594 q 71 554 100 554 q 21 574 42 554 q 0 624 0 594 m 0 485 q 21 534 0 514 q 71 554 42 554 q 121 534 100 554 q 142 485 142 514 q 121 435 142 456 q 71 415 100 415 q 21 435 42 415 q 0 485 0 456 m 0 346 q 21 394 0 374 q 71 415 42 415 q 121 394 100 415 q 142 346 142 374 q 121 296 142 317 q 71 275 100 275 q 21 296 42 275 q 0 346 0 317 m 0 206 q 21 255 0 235 q 71 275 42 275 q 121 255 100 275 q 142 206 142 235 q 121 156 142 176 q 71 136 100 136 q 21 156 42 136 q 0 206 0 176 m 0 68 q 21 116 0 96 q 71 136 42 136 q 119 116 99 136 q 140 68 140 96 q 119 20 140 40 q 71 0 99 0 q 21 20 42 0 q 0 68 0 40 m 140 763 q 160 811 140 790 q 210 832 181 832 q 259 811 239 832 q 279 763 279 790 q 259 713 279 733 q 210 692 239 692 q 160 713 181 692 q 140 763 140 733 m 279 622 q 300 672 279 651 q 350 692 321 692 q 399 672 378 692 q 419 622 419 651 q 399 573 419 593 q 350 553 378 553 q 300 573 321 553 q 279 622 279 593 m 419 760 q 440 809 419 789 q 489 829 460 829 q 537 809 517 829 q 557 760 557 789 q 537 710 557 731 q 489 690 517 690 q 440 710 460 690 q 419 760 419 731 m 557 899 q 578 948 557 928 q 629 968 599 968 q 679 948 658 968 q 700 899 700 928 q 679 849 700 869 q 629 829 658 829 q 578 849 599 829 q 557 899 557 869 m 558 757 q 579 802 558 783 q 629 821 600 821 q 679 802 658 821 q 700 757 700 783 q 679 712 700 731 q 629 693 658 693 q 579 712 600 693 q 558 757 558 731 m 553 624 q 574 673 553 653 q 626 693 596 693 q 678 673 657 693 q 700 624 700 653 q 678 574 700 594 q 626 554 657 554 q 574 574 596 554 q 553 624 553 594 m 553 485 q 574 534 553 514 q 624 554 594 554 q 674 534 653 554 q 694 485 694 514 q 674 435 694 456 q 624 415 653 415 q 574 435 594 415 q 553 485 553 456 m 554 347 q 575 395 554 375 q 625 415 596 415 q 674 395 653 415 q 694 347 694 375 q 674 298 694 318 q 625 278 653 278 q 575 298 596 278 q 554 347 554 318 m 554 207 q 575 257 554 236 q 626 278 596 278 q 676 257 656 278 q 697 207 697 236 q 676 156 697 176 q 626 135 656 135 q 575 156 596 135 q 554 207 554 176 m 557 68 q 578 115 557 96 q 628 135 599 135 q 676 115 656 135 q 697 68 697 96 q 676 19 697 39 q 628 0 656 0 q 578 19 599 0 q 557 68 557 39 z "},"N":{"ha":833,"x_min":0,"x_max":700,"o":"m 0 901 q 21 949 0 929 q 72 968 42 968 q 124 949 103 968 q 144 901 144 929 q 124 853 144 872 q 72 833 103 833 q 21 853 42 833 q 0 901 0 872 m 0 764 q 21 813 0 792 q 72 833 42 833 q 124 813 103 833 q 144 764 144 792 q 124 714 144 735 q 72 693 103 693 q 21 714 42 693 q 0 764 0 735 m 0 625 q 21 673 0 653 q 72 693 42 693 q 122 673 101 693 q 143 625 143 653 q 122 576 143 596 q 72 556 101 556 q 21 576 42 556 q 0 625 0 596 m 0 485 q 21 535 0 514 q 72 556 42 556 q 122 535 101 556 q 143 485 143 514 q 122 435 143 456 q 72 414 101 414 q 21 435 42 414 q 0 485 0 456 m 0 346 q 21 395 0 375 q 71 415 42 415 q 121 395 100 415 q 142 346 142 375 q 121 297 142 317 q 71 276 100 276 q 21 297 42 276 q 0 346 0 317 m 0 207 q 21 256 0 236 q 71 276 42 276 q 121 256 100 276 q 142 207 142 236 q 121 158 142 178 q 71 138 100 138 q 21 158 42 138 q 0 207 0 178 m 0 69 q 21 117 0 97 q 71 138 42 138 q 119 117 99 138 q 140 69 140 97 q 119 20 140 40 q 71 0 99 0 q 21 20 42 0 q 0 69 0 40 m 149 761 q 168 807 149 788 q 214 826 188 826 q 260 807 240 826 q 279 761 279 788 q 260 714 279 733 q 214 694 240 694 q 168 714 188 694 q 149 761 149 733 m 144 624 q 164 674 144 653 q 213 694 183 694 q 260 674 240 694 q 279 624 279 653 q 260 574 279 594 q 213 553 240 553 q 164 574 183 553 q 144 624 144 594 m 278 488 q 299 538 278 517 q 349 558 319 558 q 397 538 376 558 q 418 488 418 517 q 397 438 418 458 q 349 417 376 417 q 299 438 319 417 q 278 488 278 458 m 417 347 q 437 397 417 376 q 486 417 457 417 q 535 397 515 417 q 556 347 556 376 q 535 298 556 318 q 486 278 515 278 q 437 298 457 278 q 417 347 417 318 m 418 208 q 438 258 418 238 q 488 278 458 278 q 535 258 515 278 q 556 208 556 238 q 535 159 556 179 q 488 139 515 139 q 438 159 458 139 q 418 208 418 179 m 557 68 q 578 116 557 96 q 628 136 599 136 q 678 116 657 136 q 699 68 699 96 q 678 20 699 40 q 628 0 657 0 q 578 20 599 0 q 557 68 557 40 m 557 207 q 578 256 557 235 q 628 276 599 276 q 678 256 657 276 q 699 207 699 235 q 678 157 699 178 q 628 136 657 136 q 578 157 599 136 q 557 207 557 178 m 557 346 q 578 395 557 375 q 629 415 599 415 q 679 395 658 415 q 700 346 700 375 q 679 297 700 317 q 629 276 658 276 q 578 297 599 276 q 557 346 557 317 m 556 486 q 576 536 556 515 q 628 557 597 557 q 679 536 658 557 q 700 486 700 515 q 679 436 700 457 q 628 415 658 415 q 576 436 597 415 q 556 486 556 457 m 556 625 q 576 673 556 653 q 628 693 597 693 q 678 673 657 693 q 699 625 699 653 q 678 577 699 597 q 628 557 657 557 q 576 577 597 557 q 556 625 556 597 m 557 763 q 578 812 557 792 q 628 832 599 832 q 678 812 657 832 q 699 763 699 792 q 678 713 699 733 q 628 693 657 693 q 578 713 599 693 q 557 763 557 733 m 557 900 q 578 948 557 928 q 629 968 599 968 q 679 948 658 968 q 700 900 700 928 q 679 852 700 872 q 629 832 658 832 q 578 852 599 832 q 557 900 557 872 z "},"O":{"ha":694,"x_min":0,"x_max":560,"o":"m 0 761 q 21 807 0 788 q 71 826 42 826 q 119 807 99 826 q 140 761 140 788 q 119 714 140 733 q 71 694 99 694 q 21 714 42 694 q 0 761 0 733 m 0 625 q 21 674 0 653 q 71 694 42 694 q 119 674 99 694 q 140 625 140 653 q 119 575 140 596 q 71 554 99 554 q 21 575 42 554 q 0 625 0 596 m 0 485 q 21 534 0 514 q 71 554 42 554 q 121 534 100 554 q 142 485 142 514 q 121 435 142 456 q 71 415 100 415 q 21 435 42 415 q 0 485 0 456 m 0 346 q 21 395 0 375 q 71 415 42 415 q 121 395 100 415 q 142 346 142 375 q 121 297 142 317 q 71 276 100 276 q 21 297 42 276 q 0 346 0 317 m 0 207 q 21 256 0 235 q 71 276 42 276 q 119 256 99 276 q 140 207 140 235 q 119 157 140 178 q 71 136 99 136 q 21 157 42 136 q 0 207 0 178 m 140 68 q 161 116 140 96 q 211 136 182 136 q 260 116 239 136 q 281 68 281 96 q 260 20 281 40 q 211 0 239 0 q 161 20 182 0 q 140 68 140 40 m 281 68 q 301 115 281 96 q 350 135 321 135 q 398 115 378 135 q 418 68 418 96 q 398 19 418 39 q 350 0 378 0 q 301 19 321 0 q 281 68 281 39 m 418 204 q 439 253 418 233 q 489 274 460 274 q 538 253 517 274 q 558 204 558 233 q 538 155 558 175 q 489 135 517 135 q 439 155 460 135 q 418 204 418 175 m 413 344 q 434 394 413 374 q 486 415 456 415 q 537 394 515 415 q 558 344 558 374 q 537 294 558 315 q 486 274 515 274 q 434 294 456 274 q 413 344 413 315 m 413 483 q 434 531 413 511 q 486 551 456 551 q 538 531 517 551 q 560 483 560 511 q 538 435 560 456 q 486 415 517 415 q 434 435 456 415 q 413 483 413 456 m 415 622 q 436 671 415 650 q 488 692 457 692 q 539 671 518 692 q 560 622 560 650 q 539 572 560 593 q 488 551 518 551 q 436 572 457 551 q 415 622 415 593 m 415 760 q 436 808 415 788 q 488 828 457 828 q 539 808 518 828 q 560 760 560 788 q 539 712 560 732 q 488 692 518 692 q 436 712 457 692 q 415 760 415 732 m 278 900 q 299 948 278 928 q 349 968 319 968 q 397 948 376 968 q 418 900 418 928 q 397 851 418 871 q 349 831 376 831 q 299 851 319 831 q 278 900 278 871 m 136 900 q 157 948 136 928 q 207 968 178 968 q 257 948 236 968 q 278 900 278 928 q 257 851 278 871 q 207 831 236 831 q 157 851 178 831 q 136 900 136 871 z "},"P":{"ha":694,"x_min":0,"x_max":556,"o":"m 0 68 q 21 115 0 96 q 72 135 42 135 q 124 115 103 135 q 144 68 144 96 q 124 19 144 39 q 72 0 103 0 q 21 19 42 0 q 0 68 0 39 m 0 204 q 21 252 0 232 q 72 272 42 272 q 124 252 103 272 q 144 204 144 232 q 124 155 144 175 q 72 135 103 135 q 21 155 42 135 q 0 204 0 175 m 0 343 q 21 393 0 372 q 72 414 42 414 q 122 393 101 414 q 143 343 143 372 q 122 293 143 314 q 72 272 101 272 q 21 293 42 272 q 0 343 0 314 m 0 483 q 21 533 0 513 q 72 553 42 553 q 122 533 101 553 q 143 483 143 513 q 122 434 143 454 q 72 414 101 414 q 21 434 42 414 q 0 483 0 454 m 0 621 q 21 669 0 649 q 72 689 42 689 q 124 669 103 689 q 144 621 144 649 q 124 573 144 593 q 72 553 103 553 q 21 573 42 553 q 0 621 0 593 m 0 761 q 21 811 0 790 q 72 832 42 832 q 124 811 103 832 q 144 761 144 790 q 124 710 144 731 q 72 689 103 689 q 21 710 42 689 q 0 761 0 731 m 0 900 q 21 948 0 928 q 71 968 42 968 q 119 948 99 968 q 140 900 140 928 q 119 852 140 872 q 71 832 99 832 q 21 852 42 832 q 0 900 0 872 m 140 901 q 160 949 140 929 q 210 968 181 968 q 259 949 239 968 q 279 901 279 929 q 259 853 279 872 q 210 833 239 833 q 160 853 181 833 q 140 901 140 872 m 279 901 q 299 949 279 929 q 349 968 319 968 q 398 949 378 968 q 418 901 418 929 q 398 853 418 872 q 349 833 378 833 q 299 853 319 833 q 279 901 279 872 m 417 765 q 437 816 417 794 q 486 838 457 838 q 535 816 515 838 q 556 765 556 794 q 535 713 556 735 q 486 692 515 692 q 437 713 457 692 q 417 765 417 735 m 415 622 q 436 672 415 651 q 486 692 457 692 q 535 672 514 692 q 556 622 556 651 q 535 573 556 593 q 486 553 514 553 q 436 573 457 553 q 415 622 415 593 m 281 485 q 300 533 281 513 q 349 553 319 553 q 396 533 376 553 q 415 485 415 513 q 396 435 415 456 q 349 415 376 415 q 300 435 319 415 q 281 485 281 456 m 142 482 q 162 529 142 510 q 211 549 182 549 q 260 529 240 549 q 281 482 281 510 q 260 435 281 454 q 211 415 240 415 q 162 435 182 415 q 142 482 142 454 z "},"Q":{"ha":694,"x_min":0,"x_max":561,"o":"m 0 760 q 21 807 0 788 q 72 826 42 826 q 124 807 103 826 q 144 760 144 788 q 124 713 144 732 q 72 693 103 693 q 21 713 42 693 q 0 760 0 732 m 0 624 q 21 672 0 651 q 72 693 42 693 q 124 672 103 693 q 144 624 144 651 q 124 574 144 594 q 72 553 103 553 q 21 574 42 553 q 0 624 0 594 m 0 485 q 21 533 0 513 q 72 553 42 553 q 122 533 101 553 q 143 485 143 513 q 122 435 143 456 q 72 415 101 415 q 21 435 42 415 q 0 485 0 456 m 0 344 q 21 394 0 374 q 72 415 42 415 q 122 394 101 415 q 143 344 143 374 q 122 294 143 315 q 72 274 101 274 q 21 294 42 274 q 0 344 0 315 m 0 206 q 21 253 0 233 q 71 274 42 274 q 121 253 100 274 q 142 206 142 233 q 121 156 142 176 q 71 136 100 136 q 21 156 42 136 q 0 206 0 176 m 142 68 q 162 116 142 96 q 211 136 182 136 q 259 116 239 136 q 279 68 279 96 q 259 20 279 40 q 211 0 239 0 q 162 20 182 0 q 142 68 142 40 m 279 68 q 300 116 279 96 q 351 136 321 136 q 401 116 381 136 q 422 68 422 96 q 401 20 422 40 q 351 0 381 0 q 300 20 321 0 q 279 68 279 40 m 422 204 q 442 251 422 232 q 492 271 463 271 q 540 251 519 271 q 560 204 560 232 q 540 156 560 175 q 492 136 519 136 q 442 156 463 136 q 422 204 422 175 m 414 342 q 435 392 414 371 q 488 413 457 413 q 538 392 517 413 q 560 342 560 371 q 538 292 560 313 q 488 271 517 271 q 435 292 457 271 q 414 342 414 313 m 414 482 q 435 530 414 510 q 488 550 457 550 q 540 530 518 550 q 561 482 561 510 q 540 433 561 453 q 488 413 518 413 q 435 433 457 413 q 414 482 414 453 m 413 619 q 434 669 413 649 q 488 689 456 689 q 540 669 518 689 q 561 619 561 649 q 540 570 561 590 q 488 550 518 550 q 434 570 456 550 q 413 619 413 590 m 413 760 q 434 810 413 789 q 486 831 456 831 q 537 810 515 831 q 558 760 558 789 q 537 710 558 731 q 486 689 515 689 q 434 710 456 689 q 413 760 413 731 m 281 900 q 300 948 281 928 q 346 968 319 968 q 392 948 372 968 q 411 900 411 928 q 392 851 411 871 q 346 831 372 831 q 300 851 319 831 q 281 900 281 871 m 138 901 q 158 949 138 929 q 210 968 179 968 q 260 949 239 968 q 281 901 281 929 q 260 854 281 874 q 210 835 239 835 q 158 854 179 835 q 138 901 138 874 m 415 -69 q 436 -20 415 -40 q 488 0 457 0 q 538 -20 517 0 q 558 -69 558 -40 q 538 -119 558 -99 q 488 -139 517 -139 q 436 -119 457 -139 q 415 -69 415 -99 z "},"R":{"ha":694,"x_min":0,"x_max":560,"o":"m 0 900 q 21 948 0 928 q 72 968 42 968 q 122 948 101 968 q 143 900 143 928 q 122 852 143 872 q 72 832 101 832 q 21 852 42 832 q 0 900 0 872 m 143 900 q 163 948 143 928 q 211 968 183 968 q 259 948 239 968 q 279 900 279 928 q 259 852 279 872 q 211 832 239 832 q 163 852 183 832 q 143 900 143 872 m 279 901 q 300 949 279 929 q 350 968 321 968 q 399 949 378 968 q 419 901 419 929 q 399 853 419 872 q 350 833 378 833 q 300 853 321 833 q 279 901 279 872 m 419 764 q 440 813 419 792 q 490 833 461 833 q 539 813 518 833 q 560 764 560 792 q 539 714 560 735 q 490 693 518 693 q 440 714 461 693 q 419 764 419 735 m 415 624 q 436 673 415 653 q 488 693 457 693 q 539 673 518 693 q 560 624 560 653 q 539 574 560 594 q 488 554 518 554 q 436 574 457 554 q 415 624 415 594 m 278 485 q 298 533 278 513 q 347 554 318 554 q 395 533 375 554 q 415 485 415 513 q 395 435 415 456 q 347 414 375 414 q 298 435 318 414 q 278 485 278 456 m 140 483 q 160 533 140 513 q 210 553 181 553 q 258 533 238 553 q 278 483 278 513 q 258 434 278 454 q 210 414 238 414 q 160 434 181 414 q 140 483 140 454 m 0 68 q 21 116 0 96 q 72 136 42 136 q 124 116 103 136 q 144 68 144 96 q 124 20 144 40 q 72 0 103 0 q 21 20 42 0 q 0 68 0 40 m 0 206 q 21 253 0 233 q 72 274 42 274 q 124 253 103 274 q 144 206 144 233 q 124 156 144 176 q 72 136 103 136 q 21 156 42 136 q 0 206 0 176 m 0 343 q 22 392 0 372 q 74 413 43 413 q 126 392 104 413 q 147 343 147 372 q 126 294 147 314 q 74 274 104 274 q 22 294 43 274 q 0 343 0 314 m 0 482 q 22 530 0 510 q 74 550 43 550 q 126 530 104 550 q 147 482 147 510 q 126 433 147 453 q 74 413 104 413 q 22 433 43 413 q 0 482 0 453 m 0 621 q 21 671 0 650 q 72 692 42 692 q 124 671 103 692 q 144 621 144 650 q 124 571 144 592 q 72 550 103 550 q 21 571 42 550 q 0 621 0 592 m 0 760 q 21 808 0 788 q 72 828 42 828 q 124 808 103 828 q 144 760 144 788 q 124 712 144 732 q 72 692 103 692 q 21 712 42 692 q 0 760 0 732 m 419 347 q 440 396 419 375 q 489 417 460 417 q 537 396 517 417 q 557 347 557 375 q 537 297 557 318 q 489 276 517 276 q 440 297 460 276 q 419 347 419 318 m 417 208 q 438 256 417 236 q 488 276 458 276 q 536 256 515 276 q 557 208 557 236 q 536 159 557 179 q 488 139 515 139 q 438 159 458 139 q 417 208 417 179 m 417 69 q 438 119 417 99 q 488 139 458 139 q 536 119 515 139 q 557 69 557 99 q 536 20 557 40 q 488 0 515 0 q 438 20 458 0 q 417 69 417 40 z "},"S":{"ha":694,"x_min":0,"x_max":563,"o":"m 0 67 q 21 114 0 94 q 71 133 42 133 q 119 114 99 133 q 140 67 140 94 q 119 19 140 39 q 71 0 99 0 q 21 19 42 0 q 0 67 0 39 m 140 67 q 160 114 140 94 q 208 133 181 133 q 256 114 236 133 q 276 67 276 94 q 256 19 276 39 q 208 0 236 0 q 160 19 181 0 q 140 67 140 39 m 276 68 q 297 115 276 96 q 349 135 318 135 q 399 115 378 135 q 419 68 419 96 q 399 19 419 39 q 349 0 378 0 q 297 19 318 0 q 276 68 276 39 m 419 206 q 440 256 419 235 q 489 276 460 276 q 537 256 517 276 q 557 206 557 235 q 537 156 557 176 q 489 135 517 135 q 440 156 460 135 q 419 206 419 176 m 415 346 q 436 394 415 374 q 486 414 457 414 q 536 394 515 414 q 557 346 557 374 q 536 297 557 317 q 486 276 515 276 q 436 297 457 276 q 415 346 415 317 m 279 483 q 299 533 279 513 q 347 553 319 553 q 395 533 375 553 q 415 483 415 513 q 395 434 415 454 q 347 414 375 414 q 299 434 319 414 q 279 483 279 454 m 139 485 q 160 533 139 513 q 210 553 181 553 q 258 533 238 553 q 279 485 279 513 q 258 435 279 456 q 210 415 238 415 q 160 435 181 415 q 139 485 139 456 m 0 622 q 21 672 0 651 q 71 693 42 693 q 119 672 99 693 q 140 622 140 651 q 119 572 140 593 q 71 551 99 551 q 21 572 42 551 q 0 622 0 593 m 0 761 q 21 808 0 789 q 71 828 42 828 q 119 808 99 828 q 140 761 140 789 q 119 713 140 732 q 71 693 99 693 q 21 713 42 693 q 0 761 0 732 m 140 899 q 161 947 140 926 q 211 968 182 968 q 260 947 239 968 q 281 899 281 926 q 260 849 281 869 q 211 828 239 828 q 161 849 182 828 q 140 899 140 869 m 281 900 q 301 948 281 928 q 349 968 321 968 q 397 948 376 968 q 417 900 417 928 q 397 852 417 872 q 349 832 376 832 q 301 852 321 832 q 281 900 281 872 m 417 900 q 438 948 417 928 q 490 968 460 968 q 541 948 519 968 q 563 900 563 928 q 541 852 563 872 q 490 832 519 832 q 438 852 460 832 q 417 900 417 872 z "},"T":{"ha":833,"x_min":0,"x_max":697,"o":"m 0 901 q 21 949 0 929 q 71 968 42 968 q 121 949 100 968 q 142 901 142 929 q 121 854 142 874 q 71 835 100 835 q 21 854 42 835 q 0 901 0 874 m 142 901 q 162 949 142 929 q 211 968 182 968 q 260 949 240 968 q 281 901 281 929 q 260 854 281 874 q 211 835 240 835 q 162 854 182 835 q 142 901 142 874 m 281 901 q 301 949 281 929 q 349 968 321 968 q 397 949 376 968 q 417 901 417 929 q 397 853 417 872 q 349 833 376 833 q 301 853 321 833 q 281 901 281 872 m 417 901 q 438 949 417 929 q 488 968 458 968 q 536 949 515 968 q 557 901 557 929 q 536 853 557 872 q 488 833 515 833 q 438 853 458 833 q 417 901 417 872 m 557 900 q 578 948 557 928 q 628 968 599 968 q 676 948 656 968 q 697 900 697 928 q 676 852 697 872 q 628 832 656 832 q 578 852 599 832 q 557 900 557 872 m 279 68 q 299 116 279 96 q 349 136 319 136 q 398 116 378 136 q 418 68 418 96 q 398 20 418 40 q 349 0 378 0 q 299 20 319 0 q 279 68 279 40 m 278 206 q 299 253 278 233 q 349 274 319 274 q 397 253 376 274 q 418 206 418 233 q 397 156 418 176 q 349 136 376 136 q 299 156 319 136 q 278 206 278 176 m 278 344 q 299 393 278 372 q 349 414 319 414 q 399 393 378 414 q 419 344 419 372 q 399 294 419 315 q 349 274 378 274 q 299 294 319 274 q 278 344 278 315 m 276 483 q 297 531 276 511 q 349 551 318 551 q 399 531 378 551 q 419 483 419 511 q 399 434 419 454 q 349 414 378 414 q 297 434 318 414 q 276 483 276 454 m 276 622 q 297 671 276 650 q 349 692 318 692 q 400 671 379 692 q 421 622 421 650 q 400 572 421 593 q 349 551 379 551 q 297 572 318 551 q 276 622 276 593 m 275 760 q 297 808 275 788 q 349 828 318 828 q 399 808 378 828 q 421 760 421 788 q 399 712 421 732 q 349 692 378 692 q 297 712 318 692 q 275 760 275 732 z "},"U":{"ha":694,"x_min":0,"x_max":560,"o":"m 0 901 q 21 949 0 929 q 72 968 42 968 q 122 949 101 968 q 143 901 143 929 q 122 853 143 872 q 72 833 101 833 q 21 853 42 833 q 0 901 0 872 m 0 763 q 21 813 0 792 q 72 833 42 833 q 122 813 101 833 q 143 763 143 792 q 122 713 143 733 q 72 692 101 692 q 21 713 42 692 q 0 763 0 733 m 0 624 q 21 672 0 651 q 72 692 42 692 q 122 672 101 692 q 143 624 143 651 q 122 576 143 596 q 72 556 101 556 q 21 576 42 556 q 0 624 0 596 m 0 486 q 21 535 0 514 q 72 556 42 556 q 122 535 101 556 q 143 486 143 514 q 122 436 143 457 q 72 415 101 415 q 21 436 42 415 q 0 486 0 457 m 0 347 q 21 395 0 375 q 72 415 42 415 q 122 395 101 415 q 143 347 143 375 q 122 298 143 318 q 72 278 101 278 q 21 298 42 278 q 0 347 0 318 m 0 207 q 21 257 0 236 q 72 278 42 278 q 122 257 101 278 q 143 207 143 236 q 122 157 143 178 q 72 136 101 136 q 21 157 42 136 q 0 207 0 178 m 135 67 q 156 113 135 93 q 207 132 176 132 q 258 113 238 132 q 279 67 279 93 q 258 19 279 39 q 207 0 238 0 q 156 19 176 0 q 135 67 135 39 m 279 67 q 300 114 279 94 q 351 133 321 133 q 401 114 381 133 q 422 67 422 94 q 401 19 422 39 q 351 0 381 0 q 300 19 321 0 q 279 67 279 39 m 422 204 q 442 253 422 232 q 492 274 463 274 q 540 253 519 274 q 560 204 560 232 q 540 154 560 175 q 492 133 519 133 q 442 154 463 133 q 422 204 422 175 m 415 343 q 436 392 415 372 q 488 413 457 413 q 539 392 518 413 q 560 343 560 372 q 539 294 560 314 q 488 274 518 274 q 436 294 457 274 q 415 343 415 314 m 415 483 q 436 533 415 513 q 488 554 457 554 q 539 533 518 554 q 560 483 560 513 q 539 433 560 454 q 488 413 518 413 q 436 433 457 413 q 415 483 415 454 m 413 622 q 434 669 413 650 q 486 689 456 689 q 538 669 517 689 q 560 622 560 650 q 538 574 560 593 q 486 554 517 554 q 434 574 456 554 q 413 622 413 593 m 413 760 q 434 808 413 788 q 486 829 456 829 q 538 808 517 829 q 560 760 560 788 q 538 710 560 731 q 486 689 517 689 q 434 710 456 689 q 413 760 413 731 m 414 899 q 435 948 414 928 q 488 968 457 968 q 538 948 517 968 q 560 899 560 928 q 538 849 560 869 q 488 829 517 829 q 435 849 457 829 q 414 899 414 869 z "},"V":{"ha":833,"x_min":0,"x_max":699,"o":"m 0 901 q 21 949 0 929 q 71 968 42 968 q 121 949 100 968 q 142 901 142 929 q 121 853 142 872 q 71 833 100 833 q 21 853 42 833 q 0 901 0 872 m 0 764 q 21 813 0 793 q 71 833 42 833 q 121 813 100 833 q 142 764 142 793 q 121 715 142 735 q 71 694 100 694 q 21 715 42 694 q 0 764 0 735 m 0 624 q 21 674 0 653 q 72 694 42 694 q 122 674 101 694 q 143 624 143 653 q 122 574 143 594 q 72 553 101 553 q 21 574 42 553 q 0 624 0 594 m 0 486 q 21 533 0 514 q 72 553 42 553 q 122 533 101 553 q 143 486 143 514 q 122 438 143 457 q 72 418 101 418 q 21 438 42 418 q 0 486 0 457 m 142 347 q 162 395 142 375 q 211 415 182 415 q 260 395 240 415 q 281 347 281 375 q 260 298 281 318 q 211 278 240 278 q 162 298 182 278 q 142 347 142 318 m 138 208 q 158 257 138 236 q 210 278 179 278 q 260 257 239 278 q 281 208 281 236 q 260 158 281 179 q 210 138 239 138 q 158 158 179 138 q 138 208 138 179 m 276 69 q 297 119 276 99 q 349 139 318 139 q 400 119 379 139 q 421 69 421 99 q 400 20 421 40 q 349 0 379 0 q 297 20 318 0 q 276 69 276 40 m 419 204 q 440 253 419 232 q 489 274 460 274 q 537 253 517 274 q 557 204 557 232 q 537 154 557 175 q 489 133 517 133 q 440 154 460 133 q 419 204 419 175 m 413 343 q 433 392 413 372 q 485 413 454 413 q 536 392 515 413 q 557 343 557 372 q 536 294 557 314 q 485 274 515 274 q 433 294 454 274 q 413 343 413 314 m 556 482 q 576 532 556 511 q 628 553 597 553 q 678 532 657 553 q 699 482 699 511 q 678 431 699 451 q 628 410 657 410 q 576 431 597 410 q 556 482 556 451 m 554 622 q 575 670 554 650 q 626 690 596 690 q 678 670 657 690 q 699 622 699 650 q 678 573 699 593 q 626 553 657 553 q 575 573 596 553 q 554 622 554 593 m 554 760 q 575 809 554 789 q 626 829 596 829 q 676 809 656 829 q 697 760 697 789 q 676 710 697 731 q 626 690 656 690 q 575 710 596 690 q 554 760 554 731 m 554 899 q 575 948 554 928 q 626 968 596 968 q 676 948 656 968 q 697 899 697 928 q 676 849 697 869 q 626 829 656 829 q 575 849 596 829 q 554 899 554 869 z "},"W":{"ha":833,"x_min":0,"x_max":700,"o":"m 0 901 q 22 949 0 929 q 74 968 43 968 q 124 949 103 968 q 146 901 146 929 q 124 854 146 874 q 74 835 103 835 q 22 854 43 835 q 0 901 0 874 m 0 765 q 22 814 0 793 q 74 835 43 835 q 124 814 103 835 q 146 765 146 793 q 124 715 146 736 q 74 694 103 694 q 22 715 43 694 q 0 765 0 736 m 0 624 q 21 674 0 653 q 72 694 42 694 q 124 674 103 694 q 144 624 144 653 q 124 574 144 594 q 72 553 103 553 q 21 574 42 553 q 0 624 0 594 m 0 483 q 21 533 0 513 q 72 553 42 553 q 124 533 103 553 q 144 483 144 513 q 124 434 144 454 q 72 414 103 414 q 21 434 42 414 q 0 483 0 454 m 0 349 q 21 394 0 375 q 72 414 42 414 q 122 394 101 414 q 143 349 143 375 q 122 301 143 321 q 72 282 101 282 q 21 301 42 282 q 0 349 0 321 m 0 211 q 21 261 0 240 q 72 282 42 282 q 122 261 101 282 q 143 211 143 240 q 122 160 143 181 q 72 139 101 139 q 21 160 42 139 q 0 211 0 181 m 0 69 q 21 119 0 99 q 72 139 42 139 q 122 119 101 139 q 143 69 143 99 q 122 20 143 40 q 72 0 101 0 q 21 20 42 0 q 0 69 0 40 m 144 211 q 164 263 144 242 q 213 283 183 283 q 260 263 240 283 q 279 211 279 242 q 260 160 279 181 q 213 139 240 139 q 164 160 183 139 q 144 211 144 181 m 274 347 q 294 394 274 375 q 346 414 315 414 q 396 394 375 414 q 417 347 417 375 q 396 300 417 319 q 346 281 375 281 q 294 300 315 281 q 274 347 274 319 m 417 210 q 438 260 417 239 q 488 281 458 281 q 536 260 515 281 q 557 210 557 239 q 536 160 557 181 q 488 139 515 139 q 438 160 458 139 q 417 210 417 181 m 557 69 q 578 119 557 99 q 628 139 599 139 q 676 119 656 139 q 697 69 697 99 q 676 20 697 40 q 628 0 656 0 q 578 20 599 0 q 557 69 557 40 m 557 206 q 578 253 557 233 q 628 272 599 272 q 676 253 656 272 q 697 206 697 233 q 676 157 697 176 q 628 138 656 138 q 578 157 599 138 q 557 206 557 176 m 554 344 q 575 392 554 372 q 625 411 596 411 q 675 392 654 411 q 696 344 696 372 q 675 297 696 317 q 625 278 654 278 q 575 297 596 278 q 554 344 554 317 m 554 483 q 576 533 554 513 q 628 554 597 554 q 678 533 657 554 q 700 483 700 513 q 678 432 700 453 q 628 411 657 411 q 576 432 597 411 q 554 483 554 453 m 553 624 q 574 672 553 651 q 626 692 596 692 q 678 672 657 692 q 700 624 700 651 q 678 574 700 594 q 626 554 657 554 q 574 574 596 554 q 553 624 553 594 m 553 761 q 574 809 553 789 q 626 829 596 829 q 677 809 656 829 q 699 761 699 789 q 677 712 699 732 q 626 692 656 692 q 574 712 596 692 q 553 761 553 732 m 554 899 q 575 948 554 928 q 626 968 596 968 q 678 948 657 968 q 699 899 699 928 q 678 849 699 869 q 626 829 657 829 q 575 849 596 829 q 554 899 554 869 z "},"X":{"ha":833,"x_min":0,"x_max":700,"o":"m 0 901 q 21 949 0 929 q 71 968 42 968 q 121 949 100 968 q 142 901 142 929 q 121 854 142 874 q 71 835 100 835 q 21 854 42 835 q 0 901 0 874 m 0 765 q 21 814 0 793 q 71 835 42 835 q 121 814 100 835 q 142 765 142 793 q 121 715 142 736 q 71 694 100 694 q 21 715 42 694 q 0 765 0 736 m 0 68 q 21 115 0 96 q 71 135 42 135 q 121 115 100 135 q 142 68 142 96 q 121 19 142 39 q 71 0 100 0 q 21 19 42 0 q 0 68 0 39 m 0 204 q 21 253 0 233 q 71 274 42 274 q 121 253 100 274 q 142 204 142 233 q 121 155 142 175 q 71 135 100 135 q 21 155 42 135 q 0 204 0 175 m 138 342 q 158 393 138 372 q 208 414 179 414 q 258 393 238 414 q 279 342 279 372 q 258 290 279 311 q 208 269 238 269 q 158 290 179 269 q 138 342 138 311 m 279 483 q 299 533 279 513 q 349 553 319 553 q 398 533 378 553 q 418 483 418 513 q 398 434 418 454 q 349 414 378 414 q 299 434 319 414 q 279 483 279 454 m 418 622 q 438 672 418 651 q 488 692 458 692 q 537 672 517 692 q 557 622 557 651 q 537 573 557 593 q 488 553 517 553 q 438 573 458 553 q 418 622 418 593 m 557 761 q 578 810 557 790 q 629 831 599 831 q 679 810 658 831 q 700 761 700 790 q 679 712 700 732 q 629 692 658 692 q 578 712 599 692 q 557 761 557 732 m 557 900 q 578 948 557 928 q 629 968 599 968 q 679 948 658 968 q 700 900 700 928 q 679 851 700 871 q 629 831 658 831 q 578 851 599 831 q 557 900 557 871 m 136 621 q 158 667 136 647 q 210 686 179 686 q 260 667 239 686 q 282 621 282 647 q 260 575 282 594 q 210 556 239 556 q 158 575 179 556 q 136 621 136 594 m 417 347 q 438 397 417 376 q 488 417 458 417 q 538 397 517 417 q 558 347 558 376 q 538 298 558 318 q 488 278 517 278 q 438 298 458 278 q 417 347 417 318 m 558 210 q 579 258 558 238 q 629 278 600 278 q 679 258 658 278 q 700 210 700 238 q 679 160 700 181 q 629 140 658 140 q 579 160 600 140 q 558 210 558 181 m 553 71 q 574 119 553 99 q 626 140 596 140 q 678 119 657 140 q 700 71 700 99 q 678 21 700 42 q 626 0 657 0 q 574 21 596 0 q 553 71 553 42 z "},"Y":{"ha":833,"x_min":0,"x_max":700,"o":"m 0 901 q 21 949 0 929 q 71 968 42 968 q 121 949 100 968 q 142 901 142 929 q 121 854 142 874 q 71 835 100 835 q 21 854 42 835 q 0 901 0 874 m 0 765 q 21 814 0 793 q 71 835 42 835 q 121 814 100 835 q 142 765 142 793 q 121 715 142 736 q 71 694 100 694 q 21 715 42 694 q 0 765 0 736 m 0 68 q 21 115 0 96 q 71 135 42 135 q 121 115 100 135 q 142 68 142 96 q 121 19 142 39 q 71 0 100 0 q 21 19 42 0 q 0 68 0 39 m 0 204 q 21 253 0 233 q 71 274 42 274 q 121 253 100 274 q 142 204 142 233 q 121 155 142 175 q 71 135 100 135 q 21 155 42 135 q 0 204 0 175 m 138 342 q 158 393 138 372 q 208 414 179 414 q 258 393 238 414 q 279 342 279 372 q 258 290 279 311 q 208 269 238 269 q 158 290 179 269 q 138 342 138 311 m 279 483 q 299 533 279 513 q 349 553 319 553 q 398 533 378 553 q 418 483 418 513 q 398 434 418 454 q 349 414 378 414 q 299 434 319 414 q 279 483 279 454 m 418 622 q 438 672 418 651 q 488 692 458 692 q 537 672 517 692 q 557 622 557 651 q 537 573 557 593 q 488 553 517 553 q 438 573 458 553 q 418 622 418 593 m 557 761 q 578 810 557 790 q 629 831 599 831 q 679 810 658 831 q 700 761 700 790 q 679 712 700 732 q 629 692 658 692 q 578 712 599 692 q 557 761 557 732 m 557 900 q 578 948 557 928 q 629 968 599 968 q 679 948 658 968 q 700 900 700 928 q 679 851 700 871 q 629 831 658 831 q 578 851 599 831 q 557 900 557 871 m 136 621 q 158 667 136 647 q 210 686 179 686 q 260 667 239 686 q 282 621 282 647 q 260 575 282 594 q 210 556 239 556 q 158 575 179 556 q 136 621 136 594 z "},"Z":{"ha":694,"x_min":0,"x_max":561,"o":"m 0 900 q 21 948 0 928 q 71 968 42 968 q 119 948 99 968 q 140 900 140 928 q 119 852 140 872 q 71 832 99 832 q 21 852 42 832 q 0 900 0 872 m 140 900 q 161 948 140 928 q 211 968 182 968 q 261 948 240 968 q 282 900 282 928 q 261 852 282 872 q 211 832 240 832 q 161 852 182 832 q 140 900 140 872 m 282 901 q 302 949 282 929 q 351 968 322 968 q 399 949 379 968 q 419 901 419 929 q 399 854 419 874 q 351 835 379 835 q 302 854 322 835 q 282 901 282 874 m 419 901 q 440 949 419 929 q 489 968 460 968 q 538 949 518 968 q 558 901 558 929 q 538 854 558 874 q 489 835 518 835 q 440 854 460 835 q 419 901 419 874 m 417 763 q 437 814 417 793 q 486 835 457 835 q 534 814 514 835 q 554 763 554 793 q 534 711 554 732 q 486 690 514 690 q 437 711 457 690 q 417 763 417 732 m 417 622 q 438 670 417 650 q 489 690 458 690 q 540 670 519 690 q 561 622 561 650 q 540 573 561 593 q 489 553 519 553 q 438 573 458 553 q 417 622 417 593 m 276 483 q 297 535 276 514 q 349 556 318 556 q 399 535 378 556 q 419 483 419 514 q 399 432 419 453 q 349 411 378 411 q 297 432 318 411 q 276 483 276 453 m 135 342 q 156 391 135 371 q 206 411 176 411 q 256 391 235 411 q 276 342 276 371 q 256 292 276 313 q 206 272 235 272 q 156 292 176 272 q 135 342 135 313 m 0 204 q 19 252 0 232 q 68 272 39 272 q 115 252 96 272 q 135 204 135 232 q 115 155 135 175 q 68 135 96 135 q 19 155 39 135 q 0 204 0 175 m 0 68 q 20 115 0 96 q 69 135 40 135 q 119 115 99 135 q 139 68 139 96 q 119 19 139 39 q 69 0 99 0 q 20 19 40 0 q 0 68 0 39 m 139 68 q 160 116 139 96 q 210 136 181 136 q 260 116 239 136 q 281 68 281 96 q 260 20 281 40 q 210 0 239 0 q 160 20 181 0 q 139 68 139 40 m 281 68 q 301 116 281 96 q 350 136 321 136 q 398 116 378 136 q 418 68 418 96 q 398 20 418 40 q 350 0 378 0 q 301 20 321 0 q 281 68 281 40 m 418 68 q 439 116 418 96 q 489 136 460 136 q 539 116 518 136 q 560 68 560 96 q 539 20 560 40 q 489 0 518 0 q 439 20 460 0 q 418 68 418 40 z "},"[":{"ha":417,"x_min":0,"x_max":282,"o":"m 139 901 q 159 949 139 929 q 208 968 179 968 q 258 949 238 968 q 278 901 278 929 q 258 853 278 872 q 208 833 238 833 q 159 853 179 833 q 139 901 139 872 m 0 901 q 20 949 0 929 q 69 968 40 968 q 119 949 99 968 q 139 901 139 929 q 119 853 139 872 q 69 833 99 833 q 20 853 40 833 q 0 901 0 872 m 0 763 q 21 810 0 790 q 71 831 42 831 q 121 810 100 831 q 142 763 142 790 q 121 715 142 735 q 71 694 100 694 q 21 715 42 694 q 0 763 0 735 m 0 624 q 21 674 0 653 q 71 694 42 694 q 121 674 100 694 q 142 624 142 653 q 121 572 142 593 q 71 551 100 551 q 21 572 42 551 q 0 624 0 593 m 0 486 q 21 532 0 513 q 71 551 42 551 q 121 532 100 551 q 142 486 142 513 q 121 440 142 460 q 71 421 100 421 q 21 440 42 421 q 0 486 0 460 m 0 347 q 21 399 0 378 q 71 421 42 421 q 121 399 100 421 q 142 347 142 378 q 121 294 142 315 q 71 272 100 272 q 21 294 42 272 q 0 347 0 315 m 0 207 q 21 253 0 233 q 72 272 42 272 q 122 253 101 272 q 143 207 143 233 q 122 161 143 181 q 72 142 101 142 q 21 161 42 142 q 0 207 0 181 m 143 71 q 163 121 143 100 q 213 142 183 142 q 262 121 242 142 q 282 71 282 100 q 262 21 282 42 q 213 0 242 0 q 163 21 183 0 q 143 71 143 42 m 0 68 q 21 115 0 96 q 72 135 42 135 q 122 115 101 135 q 143 68 143 96 q 122 19 143 39 q 72 0 101 0 q 21 19 42 0 q 0 68 0 39 z "},"\\":{"ha":833,"x_min":4,"x_max":703,"o":"m 703 78 q 682 125 703 106 q 632 144 661 144 q 581 125 601 144 q 560 78 560 106 q 581 31 560 50 q 632 11 601 11 q 682 31 661 11 q 703 78 703 50 m 703 215 q 682 265 703 244 q 632 286 661 286 q 581 265 601 286 q 560 215 560 244 q 581 165 560 186 q 632 144 601 144 q 682 165 661 144 q 703 215 703 186 m 567 354 q 546 404 567 383 q 494 425 525 425 q 444 404 465 425 q 422 354 422 383 q 444 305 422 325 q 494 285 465 285 q 546 305 525 285 q 567 354 567 325 m 422 494 q 402 544 422 524 q 353 565 382 565 q 303 544 324 565 q 282 494 282 524 q 303 445 282 465 q 353 425 324 425 q 402 445 382 425 q 422 494 422 465 m 282 633 q 262 683 282 663 q 213 703 242 703 q 163 683 183 703 q 143 633 143 663 q 163 585 143 606 q 213 565 183 565 q 262 585 242 565 q 282 633 282 606 m 143 772 q 123 822 143 801 q 74 843 103 843 q 24 822 44 843 q 4 772 4 801 q 24 723 4 743 q 74 703 44 703 q 123 723 103 703 q 143 772 143 743 m 149 911 q 128 959 149 939 q 76 979 107 979 q 26 959 47 979 q 4 911 4 939 q 26 863 4 882 q 76 843 47 843 q 128 863 107 843 q 149 911 149 882 z "},"]":{"ha":417,"x_min":7,"x_max":289,"o":"m 150 908 q 130 956 150 936 q 81 975 110 975 q 32 956 53 975 q 11 908 11 936 q 32 860 11 881 q 81 840 53 840 q 130 860 110 840 q 150 908 150 881 m 289 908 q 269 956 289 936 q 219 975 249 975 q 171 956 192 975 q 150 908 150 936 q 171 860 150 881 q 219 840 192 840 q 269 860 249 840 q 289 908 289 881 m 289 769 q 269 818 289 799 q 218 838 249 838 q 168 818 189 838 q 147 769 147 799 q 168 722 147 742 q 218 701 189 701 q 269 722 249 701 q 289 769 289 742 m 289 631 q 269 681 289 660 q 218 701 249 701 q 168 681 189 701 q 147 631 147 660 q 168 580 147 601 q 218 558 189 558 q 269 580 249 558 q 289 631 289 601 m 289 493 q 269 540 289 521 q 218 558 249 558 q 168 540 189 558 q 147 493 147 521 q 168 447 147 467 q 218 428 189 428 q 269 447 249 428 q 289 493 289 467 m 289 354 q 269 406 289 385 q 218 428 249 428 q 168 406 189 428 q 147 354 147 385 q 168 301 147 324 q 218 279 189 279 q 269 301 249 279 q 289 354 289 324 m 289 214 q 268 260 289 242 q 218 279 247 279 q 167 260 189 279 q 146 214 146 242 q 167 168 146 188 q 218 149 189 149 q 268 168 247 149 q 289 214 289 188 m 146 78 q 126 128 146 108 q 76 149 106 149 q 28 128 49 149 q 7 78 7 108 q 28 28 7 49 q 76 7 49 7 q 126 28 106 7 q 146 78 146 49 m 289 75 q 268 122 289 103 q 218 142 247 142 q 167 122 189 142 q 146 75 146 103 q 167 27 146 47 q 218 7 189 7 q 268 27 247 7 q 289 75 289 47 z "},"^":{"ha":554,"x_min":0,"x_max":421,"o":"m 0 764 q 21 810 0 790 q 72 829 42 829 q 124 810 103 829 q 144 764 144 790 q 124 717 144 736 q 72 697 103 697 q 21 717 42 697 q 0 764 0 736 m 139 899 q 160 947 139 926 q 213 968 182 968 q 263 947 242 968 q 285 899 285 926 q 263 849 285 869 q 213 828 242 828 q 160 849 182 828 q 139 899 139 869 m 282 764 q 302 814 282 793 q 351 835 322 835 q 401 814 381 835 q 421 764 421 793 q 401 714 421 735 q 351 693 381 693 q 302 714 322 693 q 282 764 282 735 z "},"_":{"ha":694,"x_min":0,"x_max":560,"o":"m 0 -72 q 21 -21 0 -42 q 72 0 42 0 q 122 -21 101 0 q 143 -72 143 -42 q 122 -124 143 -103 q 72 -144 101 -144 q 21 -124 42 -144 q 0 -72 0 -103 m 143 -72 q 163 -21 143 -42 q 213 0 183 0 q 262 -21 242 0 q 282 -72 282 -42 q 262 -124 282 -103 q 213 -144 242 -144 q 163 -124 183 -144 q 143 -72 143 -103 m 282 -72 q 302 -21 282 -42 q 351 0 322 0 q 401 -21 381 0 q 421 -72 421 -42 q 401 -124 421 -103 q 351 -144 381 -144 q 302 -124 322 -144 q 282 -72 282 -103 m 421 -72 q 441 -21 421 -42 q 490 0 461 0 q 540 -21 519 0 q 560 -72 560 -42 q 540 -124 560 -103 q 490 -144 519 -144 q 441 -124 461 -144 q 421 -72 421 -103 z "},"a":{"ha":694,"x_min":0,"x_max":560,"o":"m 138 624 q 158 672 138 651 q 208 692 179 692 q 258 672 238 692 q 279 624 279 651 q 258 576 279 596 q 208 556 238 556 q 158 576 179 556 q 138 624 138 596 m 279 624 q 300 672 279 651 q 351 692 321 692 q 403 672 382 692 q 424 624 424 651 q 403 576 424 596 q 351 556 382 556 q 300 576 321 556 q 279 624 279 596 m 421 486 q 441 535 421 515 q 490 556 461 556 q 540 535 519 556 q 560 486 560 515 q 540 437 560 457 q 490 417 519 417 q 441 437 461 417 q 421 486 421 457 m 417 346 q 438 396 417 375 q 489 417 458 417 q 539 396 518 417 q 560 346 560 375 q 539 294 560 315 q 489 274 518 274 q 438 294 458 274 q 417 346 417 315 m 417 204 q 438 253 417 233 q 488 274 458 274 q 538 253 517 274 q 558 204 558 233 q 538 155 558 175 q 488 135 517 135 q 438 155 458 135 q 417 204 417 175 m 417 68 q 438 115 417 96 q 488 135 458 135 q 536 115 515 135 q 557 68 557 96 q 536 19 557 39 q 488 0 515 0 q 438 19 458 0 q 417 68 417 39 m 276 68 q 297 116 276 96 q 347 136 318 136 q 396 116 375 136 q 417 68 417 96 q 396 20 417 40 q 347 0 375 0 q 297 20 318 0 q 276 68 276 40 m 139 68 q 159 116 139 96 q 208 136 179 136 q 256 116 236 136 q 276 68 276 96 q 256 20 276 40 q 208 0 236 0 q 159 20 179 0 q 139 68 139 40 m 0 208 q 21 254 0 235 q 72 274 42 274 q 124 254 103 274 q 144 208 144 235 q 124 163 144 182 q 72 143 103 143 q 21 163 42 143 q 0 208 0 182 m 138 343 q 158 390 138 371 q 208 410 179 410 q 258 390 238 410 q 279 343 279 371 q 258 296 279 315 q 208 276 238 276 q 158 296 179 276 q 138 343 138 315 m 279 346 q 299 391 279 372 q 347 410 319 410 q 395 391 375 410 q 415 346 415 372 q 395 299 415 318 q 347 281 375 281 q 299 299 319 281 q 279 346 279 318 z "},"b":{"ha":694,"x_min":0,"x_max":563,"o":"m 0 900 q 21 948 0 928 q 72 968 42 968 q 122 948 101 968 q 143 900 143 928 q 122 852 143 872 q 72 832 101 832 q 21 852 42 832 q 0 900 0 872 m 0 761 q 21 811 0 790 q 72 832 42 832 q 122 811 101 832 q 143 761 143 790 q 122 711 143 732 q 72 690 101 690 q 21 711 42 690 q 0 761 0 732 m 0 622 q 21 670 0 650 q 72 690 42 690 q 122 670 101 690 q 143 622 143 650 q 122 573 143 593 q 72 553 101 553 q 21 573 42 553 q 0 622 0 593 m 0 485 q 21 533 0 513 q 72 553 42 553 q 122 533 101 553 q 143 485 143 513 q 122 437 143 457 q 72 417 101 417 q 21 437 42 417 q 0 485 0 457 m 0 347 q 21 396 0 375 q 72 417 42 417 q 122 396 101 417 q 143 347 143 375 q 122 297 143 318 q 72 276 101 276 q 21 297 42 276 q 0 347 0 318 m 0 207 q 21 256 0 235 q 72 276 42 276 q 122 256 101 276 q 143 207 143 235 q 122 157 143 178 q 72 136 101 136 q 21 157 42 136 q 0 207 0 178 m 0 68 q 21 116 0 96 q 72 136 42 136 q 122 116 101 136 q 143 68 143 96 q 122 20 143 40 q 72 0 101 0 q 21 20 42 0 q 0 68 0 40 m 143 69 q 163 119 143 99 q 213 139 183 139 q 260 119 240 139 q 281 69 281 99 q 260 20 281 40 q 213 0 240 0 q 163 20 183 0 q 143 69 143 40 m 281 69 q 301 119 281 99 q 351 139 322 139 q 401 119 381 139 q 422 69 422 99 q 401 20 422 40 q 351 0 381 0 q 301 20 322 0 q 281 69 281 40 m 418 206 q 439 256 418 235 q 490 276 460 276 q 542 256 521 276 q 563 206 563 235 q 542 154 563 175 q 490 133 521 133 q 439 154 460 133 q 418 206 418 175 m 414 343 q 435 389 414 369 q 489 408 457 408 q 541 389 519 408 q 563 343 563 369 q 541 296 563 315 q 489 276 519 276 q 435 296 457 276 q 414 343 414 315 m 414 481 q 435 532 414 511 q 486 553 456 553 q 538 532 517 553 q 558 481 558 511 q 538 429 558 450 q 486 408 517 408 q 435 429 456 408 q 414 481 414 450 m 279 621 q 299 671 279 650 q 347 692 319 692 q 395 671 375 692 q 415 621 415 650 q 395 571 415 592 q 347 550 375 550 q 299 571 319 550 q 279 621 279 592 m 140 624 q 160 672 140 651 q 210 692 181 692 q 259 672 239 692 q 279 624 279 651 q 259 576 279 596 q 210 556 239 556 q 160 576 181 556 q 140 624 140 596 z "},"c":{"ha":694,"x_min":0,"x_max":557,"o":"m 417 485 q 438 533 417 513 q 488 553 458 553 q 536 533 515 553 q 557 485 557 513 q 536 437 557 457 q 488 417 515 417 q 438 437 458 417 q 417 485 417 457 m 278 622 q 299 671 278 650 q 349 692 319 692 q 397 671 376 692 q 418 622 418 650 q 397 572 418 593 q 349 551 376 551 q 299 572 319 551 q 278 622 278 593 m 138 625 q 158 672 138 653 q 208 692 179 692 q 257 672 236 692 q 278 625 278 653 q 257 576 278 596 q 208 557 236 557 q 158 576 179 557 q 138 625 138 596 m 0 486 q 20 536 0 515 q 69 557 40 557 q 117 536 97 557 q 138 486 138 515 q 117 435 138 456 q 69 414 97 414 q 20 435 40 414 q 0 486 0 456 m 0 344 q 21 394 0 374 q 72 414 42 414 q 124 394 103 414 q 144 344 144 374 q 124 295 144 315 q 72 275 103 275 q 21 295 42 275 q 0 344 0 315 m 0 206 q 21 254 0 233 q 72 275 42 275 q 124 254 103 275 q 144 206 144 233 q 124 156 144 176 q 72 135 103 135 q 21 156 42 135 q 0 206 0 176 m 138 65 q 158 111 138 92 q 210 131 179 131 q 260 111 239 131 q 281 65 281 92 q 260 19 281 39 q 210 0 239 0 q 158 19 179 0 q 138 65 138 39 m 281 68 q 301 115 281 96 q 350 135 321 135 q 398 115 378 135 q 418 68 418 96 q 398 19 418 39 q 350 0 378 0 q 301 19 321 0 q 281 68 281 39 m 418 206 q 438 256 418 235 q 488 276 458 276 q 535 256 515 276 q 556 206 556 235 q 535 156 556 176 q 488 135 515 135 q 438 156 458 135 q 418 206 418 176 z "},"d":{"ha":694,"x_min":-10,"x_max":553,"o":"m 553 900 q 532 948 553 928 q 482 968 511 968 q 431 948 451 968 q 410 900 410 928 q 431 852 410 872 q 482 832 451 832 q 532 852 511 832 q 553 900 553 872 m 553 761 q 532 811 553 790 q 482 832 511 832 q 431 811 451 832 q 410 761 410 790 q 431 711 410 732 q 482 690 451 690 q 532 711 511 690 q 553 761 553 732 m 553 622 q 532 670 553 650 q 482 690 511 690 q 431 670 451 690 q 410 622 410 650 q 431 573 410 593 q 482 553 451 553 q 532 573 511 553 q 553 622 553 593 m 553 485 q 532 533 553 513 q 482 553 511 553 q 431 533 451 553 q 410 485 410 513 q 431 437 410 457 q 482 417 451 417 q 532 437 511 417 q 553 485 553 457 m 553 347 q 532 396 553 375 q 482 417 511 417 q 431 396 451 417 q 410 347 410 375 q 431 297 410 318 q 482 276 451 276 q 532 297 511 276 q 553 347 553 318 m 553 207 q 532 256 553 235 q 482 276 511 276 q 431 256 451 276 q 410 207 410 235 q 431 157 410 178 q 482 136 451 136 q 532 157 511 136 q 553 207 553 178 m 553 68 q 532 116 553 96 q 482 136 511 136 q 431 116 451 136 q 410 68 410 96 q 431 20 410 40 q 482 0 451 0 q 532 20 511 0 q 553 68 553 40 m 410 69 q 390 119 410 99 q 342 139 369 139 q 292 119 313 139 q 272 69 272 99 q 292 20 272 40 q 342 0 313 0 q 390 20 369 0 q 410 69 410 40 m 272 69 q 251 119 272 99 q 201 139 231 139 q 151 119 172 139 q 131 69 131 99 q 151 20 131 40 q 201 0 172 0 q 251 20 231 0 q 272 69 272 40 m 135 206 q 114 256 135 235 q 63 276 93 276 q 11 256 32 276 q -10 206 -10 235 q 11 154 -10 175 q 63 133 32 133 q 114 154 93 133 q 135 206 135 175 m 139 343 q 117 389 139 369 q 65 408 96 408 q 12 389 33 408 q -10 343 -10 369 q 12 296 -10 315 q 65 276 33 276 q 117 296 96 276 q 139 343 139 315 m 139 481 q 118 532 139 511 q 67 553 97 553 q 15 532 36 553 q -6 481 -6 511 q 15 429 -6 450 q 67 408 36 408 q 118 429 97 408 q 139 481 139 450 m 274 621 q 253 671 274 650 q 206 692 233 692 q 158 671 178 692 q 138 621 138 650 q 158 571 138 592 q 206 550 178 550 q 253 571 233 550 q 274 621 274 592 m 413 624 q 392 672 413 651 q 343 692 372 692 q 294 672 314 692 q 274 624 274 651 q 294 576 274 596 q 343 556 314 556 q 392 576 372 556 q 413 624 413 596 z "},"e":{"ha":694,"x_min":0,"x_max":560,"o":"m 138 621 q 158 669 138 649 q 208 689 179 689 q 258 669 238 689 q 279 621 279 649 q 258 573 279 593 q 208 553 238 553 q 158 573 179 553 q 138 621 138 593 m 279 624 q 299 674 279 653 q 349 694 319 694 q 397 674 376 694 q 417 624 417 653 q 397 574 417 594 q 349 553 376 553 q 299 574 319 553 q 279 624 279 594 m 418 485 q 439 536 418 515 q 489 557 460 557 q 539 536 518 557 q 560 485 560 515 q 539 433 560 454 q 489 413 518 413 q 439 433 460 413 q 418 485 418 454 m 418 344 q 439 392 418 372 q 489 413 460 413 q 539 392 518 413 q 560 344 560 372 q 539 297 560 317 q 489 276 518 276 q 439 297 460 276 q 418 344 418 317 m 278 344 q 299 392 278 372 q 349 413 319 413 q 397 392 376 413 q 418 344 418 372 q 397 297 418 317 q 349 276 376 276 q 299 297 319 276 q 278 344 278 317 m 140 344 q 160 392 140 372 q 210 413 181 413 q 258 392 238 413 q 278 344 278 372 q 258 295 278 315 q 210 275 238 275 q 160 295 181 275 q 140 344 140 315 m 0 343 q 21 391 0 371 q 71 411 42 411 q 119 391 99 411 q 140 343 140 371 q 119 295 140 315 q 71 275 99 275 q 21 295 42 275 q 0 343 0 315 m 0 483 q 21 533 0 513 q 71 554 42 554 q 119 533 99 554 q 140 483 140 513 q 119 432 140 453 q 71 411 99 411 q 21 432 42 411 q 0 483 0 453 m 0 206 q 21 253 0 233 q 71 272 42 272 q 121 253 100 272 q 142 206 142 233 q 121 157 142 176 q 71 138 100 138 q 21 157 42 138 q 0 206 0 176 m 140 65 q 161 111 140 92 q 211 131 182 131 q 261 111 240 131 q 282 65 282 92 q 261 19 282 39 q 211 0 240 0 q 161 19 182 0 q 140 65 140 39 m 282 68 q 302 115 282 96 q 351 135 322 135 q 401 115 381 135 q 421 68 421 96 q 401 19 421 39 q 351 0 381 0 q 302 19 322 0 q 282 68 282 39 z "},"f":{"ha":554,"x_min":0,"x_max":417,"o":"m 275 901 q 296 949 275 929 q 346 968 317 968 q 396 949 375 968 q 417 901 417 929 q 396 853 417 872 q 346 833 375 833 q 296 853 317 833 q 275 901 275 872 m 139 764 q 159 813 139 793 q 207 833 179 833 q 255 813 235 833 q 275 764 275 793 q 255 715 275 735 q 207 694 235 694 q 159 715 179 694 q 139 764 139 735 m 139 626 q 160 674 139 654 q 210 694 181 694 q 260 674 239 694 q 281 626 281 654 q 260 577 281 597 q 210 557 239 557 q 160 577 181 557 q 139 626 139 597 m 138 486 q 158 536 138 515 q 210 557 179 557 q 260 536 239 557 q 281 486 281 515 q 260 435 281 456 q 210 414 239 414 q 158 435 179 414 q 138 486 138 456 m 138 346 q 159 394 138 374 q 211 414 181 414 q 263 394 242 414 q 285 346 285 374 q 263 298 285 318 q 211 278 242 278 q 159 298 181 278 q 138 346 138 318 m 136 207 q 158 257 136 236 q 211 278 179 278 q 263 257 242 278 q 285 207 285 236 q 263 157 285 178 q 211 136 242 136 q 158 157 179 136 q 136 207 136 178 m 136 68 q 157 116 136 96 q 208 136 178 136 q 260 116 239 136 q 281 68 281 96 q 260 20 281 40 q 208 0 239 0 q 157 20 178 0 q 136 68 136 40 m 275 483 q 296 531 275 511 q 346 551 317 551 q 395 531 375 551 q 415 483 415 511 q 395 435 415 454 q 346 415 375 415 q 296 435 317 415 q 275 483 275 454 m 0 485 q 21 532 0 513 q 71 551 42 551 q 119 532 99 551 q 140 485 140 513 q 119 436 140 456 q 71 417 99 417 q 21 436 42 417 q 0 485 0 456 z "},"g":{"ha":694,"x_min":0,"x_max":563,"o":"m 0 -208 q 21 -161 0 -181 q 71 -142 42 -142 q 121 -161 100 -142 q 142 -208 142 -181 q 121 -256 142 -236 q 71 -275 100 -275 q 21 -256 42 -275 q 0 -208 0 -236 m 142 -208 q 163 -161 142 -181 q 213 -142 183 -142 q 261 -161 240 -142 q 282 -208 282 -181 q 261 -256 282 -236 q 213 -275 240 -275 q 163 -256 183 -275 q 142 -208 142 -236 m 282 -208 q 302 -161 282 -181 q 350 -142 322 -142 q 398 -161 378 -142 q 418 -208 418 -181 q 398 -256 418 -236 q 350 -275 378 -275 q 302 -256 322 -275 q 282 -208 282 -236 m 418 -71 q 439 -21 418 -42 q 490 0 460 0 q 540 -21 519 0 q 561 -71 561 -42 q 540 -121 561 -100 q 490 -142 519 -142 q 439 -121 460 -142 q 418 -71 418 -100 m 417 68 q 438 116 417 96 q 489 136 458 136 q 540 116 519 136 q 561 68 561 96 q 540 20 561 40 q 489 0 519 0 q 438 20 458 0 q 417 68 417 40 m 278 68 q 298 116 278 96 q 347 136 318 136 q 397 116 376 136 q 417 68 417 96 q 397 20 417 40 q 347 0 376 0 q 298 20 318 0 q 278 68 278 40 m 136 67 q 157 114 136 94 q 207 133 178 133 q 257 114 236 133 q 278 67 278 94 q 257 19 278 39 q 207 0 236 0 q 157 19 178 0 q 136 67 136 39 m 0 204 q 20 253 0 232 q 68 274 40 274 q 116 253 96 274 q 136 204 136 232 q 116 154 136 175 q 68 133 96 133 q 20 154 40 133 q 0 204 0 175 m 0 344 q 21 394 0 374 q 72 415 42 415 q 122 394 101 415 q 143 344 143 374 q 122 294 143 315 q 72 274 101 274 q 21 294 42 274 q 0 344 0 315 m 0 483 q 21 531 0 511 q 72 550 42 550 q 122 531 101 550 q 143 483 143 511 q 122 435 143 454 q 72 415 101 415 q 21 435 42 415 q 0 483 0 454 m 135 617 q 156 666 135 646 q 208 686 178 686 q 259 666 238 686 q 281 617 281 646 q 259 567 281 588 q 208 547 238 547 q 156 567 178 547 q 135 617 135 588 m 281 622 q 301 667 281 649 q 349 686 321 686 q 397 667 376 686 q 417 622 417 649 q 397 576 417 594 q 349 557 376 557 q 301 576 321 557 q 281 622 281 594 m 417 625 q 438 672 417 653 q 490 692 460 692 q 541 672 519 692 q 563 625 563 653 q 541 576 563 596 q 490 557 519 557 q 438 576 460 557 q 417 625 417 596 m 418 485 q 438 535 418 514 q 488 556 458 556 q 535 535 515 556 q 556 485 556 514 q 535 433 556 454 q 488 413 515 413 q 438 433 458 413 q 418 485 418 454 m 418 343 q 439 392 418 372 q 490 413 460 413 q 540 392 519 413 q 561 343 561 372 q 540 294 561 314 q 490 274 519 274 q 439 294 460 274 q 418 343 418 314 m 415 206 q 437 253 415 233 q 489 274 458 274 q 540 253 518 274 q 561 206 561 233 q 540 156 561 176 q 489 136 518 136 q 437 156 458 136 q 415 206 415 176 z "},"h":{"ha":694,"x_min":0,"x_max":560,"o":"m 0 901 q 21 949 0 929 q 71 968 42 968 q 121 949 100 968 q 142 901 142 929 q 121 853 142 872 q 71 833 100 833 q 21 853 42 833 q 0 901 0 872 m 0 764 q 21 813 0 793 q 71 833 42 833 q 121 813 100 833 q 142 764 142 793 q 121 715 142 735 q 71 694 100 694 q 21 715 42 694 q 0 764 0 735 m 0 625 q 21 674 0 654 q 71 694 42 694 q 119 674 99 694 q 140 625 140 654 q 119 576 140 596 q 71 556 99 556 q 21 576 42 556 q 0 625 0 596 m 0 486 q 21 535 0 514 q 71 556 42 556 q 119 535 99 556 q 140 486 140 514 q 119 436 140 457 q 71 415 99 415 q 21 436 42 415 q 0 486 0 457 m 0 344 q 21 394 0 374 q 71 415 42 415 q 121 394 100 415 q 142 344 142 374 q 121 294 142 315 q 71 274 100 274 q 21 294 42 274 q 0 344 0 315 m 0 206 q 21 253 0 233 q 71 274 42 274 q 121 253 100 274 q 142 206 142 233 q 121 156 142 176 q 71 136 100 136 q 21 156 42 136 q 0 206 0 176 m 0 68 q 21 116 0 96 q 71 136 42 136 q 119 116 99 136 q 140 68 140 96 q 119 20 140 40 q 71 0 99 0 q 21 20 42 0 q 0 68 0 40 m 418 68 q 438 115 418 96 q 488 135 458 135 q 537 115 517 135 q 557 68 557 96 q 537 19 557 39 q 488 0 517 0 q 438 19 458 0 q 418 68 418 39 m 414 206 q 435 254 414 233 q 486 275 456 275 q 536 254 515 275 q 557 206 557 233 q 536 156 557 176 q 486 135 515 135 q 435 156 456 135 q 414 206 414 176 m 414 343 q 435 391 414 371 q 488 411 457 411 q 538 391 517 411 q 560 343 560 371 q 538 295 560 315 q 488 275 517 275 q 435 295 457 275 q 414 343 414 315 m 415 483 q 436 535 415 514 q 488 556 457 556 q 539 535 518 556 q 560 483 560 514 q 539 432 560 453 q 488 411 518 411 q 436 432 457 411 q 415 483 415 453 m 276 625 q 297 673 276 653 q 346 693 317 693 q 395 673 375 693 q 415 625 415 653 q 395 576 415 596 q 346 556 375 556 q 297 576 317 556 q 276 625 276 596 m 140 624 q 160 673 140 653 q 208 693 181 693 q 256 673 236 693 q 276 624 276 653 q 256 574 276 594 q 208 554 236 554 q 160 574 181 554 q 140 624 140 594 z "},"i":{"ha":554,"x_min":0,"x_max":418,"o":"m 0 68 q 21 116 0 96 q 72 136 42 136 q 122 116 101 136 q 143 68 143 96 q 122 20 143 40 q 72 0 101 0 q 21 20 42 0 q 0 68 0 40 m 143 68 q 163 116 143 96 q 211 136 183 136 q 259 116 239 136 q 279 68 279 96 q 259 20 279 40 q 211 0 239 0 q 163 20 183 0 q 143 68 143 40 m 279 68 q 299 116 279 96 q 349 136 319 136 q 398 116 378 136 q 418 68 418 96 q 398 20 418 40 q 349 0 378 0 q 299 20 319 0 q 279 68 279 40 m 0 625 q 21 671 0 651 q 72 690 42 690 q 124 671 103 690 q 144 625 144 651 q 124 579 144 599 q 72 560 103 560 q 21 579 42 560 q 0 625 0 599 m 144 624 q 164 671 144 651 q 213 690 183 690 q 260 671 240 690 q 279 624 279 651 q 260 575 279 594 q 213 556 240 556 q 164 575 183 556 q 144 624 144 594 m 136 486 q 157 535 136 515 q 208 556 178 556 q 258 535 238 556 q 279 486 279 515 q 258 437 279 457 q 208 417 238 417 q 157 437 178 417 q 136 486 136 457 m 136 346 q 158 396 136 375 q 210 417 179 417 q 260 396 239 417 q 282 346 282 375 q 260 296 282 317 q 210 275 239 275 q 158 296 179 275 q 136 346 136 317 m 136 207 q 158 255 136 235 q 210 275 179 275 q 260 255 239 275 q 282 207 282 235 q 260 158 282 178 q 210 138 239 138 q 158 158 179 138 q 136 207 136 178 m 136 900 q 157 948 136 928 q 208 968 178 968 q 260 948 239 968 q 281 900 281 928 q 260 852 281 872 q 208 832 239 832 q 157 852 178 832 q 136 900 136 872 z "},"j":{"ha":554,"x_min":-142,"x_max":421,"o":"m 279 901 q 299 949 279 929 q 347 968 319 968 q 395 949 375 968 q 415 901 415 929 q 395 853 415 872 q 347 833 375 833 q 299 853 319 833 q 279 901 279 872 m 139 625 q 160 671 139 651 q 210 690 181 690 q 260 671 239 690 q 281 625 281 651 q 260 579 281 599 q 210 560 239 560 q 160 579 181 560 q 139 625 139 599 m 281 624 q 301 671 281 651 q 350 690 321 690 q 398 671 378 690 q 418 624 418 651 q 398 575 418 594 q 350 556 378 556 q 301 575 321 556 q 281 624 281 594 m 276 486 q 297 535 276 514 q 347 556 318 556 q 397 535 376 556 q 418 486 418 514 q 397 436 418 457 q 347 415 376 415 q 297 436 318 415 q 276 486 276 457 m 276 347 q 297 395 276 375 q 349 415 318 415 q 400 395 379 415 q 421 347 421 375 q 400 299 421 319 q 349 279 379 279 q 297 299 318 279 q 276 347 276 319 m 275 210 q 297 259 275 239 q 349 279 318 279 q 399 259 378 279 q 421 210 421 239 q 399 160 421 181 q 349 140 378 140 q 297 160 318 140 q 275 210 275 181 m 275 71 q 296 119 275 99 q 347 140 317 140 q 397 119 376 140 q 418 71 418 99 q 397 21 418 42 q 347 0 376 0 q 296 21 317 0 q 275 71 275 42 m 275 -69 q 296 -20 275 -40 q 347 0 317 0 q 399 -20 378 0 q 419 -69 419 -40 q 399 -117 419 -97 q 347 -137 378 -137 q 296 -117 317 -137 q 275 -69 275 -97 m 139 -207 q 159 -158 139 -178 q 207 -137 179 -137 q 255 -158 235 -137 q 275 -207 275 -178 q 255 -255 275 -235 q 207 -275 235 -275 q 159 -255 179 -275 q 139 -207 139 -235 m 0 -210 q 20 -162 0 -182 q 69 -143 40 -143 q 119 -162 99 -143 q 139 -210 139 -182 q 119 -256 139 -236 q 69 -275 99 -275 q 20 -256 40 -275 q 0 -210 0 -236 m -142 -72 q -121 -21 -142 -42 q -71 0 -100 0 q -21 -21 -42 0 q 0 -72 0 -42 q -21 -122 0 -101 q -71 -143 -42 -143 q -121 -122 -100 -143 q -142 -72 -142 -101 z "},"k":{"ha":694,"x_min":0,"x_max":558,"o":"m 0 900 q 21 948 0 928 q 71 968 42 968 q 121 948 100 968 q 142 900 142 928 q 121 852 142 872 q 71 832 100 832 q 21 852 42 832 q 0 900 0 872 m 0 764 q 21 812 0 792 q 71 832 42 832 q 121 812 100 832 q 142 764 142 792 q 121 715 142 735 q 71 694 100 694 q 21 715 42 694 q 0 764 0 735 m 0 626 q 21 674 0 654 q 72 694 42 694 q 122 674 101 694 q 143 626 143 654 q 122 578 143 599 q 72 558 101 558 q 21 578 42 558 q 0 626 0 599 m 0 488 q 21 538 0 517 q 72 558 42 558 q 122 538 101 558 q 143 488 143 517 q 122 436 143 457 q 72 415 101 415 q 21 436 42 415 q 0 488 0 457 m 0 347 q 20 395 0 375 q 69 415 40 415 q 119 395 99 415 q 139 347 139 375 q 119 298 139 318 q 69 278 99 278 q 20 298 40 278 q 0 347 0 318 m 139 347 q 159 395 139 375 q 208 415 179 415 q 258 395 238 415 q 278 347 278 375 q 258 298 278 318 q 208 278 238 278 q 159 298 179 278 q 139 347 139 318 m 278 485 q 299 533 278 513 q 350 553 319 553 q 401 533 381 553 q 422 485 422 513 q 401 435 422 456 q 350 415 381 415 q 299 435 319 415 q 278 485 278 456 m 422 622 q 442 670 422 650 q 490 690 463 690 q 538 670 518 690 q 558 622 558 650 q 538 573 558 593 q 490 553 518 553 q 442 573 463 553 q 422 622 422 593 m 0 68 q 21 116 0 96 q 71 136 42 136 q 121 116 100 136 q 142 68 142 96 q 121 20 142 40 q 71 0 100 0 q 21 20 42 0 q 0 68 0 40 m 0 207 q 21 255 0 235 q 71 275 42 275 q 119 255 99 275 q 140 207 140 235 q 119 158 140 178 q 71 138 99 138 q 21 158 42 138 q 0 207 0 178 m 414 69 q 435 117 414 97 q 486 138 456 138 q 538 117 517 138 q 558 69 558 97 q 538 20 558 40 q 486 0 517 0 q 435 20 456 0 q 414 69 414 40 m 278 207 q 298 255 278 235 q 346 275 318 275 q 394 255 374 275 q 414 207 414 235 q 394 158 414 178 q 346 138 374 138 q 298 158 318 138 q 278 207 278 178 z "},"l":{"ha":554,"x_min":0,"x_max":421,"o":"m 0 903 q 21 949 0 929 q 71 968 42 968 q 121 949 100 968 q 142 903 142 929 q 121 856 142 875 q 71 836 100 836 q 21 856 42 836 q 0 903 0 875 m 142 903 q 163 949 142 929 q 213 968 183 968 q 261 949 240 968 q 282 903 282 929 q 261 856 282 875 q 213 836 240 836 q 163 856 183 836 q 142 903 142 875 m 139 761 q 160 809 139 789 q 210 829 181 829 q 258 809 238 829 q 279 761 279 789 q 258 713 279 733 q 210 693 238 693 q 160 713 181 693 q 139 761 139 733 m 139 624 q 160 672 139 651 q 210 693 181 693 q 258 672 238 693 q 279 624 279 651 q 258 574 279 594 q 210 553 238 553 q 160 574 181 553 q 139 624 139 594 m 138 485 q 158 533 138 513 q 208 553 179 553 q 258 533 238 553 q 279 485 279 513 q 258 435 279 456 q 208 415 238 415 q 158 435 179 415 q 138 485 138 456 m 138 346 q 159 394 138 374 q 211 415 181 415 q 262 394 240 415 q 283 346 283 374 q 262 296 283 317 q 211 275 240 275 q 159 296 181 275 q 138 346 138 317 m 140 206 q 161 255 140 235 q 213 275 182 275 q 263 255 242 275 q 283 206 283 235 q 263 156 283 176 q 213 136 242 136 q 161 156 182 136 q 140 206 140 176 m 140 68 q 160 116 140 96 q 210 136 181 136 q 259 116 239 136 q 279 68 279 96 q 259 20 279 40 q 210 0 239 0 q 160 20 181 0 q 140 68 140 40 m 279 68 q 300 116 279 96 q 350 136 321 136 q 400 116 379 136 q 421 68 421 96 q 400 20 421 40 q 350 0 379 0 q 300 20 321 0 q 279 68 279 40 m 0 67 q 21 114 0 94 q 71 133 42 133 q 119 114 99 133 q 140 67 140 94 q 119 19 140 39 q 71 0 99 0 q 21 19 42 0 q 0 67 0 39 z "},"m":{"ha":833,"x_min":0,"x_max":699,"o":"m 0 68 q 20 116 0 96 q 69 136 40 136 q 119 116 99 136 q 139 68 139 96 q 119 20 139 40 q 69 0 99 0 q 20 20 40 0 q 0 68 0 40 m 0 206 q 20 253 0 233 q 69 274 40 274 q 119 253 99 274 q 139 206 139 233 q 119 156 139 176 q 69 136 99 136 q 20 156 40 136 q 0 206 0 176 m 0 343 q 21 391 0 371 q 72 411 42 411 q 124 391 103 411 q 144 343 144 371 q 124 294 144 314 q 72 274 103 274 q 21 294 42 274 q 0 343 0 314 m 0 482 q 21 532 0 511 q 72 553 42 553 q 124 532 103 553 q 144 482 144 511 q 124 432 144 453 q 72 411 103 411 q 21 432 42 411 q 0 482 0 453 m 0 622 q 21 670 0 650 q 71 690 42 690 q 119 670 99 690 q 140 622 140 650 q 119 573 140 593 q 71 553 99 553 q 21 573 42 553 q 0 622 0 593 m 140 625 q 161 671 140 651 q 211 690 182 690 q 260 671 239 690 q 281 625 281 651 q 260 578 281 597 q 211 558 239 558 q 161 578 182 558 q 140 625 140 597 m 281 488 q 301 538 281 517 q 350 558 321 558 q 399 538 379 558 q 419 488 419 517 q 399 438 419 458 q 350 417 379 417 q 301 438 321 417 q 281 488 281 458 m 276 347 q 297 397 276 376 q 349 417 318 417 q 399 397 378 417 q 419 347 419 376 q 399 298 419 318 q 349 278 378 278 q 297 298 318 278 q 276 347 276 318 m 276 210 q 297 258 276 238 q 349 278 318 278 q 399 258 378 278 q 419 210 419 238 q 399 160 419 181 q 349 140 378 140 q 297 160 318 140 q 276 210 276 181 m 276 71 q 297 119 276 99 q 349 140 318 140 q 399 119 378 140 q 419 71 419 99 q 399 21 419 42 q 349 0 378 0 q 297 21 318 0 q 276 71 276 42 m 553 68 q 574 116 553 96 q 626 136 596 136 q 677 116 656 136 q 699 68 699 96 q 677 20 699 40 q 626 0 656 0 q 574 20 596 0 q 553 68 553 40 m 554 207 q 575 256 554 235 q 626 276 596 276 q 678 256 657 276 q 699 207 699 235 q 678 157 699 178 q 626 136 657 136 q 575 157 596 136 q 554 207 554 178 m 554 344 q 575 392 554 372 q 626 413 596 413 q 678 392 657 413 q 699 344 699 372 q 678 297 699 317 q 626 276 657 276 q 575 297 596 276 q 554 344 554 317 m 556 483 q 576 533 556 513 q 628 554 597 554 q 678 533 657 554 q 699 483 699 513 q 678 433 699 454 q 628 413 657 413 q 576 433 597 413 q 556 483 556 454 m 418 622 q 438 670 418 650 q 488 690 458 690 q 535 670 515 690 q 556 622 556 650 q 535 574 556 594 q 488 554 515 554 q 438 574 458 554 q 418 622 418 594 z "},"n":{"ha":694,"x_min":0,"x_max":560,"o":"m 0 67 q 21 114 0 94 q 72 133 42 133 q 122 114 101 133 q 143 67 143 94 q 122 19 143 39 q 72 0 101 0 q 21 19 42 0 q 0 67 0 39 m 0 204 q 21 253 0 232 q 72 274 42 274 q 122 253 101 274 q 143 204 143 232 q 122 154 143 175 q 72 133 101 133 q 21 154 42 133 q 0 204 0 175 m 0 344 q 21 393 0 372 q 71 414 42 414 q 119 393 99 414 q 140 344 140 372 q 119 294 140 315 q 71 274 99 274 q 21 294 42 274 q 0 344 0 315 m 0 482 q 21 530 0 510 q 71 550 42 550 q 119 530 99 550 q 140 482 140 510 q 119 434 140 454 q 71 414 99 414 q 21 434 42 414 q 0 482 0 454 m 0 621 q 21 671 0 650 q 71 692 42 692 q 119 671 99 692 q 140 621 140 650 q 119 571 140 592 q 71 550 99 550 q 21 571 42 550 q 0 621 0 592 m 142 624 q 162 672 142 651 q 210 692 182 692 q 258 672 238 692 q 278 624 278 651 q 258 574 278 594 q 210 554 238 554 q 162 574 182 554 q 142 624 142 594 m 278 622 q 299 669 278 650 q 349 689 319 689 q 397 669 376 689 q 418 622 418 650 q 397 574 418 593 q 349 554 376 554 q 299 574 319 554 q 278 622 278 593 m 418 485 q 439 533 418 513 q 489 553 460 553 q 539 533 518 553 q 560 485 560 513 q 539 437 560 457 q 489 417 518 417 q 439 437 460 417 q 418 485 418 457 m 414 347 q 435 396 414 375 q 488 417 457 417 q 538 396 517 417 q 560 347 560 375 q 538 297 560 318 q 488 276 517 276 q 435 297 457 276 q 414 347 414 318 m 414 207 q 435 256 414 236 q 486 276 456 276 q 536 256 515 276 q 557 207 557 236 q 536 158 557 178 q 486 138 515 138 q 435 158 456 138 q 414 207 414 178 m 418 69 q 438 117 418 97 q 488 138 458 138 q 537 117 517 138 q 557 69 557 97 q 537 20 557 40 q 488 0 517 0 q 438 20 458 0 q 418 69 418 40 z "},"o":{"ha":694,"x_min":0,"x_max":558,"o":"m 0 482 q 21 528 0 508 q 71 547 42 547 q 121 528 100 547 q 142 482 142 508 q 121 436 142 456 q 71 417 100 417 q 21 436 42 417 q 0 482 0 456 m 0 347 q 21 396 0 375 q 71 417 42 417 q 121 396 100 417 q 142 347 142 375 q 121 297 142 318 q 71 276 100 276 q 21 297 42 276 q 0 347 0 318 m 0 208 q 21 256 0 236 q 71 276 42 276 q 121 256 100 276 q 142 208 142 236 q 121 159 142 179 q 71 139 100 139 q 21 159 42 139 q 0 208 0 179 m 142 69 q 162 119 142 99 q 211 139 182 139 q 259 119 239 139 q 279 69 279 99 q 259 20 279 40 q 211 0 239 0 q 162 20 182 0 q 142 69 142 40 m 279 68 q 300 116 279 96 q 350 136 321 136 q 399 116 378 136 q 419 68 419 96 q 399 20 419 40 q 350 0 378 0 q 300 20 321 0 q 279 68 279 40 m 419 206 q 440 253 419 233 q 489 274 460 274 q 538 253 518 274 q 558 206 558 233 q 538 156 558 176 q 489 136 518 136 q 440 156 460 136 q 419 206 419 176 m 415 343 q 436 392 415 372 q 488 413 457 413 q 538 392 517 413 q 558 343 558 372 q 538 294 558 314 q 488 274 517 274 q 436 294 457 274 q 415 343 415 314 m 415 483 q 436 532 415 511 q 488 553 457 553 q 538 532 517 553 q 558 483 558 511 q 538 433 558 454 q 488 413 517 413 q 436 433 457 413 q 415 483 415 454 m 278 626 q 299 672 278 653 q 349 692 319 692 q 399 672 378 692 q 419 626 419 653 q 399 579 419 599 q 349 560 378 560 q 299 579 319 560 q 278 626 278 599 m 138 624 q 158 672 138 651 q 208 692 179 692 q 257 672 236 692 q 278 624 278 651 q 257 574 278 594 q 208 554 236 554 q 158 574 179 554 q 138 624 138 594 z "},"p":{"ha":694,"x_min":0,"x_max":558,"o":"m 0 -208 q 21 -161 0 -181 q 71 -142 42 -142 q 121 -161 100 -142 q 142 -208 142 -181 q 121 -256 142 -236 q 71 -275 100 -275 q 21 -256 42 -275 q 0 -208 0 -236 m 0 -71 q 21 -21 0 -42 q 71 0 42 0 q 121 -21 100 0 q 142 -71 142 -42 q 121 -121 142 -100 q 71 -142 100 -142 q 21 -121 42 -142 q 0 -71 0 -100 m 0 69 q 21 119 0 99 q 72 139 42 139 q 124 119 103 139 q 144 69 144 99 q 124 20 144 40 q 72 0 103 0 q 21 20 42 0 q 0 69 0 40 m 0 207 q 21 254 0 235 q 72 274 42 274 q 124 254 103 274 q 144 207 144 235 q 124 158 144 178 q 72 139 103 139 q 21 158 42 139 q 0 207 0 178 m 0 343 q 21 391 0 371 q 71 411 42 411 q 119 391 99 411 q 140 343 140 371 q 119 294 140 314 q 71 274 99 274 q 21 294 42 274 q 0 343 0 314 m 0 482 q 21 532 0 511 q 71 553 42 553 q 119 532 99 553 q 140 482 140 511 q 119 432 140 453 q 71 411 99 411 q 21 432 42 411 q 0 482 0 453 m 0 622 q 21 672 0 651 q 72 692 42 692 q 122 672 101 692 q 143 622 143 651 q 122 573 143 593 q 72 553 101 553 q 21 573 42 553 q 0 622 0 593 m 143 624 q 163 672 143 651 q 211 692 183 692 q 259 672 239 692 q 279 624 279 651 q 259 576 279 596 q 211 556 239 556 q 163 576 183 556 q 143 624 143 596 m 279 624 q 300 672 279 651 q 350 692 321 692 q 400 672 379 692 q 421 624 421 651 q 400 576 421 596 q 350 556 379 556 q 300 576 321 556 q 279 624 279 596 m 422 488 q 442 538 422 517 q 490 558 461 558 q 538 538 518 558 q 557 488 557 517 q 538 436 557 457 q 490 415 518 415 q 442 436 461 415 q 422 488 422 457 m 415 346 q 436 394 415 374 q 486 415 457 415 q 536 394 515 415 q 557 346 557 374 q 536 296 557 317 q 486 275 515 275 q 436 296 457 275 q 415 346 415 317 m 415 207 q 436 255 415 235 q 488 275 457 275 q 538 255 517 275 q 558 207 558 235 q 538 158 558 178 q 488 138 517 138 q 436 158 457 138 q 415 207 415 178 m 275 68 q 297 116 275 96 q 349 136 318 136 q 401 116 379 136 q 422 68 422 96 q 401 20 422 40 q 349 0 379 0 q 297 20 318 0 q 275 68 275 40 m 146 68 q 165 116 146 96 q 211 136 183 136 q 256 116 238 136 q 275 68 275 96 q 256 20 275 40 q 211 0 238 0 q 165 20 183 0 q 146 68 146 40 z "},"q":{"ha":694,"x_min":0,"x_max":558,"o":"m 558 -208 q 538 -161 558 -181 q 488 -142 517 -142 q 438 -161 458 -142 q 417 -208 417 -181 q 438 -256 417 -236 q 488 -275 458 -275 q 538 -256 517 -275 q 558 -208 558 -236 m 558 -71 q 538 -21 558 -42 q 488 0 517 0 q 438 -21 458 0 q 417 -71 417 -42 q 438 -121 417 -100 q 488 -142 458 -142 q 538 -121 517 -142 q 558 -71 558 -100 m 558 69 q 538 119 558 99 q 486 139 517 139 q 435 119 456 139 q 414 69 414 99 q 435 20 414 40 q 486 0 456 0 q 538 20 517 0 q 558 69 558 40 m 558 207 q 538 254 558 235 q 486 274 517 274 q 435 254 456 274 q 414 207 414 235 q 435 158 414 178 q 486 139 456 139 q 538 158 517 139 q 558 207 558 178 m 558 343 q 538 391 558 371 q 489 411 517 411 q 439 391 460 411 q 418 343 418 371 q 439 294 418 314 q 489 274 460 274 q 538 294 517 274 q 558 343 558 314 m 558 482 q 538 532 558 511 q 489 553 517 553 q 439 532 460 553 q 418 482 418 511 q 439 432 418 453 q 489 411 460 411 q 538 432 517 411 q 558 482 558 453 m 558 622 q 538 672 558 651 q 488 692 517 692 q 436 672 457 692 q 415 622 415 651 q 436 573 415 593 q 488 553 457 553 q 538 573 517 553 q 558 622 558 593 m 415 624 q 395 672 415 651 q 347 692 375 692 q 299 672 319 692 q 279 624 279 651 q 299 576 279 596 q 347 556 319 556 q 395 576 375 556 q 415 624 415 596 m 279 624 q 258 672 279 651 q 208 692 238 692 q 158 672 179 692 q 138 624 138 651 q 158 576 138 596 q 208 556 179 556 q 258 576 238 556 q 279 624 279 596 m 136 488 q 117 538 136 517 q 69 558 97 558 q 21 538 40 558 q 1 488 1 517 q 21 436 1 457 q 69 415 40 415 q 117 436 97 415 q 136 488 136 457 m 143 346 q 122 394 143 374 q 72 415 101 415 q 22 394 43 415 q 1 346 1 374 q 22 296 1 317 q 72 275 43 275 q 122 296 101 275 q 143 346 143 317 m 143 207 q 122 255 143 235 q 72 275 101 275 q 21 255 42 275 q 0 207 0 235 q 21 158 0 178 q 72 138 42 138 q 122 158 101 138 q 143 207 143 178 m 283 68 q 262 116 283 96 q 210 136 240 136 q 158 116 179 136 q 136 68 136 96 q 158 20 136 40 q 210 0 179 0 q 262 20 240 0 q 283 68 283 40 m 413 68 q 394 116 413 96 q 349 136 375 136 q 302 116 321 136 q 283 68 283 96 q 302 20 283 40 q 349 0 321 0 q 394 20 375 0 q 413 68 413 40 z "},"r":{"ha":694,"x_min":0,"x_max":553,"o":"m 0 69 q 20 119 0 99 q 69 139 40 139 q 119 119 99 139 q 139 69 139 99 q 119 20 139 40 q 69 0 99 0 q 20 20 40 0 q 0 69 0 40 m 0 207 q 20 255 0 235 q 69 275 40 275 q 119 255 99 275 q 139 207 139 235 q 119 159 139 179 q 69 139 99 139 q 20 159 40 139 q 0 207 0 179 m 0 343 q 21 390 0 371 q 72 410 42 410 q 124 390 103 410 q 144 343 144 371 q 124 294 144 314 q 72 275 103 275 q 21 294 42 275 q 0 343 0 314 m 0 481 q 21 531 0 510 q 72 551 42 551 q 124 531 103 551 q 144 481 144 510 q 124 431 144 451 q 72 410 103 410 q 21 431 42 410 q 0 481 0 451 m 0 622 q 21 671 0 650 q 71 692 42 692 q 121 671 100 692 q 142 622 142 650 q 121 572 142 593 q 71 551 100 551 q 21 572 42 551 q 0 622 0 593 m 418 625 q 438 671 418 651 q 486 690 457 690 q 533 671 514 690 q 553 625 553 651 q 533 578 553 597 q 486 558 514 558 q 438 578 457 558 q 418 625 418 597 m 278 624 q 299 671 278 651 q 349 690 319 690 q 399 671 378 690 q 419 624 419 651 q 399 575 419 594 q 349 556 378 556 q 299 575 319 556 q 278 624 278 594 m 144 485 q 164 535 144 514 q 211 556 183 556 q 258 535 239 556 q 278 485 278 514 q 258 435 278 456 q 211 414 239 414 q 164 435 183 414 q 144 485 144 456 z "},"s":{"ha":694,"x_min":0,"x_max":561,"o":"m 0 69 q 21 117 0 97 q 71 138 42 138 q 119 117 99 138 q 140 69 140 97 q 119 20 140 40 q 71 0 99 0 q 21 20 42 0 q 0 69 0 40 m 140 69 q 161 117 140 97 q 211 138 182 138 q 261 117 240 138 q 282 69 282 97 q 261 20 282 40 q 211 0 240 0 q 161 20 182 0 q 140 69 140 40 m 282 67 q 302 114 282 94 q 351 133 322 133 q 401 114 381 133 q 421 67 421 94 q 401 19 421 39 q 351 0 381 0 q 302 19 322 0 q 282 67 282 39 m 421 206 q 442 256 421 235 q 492 276 463 276 q 540 256 519 276 q 561 206 561 235 q 540 154 561 175 q 492 133 519 133 q 442 154 463 133 q 421 206 421 175 m 275 346 q 296 394 275 374 q 346 414 317 414 q 394 394 374 414 q 415 346 415 374 q 394 297 415 317 q 346 276 374 276 q 296 297 317 276 q 275 346 275 317 m 138 346 q 158 394 138 374 q 207 414 178 414 q 255 394 235 414 q 275 346 275 374 q 255 297 275 317 q 207 276 235 276 q 158 297 178 276 q 138 346 138 317 m 0 483 q 19 531 0 511 q 67 551 39 551 q 114 531 94 551 q 133 483 133 511 q 114 434 133 454 q 67 414 94 414 q 19 434 39 414 q 0 483 0 454 m 128 619 q 149 669 128 649 q 200 689 169 689 q 251 669 231 689 q 272 619 272 649 q 251 570 272 590 q 200 550 231 550 q 149 570 169 550 q 128 619 128 590 m 272 621 q 293 669 272 649 q 344 689 314 689 q 394 669 374 689 q 415 621 415 649 q 394 573 415 593 q 344 553 374 553 q 293 573 314 553 q 272 621 272 593 m 414 621 q 435 669 414 649 q 488 689 457 689 q 540 669 518 689 q 561 621 561 649 q 540 573 561 593 q 488 553 518 553 q 435 573 457 553 q 414 621 414 593 z "},"t":{"ha":554,"x_min":0,"x_max":421,"o":"m 138 900 q 158 948 138 928 q 210 968 179 968 q 260 948 239 968 q 281 900 281 928 q 260 852 281 872 q 210 832 239 832 q 158 852 179 832 q 138 900 138 872 m 138 763 q 158 812 138 792 q 210 832 179 832 q 260 812 239 832 q 281 763 281 792 q 260 713 281 733 q 210 693 239 693 q 158 713 179 693 q 138 763 138 733 m 138 625 q 158 673 138 653 q 210 693 179 693 q 261 673 240 693 q 282 625 282 653 q 261 576 282 596 q 210 556 240 556 q 158 576 179 556 q 138 625 138 596 m 138 486 q 158 535 138 514 q 210 556 179 556 q 261 535 240 556 q 282 486 282 514 q 261 436 282 457 q 210 415 240 415 q 158 436 179 415 q 138 486 138 457 m 0 485 q 20 533 0 513 q 69 553 40 553 q 117 533 97 553 q 138 485 138 513 q 117 435 138 456 q 69 415 97 415 q 20 435 40 415 q 0 485 0 456 m 278 68 q 299 116 278 96 q 349 136 319 136 q 397 116 376 136 q 418 68 418 96 q 397 20 418 40 q 349 0 376 0 q 299 20 319 0 q 278 68 278 40 m 138 206 q 158 255 138 235 q 208 275 179 275 q 257 255 236 275 q 278 206 278 235 q 257 156 278 176 q 208 136 236 136 q 158 156 179 136 q 138 206 138 176 m 138 344 q 158 392 138 372 q 210 413 179 413 q 261 392 240 413 q 282 344 282 372 q 261 295 282 315 q 210 275 240 275 q 158 295 179 275 q 138 344 138 315 m 282 481 q 302 528 282 508 q 351 549 322 549 q 401 528 381 549 q 421 481 421 508 q 401 433 421 453 q 351 413 381 413 q 302 433 322 413 q 282 481 282 453 z "},"u":{"ha":694,"x_min":0,"x_max":558,"o":"m 0 621 q 20 668 0 649 q 69 688 40 688 q 119 668 99 688 q 139 621 139 649 q 119 572 139 592 q 69 553 99 553 q 20 572 40 553 q 0 621 0 592 m 0 485 q 21 533 0 513 q 71 553 42 553 q 119 533 99 553 q 140 485 140 513 q 119 437 140 457 q 71 417 99 417 q 21 437 42 417 q 0 485 0 457 m 0 346 q 21 396 0 375 q 71 417 42 417 q 119 396 99 417 q 140 346 140 375 q 119 296 140 317 q 71 275 99 275 q 21 296 42 275 q 0 346 0 317 m 0 207 q 21 255 0 235 q 71 275 42 275 q 119 255 99 275 q 140 207 140 235 q 119 159 140 179 q 71 139 99 139 q 21 159 42 139 q 0 207 0 179 m 140 69 q 160 119 140 99 q 210 139 181 139 q 259 119 239 139 q 279 69 279 99 q 259 20 279 40 q 210 0 239 0 q 160 20 181 0 q 140 69 140 40 m 279 68 q 299 116 279 96 q 347 136 318 136 q 394 116 375 136 q 414 68 414 96 q 394 20 414 40 q 347 0 375 0 q 299 20 318 0 q 279 68 279 40 m 418 69 q 438 117 418 97 q 486 138 457 138 q 533 117 514 138 q 553 69 553 97 q 533 20 553 40 q 486 0 514 0 q 438 20 457 0 q 418 69 418 40 m 418 207 q 439 255 418 235 q 489 275 460 275 q 538 255 517 275 q 558 207 558 235 q 538 158 558 178 q 489 138 517 138 q 439 158 460 138 q 418 207 418 178 m 414 343 q 435 391 414 371 q 486 411 456 411 q 538 391 517 411 q 558 343 558 371 q 538 295 558 315 q 486 275 517 275 q 435 295 456 275 q 414 343 414 315 m 414 482 q 435 531 414 510 q 486 551 456 551 q 538 531 517 551 q 558 482 558 510 q 538 432 558 453 q 486 411 517 411 q 435 432 456 411 q 414 482 414 453 m 414 621 q 435 670 414 650 q 486 690 456 690 q 538 670 517 690 q 558 621 558 650 q 538 572 558 592 q 486 551 517 551 q 435 572 456 551 q 414 621 414 592 z "},"v":{"ha":838,"x_min":0,"x_max":699,"o":"m 0 621 q 21 668 0 649 q 71 688 42 688 q 121 668 100 688 q 142 621 142 649 q 121 572 142 592 q 71 553 100 553 q 21 572 42 553 q 0 621 0 592 m 0 485 q 21 533 0 513 q 71 553 42 553 q 121 533 100 553 q 142 485 142 513 q 121 437 142 457 q 71 417 100 417 q 21 437 42 417 q 0 485 0 457 m 0 347 q 21 396 0 375 q 71 417 42 417 q 119 396 99 417 q 140 347 140 375 q 119 297 140 318 q 71 276 99 276 q 21 297 42 276 q 0 347 0 318 m 140 208 q 161 256 140 236 q 211 276 182 276 q 260 256 239 276 q 281 208 281 236 q 260 160 281 181 q 211 140 239 140 q 161 160 182 140 q 140 208 140 181 m 281 71 q 301 119 281 99 q 350 140 321 140 q 398 119 378 140 q 418 71 418 99 q 398 21 418 42 q 350 0 378 0 q 301 21 321 0 q 281 71 281 42 m 415 204 q 437 256 415 235 q 489 276 458 276 q 540 256 518 276 q 561 204 561 235 q 540 153 561 174 q 489 132 518 132 q 437 153 458 132 q 415 204 415 174 m 561 346 q 581 394 561 374 q 631 414 601 414 q 678 394 658 414 q 699 346 699 374 q 678 297 699 317 q 631 276 658 276 q 581 297 601 276 q 561 346 561 317 m 557 483 q 578 531 557 511 q 628 551 599 551 q 678 531 657 551 q 699 483 699 511 q 678 434 699 454 q 628 414 657 414 q 578 434 599 414 q 557 483 557 454 m 557 619 q 577 667 557 647 q 626 688 597 688 q 676 667 656 688 q 696 619 696 647 q 676 572 696 592 q 626 551 656 551 q 577 572 597 551 q 557 619 557 592 z "},"w":{"ha":833,"x_min":0,"x_max":699,"o":"m 0 619 q 21 665 0 646 q 71 685 42 685 q 119 665 99 685 q 140 619 140 646 q 119 572 140 592 q 71 553 99 553 q 21 572 42 553 q 0 619 0 592 m 0 486 q 21 533 0 514 q 72 553 42 553 q 122 533 101 553 q 143 486 143 514 q 122 438 143 457 q 72 418 101 418 q 21 438 42 418 q 0 486 0 457 m 0 347 q 21 397 0 376 q 72 418 42 418 q 122 397 101 418 q 143 347 143 376 q 122 297 143 318 q 72 276 101 276 q 21 297 42 276 q 0 347 0 318 m 0 207 q 20 256 0 235 q 68 276 40 276 q 116 256 96 276 q 136 207 136 235 q 116 157 136 178 q 68 136 96 136 q 20 157 40 136 q 0 207 0 178 m 0 68 q 20 116 0 96 q 68 136 40 136 q 116 116 96 136 q 136 68 136 96 q 116 20 136 40 q 68 0 96 0 q 20 20 40 0 q 0 68 0 40 m 278 347 q 299 395 278 375 q 349 415 319 415 q 397 395 376 415 q 418 347 418 375 q 397 298 418 318 q 349 278 376 278 q 299 298 319 278 q 278 347 278 318 m 140 207 q 160 257 140 236 q 210 278 181 278 q 258 257 238 278 q 278 207 278 236 q 258 157 278 178 q 210 136 238 136 q 160 157 181 136 q 140 207 140 178 m 413 208 q 433 258 413 238 q 485 279 454 279 q 536 258 515 279 q 557 208 557 238 q 536 158 557 179 q 485 138 515 138 q 433 158 454 138 q 413 208 413 179 m 557 69 q 577 117 557 97 q 626 138 597 138 q 676 117 656 138 q 696 69 696 97 q 676 20 696 40 q 626 0 656 0 q 577 20 597 0 q 557 69 557 40 m 553 624 q 574 671 553 651 q 626 690 596 690 q 677 671 656 690 q 699 624 699 651 q 677 575 699 594 q 626 556 656 556 q 574 575 596 556 q 553 624 553 594 m 554 486 q 575 535 554 515 q 626 556 596 556 q 678 535 657 556 q 699 486 699 515 q 678 437 699 457 q 626 417 657 417 q 575 437 596 417 q 554 486 554 457 m 554 347 q 575 397 554 376 q 626 417 596 417 q 676 397 656 417 q 697 347 697 376 q 676 298 697 318 q 626 278 656 278 q 575 298 596 278 q 554 347 554 318 m 558 208 q 578 258 558 238 q 628 278 599 278 q 677 258 657 278 q 697 208 697 238 q 677 159 697 179 q 628 139 657 139 q 578 159 599 139 q 558 208 558 179 z "},"x":{"ha":833,"x_min":0,"x_max":699,"o":"m 0 69 q 21 114 0 96 q 71 132 42 132 q 119 114 99 132 q 140 69 140 96 q 119 25 140 43 q 71 7 99 7 q 21 25 42 7 q 0 69 0 43 m 140 204 q 161 254 140 233 q 211 275 182 275 q 260 254 239 275 q 281 204 281 233 q 260 153 281 174 q 211 132 239 132 q 161 153 182 132 q 140 204 140 174 m 281 346 q 301 394 281 374 q 351 415 322 415 q 400 394 379 415 q 421 346 421 374 q 400 296 421 317 q 351 275 379 275 q 301 296 322 275 q 281 346 281 317 m 421 486 q 441 535 421 514 q 490 556 461 556 q 540 535 519 556 q 560 486 560 514 q 540 436 560 457 q 490 415 519 415 q 441 436 461 415 q 421 486 421 457 m 560 624 q 580 671 560 651 q 628 690 600 690 q 676 671 656 690 q 696 624 696 651 q 676 575 696 594 q 628 556 656 556 q 580 575 600 556 q 560 624 560 594 m 0 622 q 21 668 0 649 q 71 688 42 688 q 119 668 99 688 q 140 622 140 649 q 119 575 140 594 q 71 556 99 556 q 21 575 42 556 q 0 622 0 594 m 142 486 q 163 534 142 514 q 213 554 183 554 q 261 534 240 554 q 282 486 282 514 q 261 438 282 458 q 213 418 240 418 q 163 438 183 418 q 142 486 142 458 m 415 210 q 436 258 415 238 q 488 278 457 278 q 538 258 517 278 q 558 210 558 238 q 538 162 558 182 q 488 142 517 142 q 436 162 457 142 q 415 210 415 182 m 558 71 q 579 121 558 100 q 629 142 600 142 q 678 121 657 142 q 699 71 699 100 q 678 21 699 42 q 629 0 657 0 q 579 21 600 0 q 558 71 558 42 z "},"y":{"ha":694,"x_min":0,"x_max":560,"o":"m 0 622 q 21 669 0 650 q 71 689 42 689 q 119 669 99 689 q 140 622 140 650 q 119 574 140 593 q 71 554 99 554 q 21 574 42 554 q 0 622 0 593 m 0 485 q 21 534 0 514 q 71 554 42 554 q 119 534 99 554 q 140 485 140 514 q 119 435 140 456 q 71 415 99 415 q 21 435 42 415 q 0 485 0 456 m 0 347 q 21 395 0 375 q 72 415 42 415 q 122 395 101 415 q 143 347 143 375 q 122 298 143 318 q 72 278 101 278 q 21 298 42 278 q 0 347 0 318 m 0 208 q 21 257 0 236 q 72 278 42 278 q 122 257 101 278 q 143 208 143 236 q 122 158 143 179 q 72 138 101 138 q 21 158 42 138 q 0 208 0 179 m 0 -208 q 21 -161 0 -181 q 71 -142 42 -142 q 119 -161 99 -142 q 140 -208 140 -181 q 119 -256 140 -236 q 71 -275 99 -275 q 21 -256 42 -275 q 0 -208 0 -236 m 140 -208 q 161 -161 140 -181 q 211 -142 182 -142 q 261 -161 240 -142 q 282 -208 282 -181 q 261 -256 282 -236 q 211 -275 240 -275 q 161 -256 182 -275 q 140 -208 140 -236 m 282 -208 q 302 -161 282 -181 q 351 -142 322 -142 q 399 -161 379 -142 q 419 -208 419 -181 q 399 -256 419 -236 q 351 -275 379 -275 q 302 -256 322 -275 q 282 -208 282 -236 m 419 -71 q 440 -21 419 -42 q 490 0 461 0 q 539 -21 518 0 q 560 -71 560 -42 q 539 -121 560 -100 q 490 -142 518 -142 q 440 -121 461 -142 q 419 -71 419 -100 m 415 68 q 436 116 415 96 q 488 136 457 136 q 539 116 518 136 q 560 68 560 96 q 539 20 560 40 q 488 0 518 0 q 436 20 457 0 q 415 68 415 40 m 415 206 q 436 253 415 233 q 488 274 457 274 q 539 253 518 274 q 560 206 560 233 q 539 156 560 176 q 488 136 518 136 q 436 156 457 136 q 415 206 415 176 m 418 344 q 439 393 418 372 q 489 414 460 414 q 539 393 518 414 q 560 344 560 372 q 539 294 560 315 q 489 274 518 274 q 439 294 460 274 q 418 344 418 315 m 418 482 q 439 529 418 510 q 489 549 460 549 q 538 529 517 549 q 558 482 558 510 q 538 433 558 453 q 489 414 517 414 q 439 433 460 414 q 418 482 418 453 m 414 621 q 435 671 414 650 q 486 692 456 692 q 538 671 517 692 q 558 621 558 650 q 538 569 558 590 q 486 549 517 549 q 435 569 456 549 q 414 621 414 590 m 138 67 q 158 114 138 94 q 210 133 179 133 q 260 114 239 133 q 281 67 281 94 q 260 19 281 39 q 210 0 239 0 q 158 19 179 0 q 138 67 138 39 m 281 67 q 301 114 281 94 q 350 133 321 133 q 398 114 378 133 q 418 67 418 94 q 398 19 418 39 q 350 0 378 0 q 301 19 321 0 q 281 67 281 39 z "},"z":{"ha":554,"x_min":0,"x_max":419,"o":"m 278 67 q 299 113 278 93 q 349 132 319 132 q 397 113 376 132 q 418 67 418 93 q 397 19 418 39 q 349 0 376 0 q 299 19 319 0 q 278 67 278 39 m 140 67 q 160 113 140 93 q 210 132 181 132 q 258 113 238 132 q 278 67 278 93 q 258 19 278 39 q 210 0 238 0 q 160 19 181 0 q 140 67 140 39 m 0 65 q 21 111 0 92 q 71 131 42 131 q 119 111 99 131 q 140 65 140 92 q 119 19 140 39 q 71 0 99 0 q 21 19 42 0 q 0 65 0 39 m 0 203 q 20 254 0 233 q 68 275 40 275 q 116 254 96 275 q 136 203 136 233 q 116 151 136 172 q 68 131 96 131 q 20 151 40 131 q 0 203 0 172 m 136 343 q 157 391 136 371 q 208 411 178 411 q 258 391 238 411 q 279 343 279 371 q 258 295 279 315 q 208 275 238 275 q 157 295 178 275 q 136 343 136 315 m 279 481 q 300 528 279 508 q 350 549 321 549 q 399 528 378 549 q 419 481 419 508 q 399 431 419 451 q 350 411 378 411 q 300 431 321 411 q 279 481 279 451 m 279 619 q 300 668 279 647 q 350 689 321 689 q 399 668 378 689 q 419 619 419 647 q 399 569 419 590 q 350 549 378 549 q 300 569 321 549 q 279 619 279 590 m 142 622 q 162 669 142 650 q 211 689 182 689 q 259 669 239 689 q 279 622 279 650 q 259 574 279 593 q 211 554 239 554 q 162 574 182 554 q 142 622 142 593 m 0 622 q 21 670 0 650 q 71 690 42 690 q 121 670 100 690 q 142 622 142 650 q 121 574 142 594 q 71 554 100 554 q 21 574 42 554 q 0 622 0 594 z "},"{":{"ha":554,"x_min":0,"x_max":421,"o":"m 276 901 q 297 949 276 929 q 349 968 318 968 q 399 949 378 968 q 419 901 419 929 q 399 853 419 872 q 349 833 378 833 q 297 853 318 833 q 276 901 276 872 m 138 765 q 158 813 138 793 q 207 833 178 833 q 256 813 236 833 q 276 765 276 793 q 256 716 276 736 q 207 696 236 696 q 158 716 178 696 q 138 765 138 736 m 138 628 q 158 676 138 656 q 210 696 179 696 q 260 676 239 696 q 281 628 281 656 q 260 578 281 599 q 210 558 239 558 q 158 578 179 558 q 138 628 138 599 m 0 488 q 21 535 0 515 q 71 554 42 554 q 121 535 100 554 q 142 488 142 515 q 121 439 142 458 q 71 419 100 419 q 21 439 42 419 q 0 488 0 458 m 140 349 q 161 399 140 378 q 211 419 182 419 q 260 399 239 419 q 281 349 281 378 q 260 297 281 318 q 211 276 239 276 q 161 297 182 276 q 140 349 140 318 m 139 208 q 160 256 139 236 q 210 276 181 276 q 260 256 239 276 q 281 208 281 236 q 260 159 281 179 q 210 139 239 139 q 160 159 181 139 q 139 208 139 179 m 279 71 q 300 119 279 99 q 350 140 321 140 q 400 119 379 140 q 421 71 421 99 q 400 21 421 42 q 350 0 379 0 q 300 21 321 0 q 279 71 279 42 z "},"|":{"ha":275,"x_min":0,"x_max":143,"o":"m 0 900 q 21 948 0 928 q 72 968 42 968 q 122 948 101 968 q 143 900 143 928 q 122 852 143 872 q 72 832 101 832 q 21 852 42 832 q 0 900 0 872 m 0 764 q 21 812 0 792 q 72 832 42 832 q 122 812 101 832 q 143 764 143 792 q 122 715 143 735 q 72 694 101 694 q 21 715 42 694 q 0 764 0 735 m 0 624 q 21 674 0 653 q 71 694 42 694 q 119 674 99 694 q 140 624 140 653 q 119 574 140 594 q 71 553 99 553 q 21 574 42 553 q 0 624 0 594 m 0 485 q 21 533 0 513 q 71 553 42 553 q 119 533 99 553 q 140 485 140 513 q 119 435 140 456 q 71 415 99 415 q 21 435 42 415 q 0 485 0 456 m 0 346 q 21 394 0 374 q 71 415 42 415 q 121 394 100 415 q 142 346 142 374 q 121 296 142 317 q 71 275 100 275 q 21 296 42 275 q 0 346 0 317 m 0 207 q 21 255 0 235 q 71 275 42 275 q 121 255 100 275 q 142 207 142 235 q 121 158 142 178 q 71 138 100 138 q 21 158 42 138 q 0 207 0 178 m 0 69 q 21 117 0 97 q 71 138 42 138 q 121 117 100 138 q 142 69 142 97 q 121 20 142 40 q 71 0 100 0 q 21 20 42 0 q 0 69 0 40 z "},"}":{"ha":554,"x_min":0,"x_max":419,"o":"m 0 901 q 21 949 0 929 q 71 968 42 968 q 121 949 100 968 q 142 901 142 929 q 121 853 142 872 q 71 833 100 833 q 21 853 42 833 q 0 901 0 872 m 142 764 q 162 813 142 793 q 211 833 182 833 q 260 813 240 833 q 281 764 281 793 q 260 715 281 735 q 211 694 240 694 q 162 715 182 694 q 142 764 142 735 m 139 624 q 160 674 139 653 q 210 694 181 694 q 260 674 239 694 q 281 624 281 653 q 260 572 281 593 q 210 551 239 551 q 160 572 181 551 q 139 624 139 593 m 279 486 q 300 535 279 514 q 350 556 321 556 q 399 535 378 556 q 419 486 419 514 q 399 436 419 457 q 350 415 378 415 q 300 436 321 415 q 279 486 279 457 m 138 347 q 158 397 138 376 q 208 418 179 418 q 258 397 238 418 q 279 347 279 376 q 258 297 279 318 q 208 276 238 276 q 158 297 179 276 q 138 347 138 318 m 138 208 q 158 256 138 236 q 210 276 179 276 q 260 256 239 276 q 281 208 281 236 q 260 160 281 181 q 210 140 239 140 q 158 160 179 140 q 138 208 138 181 m 0 68 q 21 116 0 96 q 71 136 42 136 q 121 116 100 136 q 142 68 142 96 q 121 20 142 40 q 71 0 100 0 q 21 20 42 0 q 0 68 0 40 z "},"~":{"ha":694,"x_min":0,"x_max":561,"o":"m 0 764 q 21 809 0 790 q 72 828 42 828 q 122 809 101 828 q 143 764 143 790 q 122 719 143 738 q 72 700 101 700 q 21 719 42 700 q 0 764 0 738 m 143 899 q 163 947 143 926 q 213 968 183 968 q 262 947 242 968 q 282 899 282 926 q 262 849 282 869 q 213 828 242 828 q 163 849 183 828 q 143 899 143 869 m 418 900 q 439 948 418 928 q 490 968 460 968 q 540 948 519 968 q 561 900 561 928 q 540 852 561 872 q 490 832 519 832 q 439 852 460 832 q 418 900 418 872 m 275 764 q 296 812 275 792 q 347 832 317 832 q 397 812 376 832 q 418 764 418 792 q 397 716 418 736 q 347 696 376 696 q 296 716 317 696 q 275 764 275 736 z "},"":{"ha":833,"x_min":0,"x_max":694,"o":"m 557 68 q 577 116 557 96 q 626 136 597 136 q 674 116 654 136 q 694 68 694 96 q 674 20 694 40 q 626 0 654 0 q 577 20 597 0 q 557 68 557 40 m 419 68 q 440 116 419 96 q 489 136 460 136 q 537 116 517 136 q 557 68 557 96 q 537 20 557 40 q 489 0 517 0 q 440 20 460 0 q 419 68 419 40 m 276 67 q 297 114 276 94 q 349 133 318 133 q 399 114 378 133 q 419 67 419 94 q 399 19 419 39 q 349 0 378 0 q 297 19 318 0 q 276 67 276 39 m 136 67 q 157 114 136 94 q 207 133 178 133 q 256 114 235 133 q 276 67 276 94 q 256 19 276 39 q 207 0 235 0 q 157 19 178 0 q 136 67 136 39 m 551 763 q 572 810 551 790 q 624 829 593 829 q 674 810 653 829 q 694 763 694 790 q 674 714 694 733 q 624 694 653 694 q 572 714 593 694 q 551 763 551 733 m 415 899 q 435 948 415 928 q 483 968 456 968 q 531 948 511 968 q 551 899 551 928 q 531 849 551 869 q 483 829 511 829 q 435 849 456 829 q 415 899 415 869 m 276 900 q 297 948 276 928 q 346 968 317 968 q 395 948 375 968 q 415 900 415 928 q 395 852 415 872 q 346 832 375 832 q 297 852 317 832 q 276 900 276 872 m 140 764 q 160 812 140 792 q 208 832 181 832 q 256 812 236 832 q 276 764 276 792 q 256 715 276 735 q 208 694 236 694 q 160 715 181 694 q 140 764 140 735 m 140 625 q 161 674 140 654 q 211 694 182 694 q 260 674 239 694 q 281 625 281 654 q 260 576 281 596 q 211 556 239 556 q 161 576 182 556 q 140 625 140 596 m 140 485 q 161 535 140 514 q 211 556 182 556 q 260 535 239 556 q 281 485 281 514 q 260 435 281 456 q 211 414 239 414 q 161 435 182 414 q 140 485 140 456 m 140 346 q 161 394 140 374 q 211 414 182 414 q 261 394 240 414 q 282 346 282 374 q 261 297 282 317 q 211 276 240 276 q 161 297 182 276 q 140 346 140 317 m 138 206 q 158 256 138 235 q 210 276 179 276 q 261 256 240 276 q 282 206 282 235 q 261 154 282 175 q 210 133 240 133 q 158 154 179 133 q 138 206 138 175 m 0 485 q 21 531 0 511 q 71 550 42 550 q 119 531 99 550 q 140 485 140 511 q 119 438 140 457 q 71 418 99 418 q 21 438 42 418 q 0 485 0 457 m 281 485 q 300 532 281 513 q 349 551 319 551 q 396 532 376 551 q 415 485 415 513 q 396 438 415 457 q 349 418 376 418 q 300 438 319 418 q 281 485 281 457 z "},"":{"ha":1108,"x_min":0,"x_max":981,"o":"m 0 624 q 21 672 0 651 q 71 692 42 692 q 121 672 100 692 q 142 624 142 651 q 121 574 142 594 q 71 554 100 554 q 21 574 42 554 q 0 624 0 594 m 0 486 q 21 534 0 514 q 71 554 42 554 q 121 534 100 554 q 142 486 142 514 q 121 438 142 458 q 71 418 100 418 q 21 438 42 418 q 0 486 0 458 m 0 346 q 22 397 0 376 q 74 418 43 418 q 124 397 103 418 q 146 346 146 376 q 124 294 146 315 q 74 274 103 274 q 22 294 43 274 q 0 346 0 315 m 0 206 q 22 253 0 233 q 74 274 43 274 q 124 253 103 274 q 146 206 146 233 q 124 156 146 176 q 74 136 103 136 q 22 156 43 136 q 0 206 0 176 m 139 68 q 160 116 139 96 q 210 136 181 136 q 260 116 239 136 q 281 68 281 96 q 260 20 281 40 q 210 0 239 0 q 160 20 181 0 q 139 68 139 40 m 281 -69 q 301 -20 281 -40 q 350 0 321 0 q 398 -20 378 0 q 418 -69 418 -40 q 398 -119 418 -99 q 350 -139 378 -139 q 301 -119 321 -139 q 281 -69 281 -99 m 418 -69 q 438 -20 418 -40 q 488 0 458 0 q 537 -20 517 0 q 557 -69 557 -40 q 537 -119 557 -99 q 488 -139 517 -139 q 438 -119 458 -139 q 418 -69 418 -99 m 557 -71 q 577 -21 557 -42 q 626 0 597 0 q 676 -21 656 0 q 696 -71 696 -42 q 676 -119 696 -99 q 626 -140 656 -140 q 577 -119 597 -140 q 557 -71 557 -99 m 696 67 q 717 113 696 93 q 767 132 738 132 q 817 113 796 132 q 838 67 838 93 q 817 19 838 39 q 767 0 796 0 q 717 19 738 0 q 696 67 696 39 m 838 204 q 858 254 838 233 q 910 275 879 275 q 960 254 939 275 q 981 204 981 233 q 960 153 981 174 q 910 132 939 132 q 858 153 879 132 q 838 204 838 174 m 831 343 q 853 391 831 371 q 906 411 875 411 q 958 391 936 411 q 981 343 981 371 q 958 295 981 315 q 906 275 936 275 q 853 295 875 275 q 831 343 831 315 m 832 483 q 853 533 832 513 q 906 554 875 554 q 958 533 936 554 q 979 483 979 513 q 958 432 979 453 q 906 411 936 411 q 853 432 875 411 q 832 483 832 453 m 833 622 q 855 670 833 650 q 907 690 876 690 q 958 670 936 690 q 979 622 979 650 q 958 574 979 594 q 907 554 936 554 q 855 574 876 554 q 833 622 833 594 m 697 761 q 717 811 697 790 q 765 832 738 832 q 813 811 793 832 q 833 761 833 790 q 813 711 833 732 q 765 690 793 690 q 717 711 738 690 q 697 761 697 732 m 557 900 q 578 948 557 928 q 628 968 599 968 q 676 948 656 968 q 697 900 697 928 q 676 852 697 872 q 628 832 656 832 q 578 852 599 832 q 557 900 557 872 m 417 901 q 438 949 417 929 q 488 968 458 968 q 536 949 515 968 q 557 901 557 929 q 536 853 557 872 q 488 833 515 833 q 438 853 458 833 q 417 901 417 872 m 274 901 q 294 949 274 929 q 346 968 315 968 q 396 949 375 968 q 417 901 417 929 q 396 853 417 872 q 346 833 375 833 q 294 853 315 833 q 274 901 274 872 m 139 767 q 159 818 139 797 q 208 839 179 839 q 258 818 238 839 q 278 767 278 797 q 258 715 278 736 q 208 694 238 694 q 159 715 179 694 q 139 767 139 736 m 414 622 q 435 667 414 649 q 486 686 456 686 q 538 667 517 686 q 558 622 558 649 q 538 576 558 594 q 486 557 517 557 q 435 576 456 557 q 414 622 414 594 m 272 486 q 293 536 272 515 q 343 557 314 557 q 393 536 372 557 q 414 486 414 515 q 393 436 414 457 q 343 415 372 415 q 293 436 314 415 q 272 486 272 457 m 272 347 q 294 395 272 375 q 346 415 315 415 q 398 395 376 415 q 419 347 419 375 q 398 299 419 319 q 346 279 376 279 q 294 299 315 279 q 272 347 272 319 m 419 210 q 440 259 419 239 q 489 279 460 279 q 538 259 518 279 q 558 210 558 239 q 538 160 558 181 q 489 140 518 140 q 440 160 460 140 q 419 210 419 181 z "},"":{"ha":833,"x_min":0,"x_max":697,"o":"m 135 622 q 156 668 135 649 q 207 688 176 688 q 258 668 238 688 q 279 622 279 649 q 258 576 279 596 q 207 557 238 557 q 156 576 176 557 q 135 622 135 596 m 0 488 q 19 536 0 515 q 68 557 39 557 q 115 536 96 557 q 135 488 135 515 q 115 438 135 458 q 68 417 96 417 q 19 438 39 417 q 0 488 0 458 m 133 346 q 155 396 133 375 q 207 417 176 417 q 258 396 236 417 q 279 346 279 375 q 258 296 279 317 q 207 275 236 275 q 155 296 176 275 q 133 346 133 317 m 553 346 q 574 393 553 374 q 625 413 594 413 q 675 393 654 413 q 696 346 696 374 q 675 297 696 317 q 625 278 654 278 q 574 297 594 278 q 553 346 553 317 m 417 483 q 437 532 417 511 q 485 553 457 553 q 533 532 513 553 q 553 483 553 511 q 533 433 553 454 q 485 413 513 413 q 437 433 457 413 q 417 483 417 454 m 553 621 q 574 671 553 650 q 625 692 594 692 q 676 671 656 692 q 697 621 697 650 q 676 569 697 590 q 625 549 656 549 q 574 569 594 549 q 553 621 553 590 z "},"":{"ha":833,"x_min":0,"x_max":694,"o":"m 0 343 q 19 389 0 369 q 67 408 39 408 q 114 389 94 408 q 133 343 133 369 q 114 296 133 315 q 67 276 94 276 q 19 296 39 276 q 0 343 0 315 m 140 481 q 161 533 140 511 q 211 554 182 554 q 260 533 239 554 q 281 481 281 511 q 260 427 281 449 q 211 406 239 406 q 161 427 182 406 q 140 481 140 449 m 0 625 q 21 670 0 651 q 71 689 42 689 q 119 670 99 689 q 140 625 140 651 q 119 578 140 597 q 71 560 99 560 q 21 578 42 560 q 0 625 0 597 m 419 621 q 440 669 419 649 q 489 689 460 689 q 538 669 518 689 q 558 621 558 649 q 538 573 558 593 q 489 553 518 553 q 440 573 460 553 q 419 621 419 593 m 558 485 q 578 533 558 513 q 626 553 599 553 q 674 533 654 553 q 694 485 694 513 q 674 435 694 456 q 626 415 654 415 q 578 435 599 415 q 558 485 558 456 m 413 344 q 434 390 413 371 q 486 408 456 408 q 538 390 517 408 q 560 344 560 371 q 538 298 560 317 q 486 279 517 279 q 434 298 456 279 q 413 344 413 317 z "},"":{"ha":833,"x_min":0,"x_max":703,"o":"m 0 68 q 21 116 0 96 q 72 136 42 136 q 124 116 103 136 q 144 68 144 96 q 124 20 144 40 q 72 0 103 0 q 21 20 42 0 q 0 68 0 40 m 0 204 q 21 252 0 232 q 72 272 42 272 q 124 252 103 272 q 144 204 144 232 q 124 156 144 176 q 72 136 103 136 q 21 156 42 136 q 0 204 0 176 m 0 343 q 21 392 0 371 q 71 413 42 413 q 121 392 100 413 q 142 343 142 371 q 121 293 142 314 q 71 272 100 272 q 21 293 42 272 q 0 343 0 314 m 0 481 q 21 528 0 508 q 71 549 42 549 q 121 528 100 549 q 142 481 142 508 q 121 433 142 453 q 71 413 100 413 q 21 433 42 413 q 0 481 0 453 m 0 618 q 21 667 0 647 q 72 688 42 688 q 124 667 103 688 q 144 618 144 647 q 124 569 144 589 q 72 549 103 549 q 21 569 42 549 q 0 618 0 589 m 144 758 q 164 808 144 788 q 213 829 183 829 q 260 808 240 829 q 279 758 279 788 q 260 708 279 729 q 213 688 240 688 q 164 708 183 688 q 144 758 144 729 m 279 761 q 300 809 279 789 q 350 829 321 829 q 400 809 379 829 q 421 761 421 789 q 400 712 421 732 q 350 692 379 692 q 300 712 321 692 q 279 761 279 732 m 421 760 q 442 808 421 788 q 492 828 463 828 q 542 808 521 828 q 563 760 563 788 q 542 712 563 732 q 492 692 521 692 q 442 712 463 692 q 421 760 421 732 m 557 68 q 576 115 557 96 q 625 135 596 135 q 672 115 653 135 q 692 68 692 96 q 672 19 692 39 q 625 0 653 0 q 576 19 596 0 q 557 68 557 39 m 557 206 q 578 254 557 233 q 631 275 600 275 q 681 254 660 275 q 703 206 703 233 q 681 156 703 176 q 631 135 660 135 q 578 156 600 135 q 557 206 557 176 m 553 344 q 575 392 553 372 q 628 413 597 413 q 681 392 658 413 q 703 344 703 372 q 681 295 703 315 q 628 275 658 275 q 575 295 597 275 q 553 344 553 315 m 553 482 q 574 530 553 510 q 626 550 596 550 q 678 530 657 550 q 700 482 700 510 q 678 433 700 453 q 626 413 657 413 q 574 433 596 413 q 553 482 553 453 m 556 621 q 576 671 556 650 q 628 692 597 692 q 679 671 658 692 q 700 621 700 650 q 679 571 700 592 q 628 550 658 550 q 576 571 597 550 q 556 621 556 592 m 417 482 q 436 530 417 510 q 485 550 456 550 q 532 530 513 550 q 551 482 551 510 q 532 434 551 454 q 485 414 513 414 q 436 434 456 414 q 417 482 417 454 m 278 482 q 298 530 278 510 q 347 550 318 550 q 397 530 376 550 q 417 482 417 510 q 397 434 417 454 q 347 414 376 414 q 298 434 318 414 q 278 482 278 454 m 143 482 q 163 530 143 510 q 211 550 182 550 q 258 530 239 550 q 278 482 278 510 q 258 434 278 454 q 211 414 239 414 q 163 434 182 414 q 143 482 143 454 m 274 1038 q 295 1087 274 1067 q 349 1107 317 1107 q 401 1087 379 1107 q 422 1038 422 1067 q 401 988 422 1008 q 349 968 379 968 q 295 988 317 968 q 274 1038 274 1008 z "},"":{"ha":971,"x_min":0,"x_max":840,"o":"m 0 68 q 21 116 0 96 q 71 136 42 136 q 121 116 100 136 q 142 68 142 96 q 121 20 142 40 q 71 0 100 0 q 21 20 42 0 q 0 68 0 40 m 0 204 q 21 252 0 232 q 71 272 42 272 q 121 252 100 272 q 142 204 142 232 q 121 156 142 176 q 71 136 100 136 q 21 156 42 136 q 0 204 0 176 m 0 342 q 20 391 0 371 q 69 411 40 411 q 119 391 99 411 q 139 342 139 371 q 119 292 139 313 q 69 272 99 272 q 20 292 40 272 q 0 342 0 313 m 0 482 q 20 532 0 511 q 69 553 40 553 q 119 532 99 553 q 139 482 139 511 q 119 432 139 453 q 69 411 99 411 q 20 432 40 411 q 0 482 0 453 m 0 624 q 21 672 0 651 q 72 693 42 693 q 124 672 103 693 q 144 624 144 651 q 124 574 144 594 q 72 553 103 553 q 21 574 42 553 q 0 624 0 594 m 0 761 q 21 808 0 789 q 72 828 42 828 q 124 808 103 828 q 144 761 144 789 q 124 713 144 732 q 72 693 103 693 q 21 713 42 693 q 0 761 0 732 m 136 901 q 157 949 136 929 q 208 968 178 968 q 260 949 239 968 q 281 901 281 929 q 260 854 281 874 q 208 835 239 835 q 157 854 178 835 q 136 901 136 874 m 281 901 q 301 949 281 929 q 351 968 322 968 q 400 949 379 968 q 421 901 421 929 q 400 854 421 874 q 351 835 379 835 q 301 854 322 835 q 281 901 281 874 m 421 899 q 441 947 421 926 q 489 968 461 968 q 537 947 517 968 q 557 899 557 926 q 537 849 557 869 q 489 828 517 828 q 441 849 461 828 q 421 899 421 869 m 557 899 q 578 947 557 926 q 629 968 599 968 q 679 947 658 968 q 700 899 700 926 q 679 849 700 869 q 629 828 658 828 q 578 849 599 828 q 557 899 557 869 m 700 899 q 721 948 700 928 q 771 968 742 968 q 819 948 799 968 q 840 899 840 928 q 819 849 840 869 q 771 829 799 829 q 721 849 742 829 q 700 899 700 869 m 694 68 q 715 115 694 96 q 764 135 735 135 q 812 115 792 135 q 832 68 832 96 q 812 19 832 39 q 764 0 792 0 q 715 19 735 0 q 694 68 694 39 m 553 68 q 574 115 553 96 q 624 135 594 135 q 674 115 653 135 q 694 68 694 96 q 674 19 694 39 q 624 0 653 0 q 574 19 594 0 q 553 68 553 39 m 414 69 q 434 119 414 99 q 483 139 454 139 q 533 119 513 139 q 553 69 553 99 q 533 20 553 40 q 483 0 513 0 q 434 20 454 0 q 414 69 414 40 m 414 204 q 435 250 414 231 q 488 269 457 269 q 540 250 518 269 q 561 204 561 231 q 540 158 561 178 q 488 139 518 139 q 435 158 457 139 q 414 204 414 178 m 414 342 q 435 393 414 372 q 488 414 457 414 q 540 393 518 414 q 561 342 561 372 q 540 290 561 311 q 488 269 518 269 q 435 290 457 269 q 414 342 414 311 m 414 482 q 435 530 414 510 q 486 550 456 550 q 538 530 517 550 q 558 482 558 510 q 538 434 558 454 q 486 414 517 414 q 435 434 456 414 q 414 482 414 454 m 414 619 q 435 667 414 647 q 486 688 456 688 q 538 667 517 688 q 558 619 558 647 q 538 570 558 590 q 486 550 517 550 q 435 570 456 550 q 414 619 414 590 m 414 756 q 435 803 414 783 q 488 824 457 824 q 540 803 518 824 q 561 756 561 783 q 540 708 561 728 q 488 688 518 688 q 435 708 457 688 q 414 756 414 728 m 558 483 q 579 529 558 510 q 629 549 600 549 q 678 529 657 549 q 699 483 699 510 q 678 438 699 457 q 629 418 657 418 q 579 438 600 418 q 558 483 558 457 m 278 483 q 298 529 278 510 q 347 549 318 549 q 395 529 375 549 q 415 483 415 510 q 395 438 415 457 q 347 418 375 418 q 298 438 318 418 q 278 483 278 457 m 142 483 q 162 529 142 510 q 210 549 182 549 q 258 529 238 549 q 278 483 278 510 q 258 436 278 456 q 210 417 238 417 q 162 436 182 417 q 142 483 142 456 z "},"":{"ha":694,"x_min":0,"x_max":563,"o":"m 276 64 q 296 109 276 90 q 344 128 315 128 q 392 109 372 128 q 411 64 411 90 q 392 19 411 38 q 344 0 372 0 q 296 19 315 0 q 276 64 276 38 m 138 69 q 158 117 138 97 q 207 138 178 138 q 256 117 236 138 q 276 69 276 97 q 256 20 276 40 q 207 0 236 0 q 158 20 178 0 q 138 69 138 40 m 0 206 q 20 253 0 233 q 69 274 40 274 q 117 253 97 274 q 138 206 138 233 q 117 158 138 178 q 69 138 97 138 q 20 158 40 138 q 0 206 0 178 m 0 343 q 21 392 0 372 q 72 413 42 413 q 122 392 101 413 q 143 343 143 372 q 122 294 143 314 q 72 274 101 274 q 21 294 42 274 q 0 343 0 314 m 0 482 q 21 530 0 510 q 72 550 42 550 q 122 530 101 550 q 143 482 143 510 q 122 433 143 453 q 72 413 101 413 q 21 433 42 413 q 0 482 0 453 m 0 621 q 22 669 0 649 q 74 690 43 690 q 126 669 104 690 q 147 621 147 649 q 126 571 147 592 q 74 550 104 550 q 22 571 43 550 q 0 621 0 592 m 0 761 q 22 810 0 789 q 74 831 43 831 q 126 810 104 831 q 147 761 147 789 q 126 711 147 732 q 74 690 104 690 q 22 711 43 690 q 0 761 0 732 m 142 899 q 163 948 142 928 q 213 968 183 968 q 261 948 240 968 q 282 899 282 928 q 261 849 282 869 q 213 829 240 829 q 163 849 183 829 q 142 899 142 869 m 282 901 q 302 949 282 929 q 351 968 322 968 q 401 949 381 968 q 421 901 421 929 q 401 854 421 874 q 351 835 381 835 q 302 854 322 835 q 282 901 282 874 m 421 763 q 441 814 421 793 q 489 835 461 835 q 537 814 517 835 q 557 763 557 793 q 537 711 557 732 q 489 690 517 690 q 441 711 461 690 q 421 763 421 732 m 418 622 q 438 670 418 650 q 488 690 458 690 q 537 670 517 690 q 557 622 557 650 q 537 574 557 594 q 488 554 517 554 q 438 574 458 554 q 418 622 418 594 m 418 485 q 439 534 418 514 q 490 554 460 554 q 540 534 519 554 q 561 485 561 514 q 540 435 561 456 q 490 415 519 415 q 439 435 460 415 q 418 485 418 456 m 413 344 q 434 394 413 374 q 488 415 456 415 q 540 394 518 415 q 561 344 561 374 q 540 294 561 315 q 488 274 518 274 q 434 294 456 274 q 413 344 413 315 m 413 204 q 435 253 413 232 q 488 274 457 274 q 540 253 518 274 q 563 204 563 232 q 540 154 563 175 q 488 133 518 133 q 435 154 457 133 q 413 204 413 175 m 282 622 q 302 666 282 647 q 351 685 322 685 q 401 666 381 685 q 421 622 421 647 q 401 577 421 596 q 351 558 381 558 q 302 577 322 558 q 282 622 282 596 m 142 486 q 163 538 142 517 q 213 558 183 558 q 263 538 242 558 q 283 486 283 517 q 263 435 283 456 q 213 414 242 414 q 163 435 183 414 q 142 486 142 456 z "},"":{"ha":694,"x_min":0,"x_max":558,"o":"m 278 903 q 299 949 278 929 q 350 968 319 968 q 400 949 379 968 q 421 903 421 929 q 400 856 421 875 q 350 836 379 836 q 299 856 319 836 q 278 903 278 875 m 136 622 q 157 670 136 650 q 208 690 178 690 q 260 670 239 690 q 281 622 281 650 q 260 574 281 594 q 208 554 239 554 q 157 574 178 554 q 136 622 136 594 m 281 624 q 301 672 281 651 q 350 692 321 692 q 398 672 378 692 q 418 624 418 651 q 398 574 418 594 q 350 554 378 554 q 301 574 321 554 q 281 624 281 594 m 415 486 q 436 535 415 514 q 486 556 457 556 q 536 535 515 556 q 557 486 557 514 q 536 436 557 457 q 486 415 515 415 q 436 436 457 415 q 415 486 415 457 m 417 347 q 438 395 417 375 q 488 415 458 415 q 536 395 515 415 q 557 347 557 375 q 536 298 557 318 q 488 278 515 278 q 438 298 458 278 q 417 347 417 318 m 275 346 q 296 394 275 374 q 346 414 317 414 q 396 394 375 414 q 417 346 417 374 q 396 298 417 318 q 346 278 375 278 q 296 298 317 278 q 275 346 275 318 m 139 346 q 159 394 139 374 q 207 414 179 414 q 255 394 235 414 q 275 346 275 374 q 255 298 275 318 q 207 278 235 278 q 159 298 179 278 q 139 346 139 318 m 0 208 q 20 258 0 238 q 69 278 40 278 q 119 258 99 278 q 139 208 139 238 q 119 159 139 179 q 69 139 99 139 q 20 159 40 139 q 0 208 0 179 m 133 71 q 155 119 133 99 q 207 140 176 140 q 258 119 236 140 q 279 71 279 99 q 258 21 279 42 q 207 0 236 0 q 155 21 176 0 q 133 71 133 42 m 279 68 q 299 116 279 96 q 349 136 319 136 q 398 116 378 136 q 418 68 418 96 q 398 20 418 40 q 349 0 378 0 q 299 20 319 0 q 279 68 279 40 m 418 204 q 438 252 418 232 q 488 272 458 272 q 537 252 517 272 q 557 204 557 232 q 537 156 557 176 q 488 136 517 136 q 438 156 458 136 q 418 204 418 176 m 417 67 q 438 114 417 94 q 488 133 458 133 q 538 114 517 133 q 558 67 558 94 q 538 19 558 39 q 488 0 517 0 q 438 19 458 0 q 417 67 417 39 z "},"":{"ha":1108,"x_min":0,"x_max":976,"o":"m 0 207 q 21 255 0 235 q 71 275 42 275 q 121 255 100 275 q 142 207 142 235 q 121 159 142 179 q 71 139 100 139 q 21 159 42 139 q 0 207 0 179 m 142 69 q 162 119 142 99 q 211 139 182 139 q 259 119 239 139 q 279 69 279 99 q 259 20 279 40 q 211 0 239 0 q 162 20 182 0 q 142 69 142 40 m 279 68 q 300 115 279 96 q 350 135 321 135 q 399 115 378 135 q 419 68 419 96 q 399 19 419 39 q 350 0 378 0 q 300 19 321 0 q 279 68 279 39 m 419 68 q 440 115 419 96 q 489 135 460 135 q 538 115 518 135 q 558 68 558 96 q 538 19 558 39 q 489 0 518 0 q 440 19 460 0 q 419 68 419 39 m 558 68 q 578 116 558 96 q 628 136 599 136 q 677 116 657 136 q 697 68 697 96 q 677 20 697 40 q 628 0 657 0 q 578 20 599 0 q 558 68 558 40 m 697 68 q 717 116 697 96 q 765 136 738 136 q 813 116 793 136 q 833 68 833 96 q 813 20 833 40 q 765 0 793 0 q 717 20 738 0 q 697 68 697 40 m 415 204 q 435 252 415 232 q 483 272 456 272 q 531 252 511 272 q 551 204 551 232 q 531 156 551 176 q 483 136 511 136 q 435 156 456 136 q 415 204 415 176 m 133 347 q 155 394 133 375 q 207 414 176 414 q 258 394 236 414 q 279 347 279 375 q 258 299 279 318 q 207 279 236 279 q 155 299 176 279 q 133 347 133 318 m 279 349 q 299 397 279 376 q 349 417 319 417 q 397 397 376 417 q 417 349 417 376 q 397 299 417 319 q 349 279 376 279 q 299 299 319 279 q 279 349 279 319 m 417 347 q 438 397 417 376 q 488 417 458 417 q 536 397 515 417 q 557 347 557 376 q 536 298 557 318 q 488 278 515 278 q 438 298 458 278 q 417 347 417 318 m 557 346 q 577 393 557 374 q 626 413 597 413 q 674 393 654 413 q 694 346 694 374 q 674 297 694 317 q 626 278 654 278 q 577 297 597 278 q 557 346 557 317 m 694 346 q 715 393 694 374 q 765 413 736 413 q 815 393 794 413 q 836 346 836 374 q 815 297 836 317 q 765 278 794 278 q 715 297 736 278 q 694 346 694 317 m 836 344 q 857 392 836 372 q 907 411 878 411 q 956 392 935 411 q 976 344 976 372 q 956 297 976 317 q 907 278 935 278 q 857 297 878 278 q 836 344 836 317 m 831 483 q 852 535 831 514 q 904 556 874 556 q 955 535 933 556 q 976 483 976 514 q 955 432 976 453 q 904 411 933 411 q 852 432 874 411 q 831 483 831 453 m 694 624 q 715 672 694 651 q 763 692 735 692 q 810 672 790 692 q 831 624 831 651 q 810 576 831 596 q 763 556 790 556 q 715 576 735 556 q 694 624 694 596 m 554 624 q 575 672 554 651 q 625 692 596 692 q 674 672 653 692 q 694 624 694 651 q 674 574 694 594 q 625 554 653 554 q 575 574 596 554 q 554 624 554 594 m 411 485 q 432 534 411 514 q 483 554 453 554 q 533 534 513 554 q 554 485 554 514 q 533 435 554 456 q 483 415 513 415 q 432 435 453 415 q 411 485 411 456 m 279 624 q 299 672 279 651 q 347 692 318 692 q 394 672 375 692 q 414 624 414 651 q 394 574 414 594 q 347 554 375 554 q 299 574 318 554 q 279 624 279 594 m 138 624 q 158 672 138 651 q 208 692 179 692 q 258 672 238 692 q 279 624 279 651 q 258 574 279 594 q 208 554 238 554 q 158 574 179 554 q 138 624 138 594 z "},"":{"ha":694,"x_min":0,"x_max":565,"o":"m 0 347 q 21 395 0 375 q 72 415 42 415 q 122 395 101 415 q 143 347 143 375 q 122 298 143 318 q 72 278 101 278 q 21 298 42 278 q 0 347 0 318 m 0 207 q 21 257 0 236 q 72 278 42 278 q 122 257 101 278 q 143 207 143 236 q 122 156 143 176 q 72 135 101 135 q 21 156 42 135 q 0 207 0 176 m 136 65 q 157 111 136 92 q 208 131 178 131 q 260 111 239 131 q 281 65 281 92 q 260 19 281 39 q 208 0 239 0 q 157 19 178 0 q 136 65 136 39 m 281 65 q 301 111 281 92 q 351 131 322 131 q 400 111 379 131 q 421 65 421 92 q 400 19 421 39 q 351 0 379 0 q 301 19 322 0 q 281 65 281 39 m 418 204 q 440 252 418 232 q 492 272 461 272 q 544 252 522 272 q 565 204 565 232 q 544 156 565 176 q 492 136 522 136 q 440 156 461 136 q 418 204 418 176 m 413 344 q 435 396 413 375 q 489 417 457 417 q 543 396 521 417 q 565 344 565 375 q 543 293 565 314 q 489 272 521 272 q 435 293 457 272 q 413 344 413 314 m 278 485 q 297 532 278 513 q 346 551 317 551 q 393 532 374 551 q 413 485 413 513 q 393 436 413 456 q 346 417 374 417 q 297 436 317 417 q 278 485 278 456 m 138 485 q 158 532 138 513 q 208 551 179 551 q 257 532 236 551 q 278 485 278 513 q 257 436 278 456 q 208 417 236 417 q 158 436 179 417 q 138 485 138 456 m 138 901 q 158 949 138 929 q 208 968 179 968 q 258 949 238 968 q 279 901 279 929 q 258 853 279 872 q 208 833 238 833 q 158 853 179 833 q 138 901 138 872 m 279 765 q 300 813 279 793 q 350 833 321 833 q 400 813 379 833 q 421 765 421 793 q 400 716 421 736 q 350 696 379 696 q 300 716 321 696 q 279 765 279 736 z "},"":{"ha":694,"x_min":0,"x_max":563,"o":"m 275 901 q 297 949 275 929 q 350 968 319 968 q 403 949 381 968 q 425 901 425 929 q 403 854 425 874 q 350 835 381 835 q 297 854 319 835 q 275 901 275 874 m 138 764 q 158 814 138 793 q 207 835 178 835 q 255 814 235 835 q 275 764 275 793 q 255 714 275 735 q 207 693 235 693 q 158 714 178 693 q 138 764 138 735 m 143 486 q 163 534 143 514 q 213 554 183 554 q 260 534 240 554 q 281 486 281 514 q 260 437 281 457 q 213 417 240 417 q 163 437 183 417 q 143 486 143 457 m 281 485 q 301 532 281 513 q 351 551 322 551 q 400 532 379 551 q 421 485 421 513 q 400 436 421 456 q 351 417 379 417 q 301 436 322 417 q 281 485 281 456 m 424 347 q 444 397 424 376 q 493 417 464 417 q 542 397 522 417 q 563 347 563 376 q 542 298 563 318 q 493 278 522 278 q 444 298 464 278 q 424 347 424 318 m 418 207 q 439 257 418 236 q 490 278 460 278 q 542 257 521 278 q 563 207 563 236 q 542 157 563 178 q 490 136 521 136 q 439 157 460 136 q 418 207 418 178 m 278 68 q 299 116 278 96 q 349 136 319 136 q 397 116 376 136 q 418 68 418 96 q 397 20 418 40 q 349 0 376 0 q 299 20 319 0 q 278 68 278 40 m 138 68 q 158 115 138 96 q 208 135 179 135 q 257 115 236 135 q 278 68 278 96 q 257 19 278 39 q 208 0 236 0 q 158 19 179 0 q 138 68 138 39 m 0 206 q 20 256 0 235 q 69 276 40 276 q 117 256 97 276 q 138 206 138 235 q 117 156 138 176 q 69 135 97 135 q 20 156 40 135 q 0 206 0 176 m 0 344 q 21 392 0 372 q 72 413 42 413 q 122 392 101 413 q 143 344 143 372 q 122 297 143 317 q 72 276 101 276 q 21 297 42 276 q 0 344 0 317 z "},"":{"ha":833,"x_min":0,"x_max":701,"o":"m 0 483 q 21 531 0 511 q 72 551 42 551 q 124 531 103 551 q 144 483 144 511 q 124 435 144 456 q 72 415 103 415 q 21 435 42 415 q 0 483 0 456 m 0 347 q 21 395 0 375 q 72 415 42 415 q 124 395 103 415 q 144 347 144 375 q 124 298 144 318 q 72 278 103 278 q 21 298 42 278 q 0 347 0 318 m 0 207 q 21 257 0 236 q 71 278 42 278 q 119 257 99 278 q 140 207 140 236 q 119 157 140 178 q 71 136 99 136 q 21 157 42 136 q 0 207 0 178 m 140 68 q 161 116 140 96 q 211 136 182 136 q 260 116 239 136 q 281 68 281 96 q 260 20 281 40 q 211 0 239 0 q 161 20 182 0 q 140 68 140 40 m 281 68 q 301 116 281 96 q 350 136 321 136 q 398 116 378 136 q 418 68 418 96 q 398 20 418 40 q 350 0 378 0 q 301 20 321 0 q 281 68 281 40 m 418 68 q 438 116 418 96 q 488 136 458 136 q 535 116 515 136 q 556 68 556 96 q 535 20 556 40 q 488 0 515 0 q 438 20 458 0 q 418 68 418 40 m 558 204 q 579 254 558 233 q 631 275 600 275 q 681 254 660 275 q 701 204 701 233 q 681 154 701 175 q 631 133 660 133 q 579 154 600 133 q 558 204 558 175 m 554 346 q 576 394 554 374 q 628 415 597 415 q 680 394 658 415 q 701 346 701 374 q 680 296 701 317 q 628 275 658 275 q 576 296 597 275 q 554 346 554 317 m 417 485 q 437 533 417 513 q 486 553 457 553 q 534 533 514 553 q 554 485 554 513 q 534 435 554 456 q 486 415 514 415 q 437 435 457 415 q 417 485 417 456 m 417 621 q 438 669 417 649 q 488 689 458 689 q 538 669 517 689 q 558 621 558 649 q 538 573 558 593 q 488 553 517 553 q 438 573 458 553 q 417 621 417 593 m 132 622 q 153 668 132 649 q 207 688 175 688 q 259 668 238 688 q 281 622 281 649 q 259 575 281 594 q 207 556 238 556 q 153 575 175 556 q 132 622 132 594 m 281 624 q 301 672 281 651 q 350 692 321 692 q 398 672 378 692 q 418 624 418 651 q 398 576 418 596 q 350 556 378 556 q 301 576 321 556 q 281 624 281 596 m 556 483 q 576 531 556 511 q 624 550 596 550 q 672 531 651 550 q 692 483 692 511 q 672 436 692 456 q 624 417 651 417 q 576 436 596 417 q 556 483 556 456 m 274 349 q 294 399 274 378 q 346 419 315 419 q 397 399 376 419 q 418 349 418 378 q 397 299 418 319 q 346 278 376 278 q 294 299 315 278 q 274 349 274 319 m 143 207 q 163 257 143 236 q 208 278 182 278 q 254 257 235 278 q 274 207 274 236 q 254 156 274 176 q 208 135 235 135 q 163 156 182 135 q 143 207 143 176 z "}}}
